<svg xmlns="http://www.w3.org/2000/svg" width="33" height="33" viewBox="0 0 33 33"><defs><style>.a{fill:#3b7ded;}.b{fill:#fff;}</style></defs><g transform="translate(-551 -2394)"><circle class="a" cx="16.5" cy="16.5" r="16.5" transform="translate(551 2394)"/><g transform="translate(560.656 2402.581)"><path class="b" d="M374.309,93.433h3.171v10.186h-3.171Zm1.585-5.062a1.836,1.836,0,1,1-1.838,1.835,1.836,1.836,0,0,1,1.838-1.835" transform="translate(-374.056 -88.371)"/><path class="b" d="M377.839,91.986h3.036v1.393h.041a3.329,3.329,0,0,1,3-1.645c3.205,0,3.8,2.108,3.8,4.851v5.586h-3.164V97.219c0-1.181-.024-2.7-1.646-2.7-1.648,0-1.9,1.286-1.9,2.614v5.039h-3.164Z" transform="translate(-372.428 -86.924)"/></g></g></svg>