<svg xmlns="http://www.w3.org/2000/svg" width="32" height="33" viewBox="0 0 32 33"><defs><style>.a{fill:#3b7ded;}.b{fill:#fff;fill-rule:evenodd;}</style></defs><g transform="translate(-501 -2394)"><ellipse class="a" cx="16" cy="16.5" rx="16" ry="16.5" transform="translate(501 2394)"/><g transform="translate(508.143 2401.15)"><path class="b" d="M372.683,53.642c.106-.4.2-.758.292-1.11.309-1.127.625-2.253.918-3.382a.829.829,0,0,0-.056-.542,9.3,9.3,0,1,1,4.019,3.916.915.915,0,0,0-.572-.06C374.82,53.081,373.181,53.544,372.683,53.642Zm2.168-2.137c.928-.243,1.781-.456,2.627-.692a.764.764,0,0,1,.636.09,7.612,7.612,0,0,0,5.153.974,7.779,7.779,0,1,0-8.016-3.93,1.621,1.621,0,0,1,.174,1.476C375.194,50.078,375.051,50.76,374.851,51.5Z" transform="translate(-372.683 -34.877)"/><path class="b" d="M383.074,47.142c-1.818-.067-4.711-1.5-6.693-4.944a2.8,2.8,0,0,1,.429-3.578,1.3,1.3,0,0,1,1.2-.176c.1.014.206.169.256.283.263.6.523,1.2.754,1.818.122.325-.1.629-.573,1.17a.406.406,0,0,0-.063.529,6.335,6.335,0,0,0,3.229,2.773.388.388,0,0,0,.492-.132c.742-.907.818-1.171,1.208-.987,1.881.9,2.027.938,2.035,1.151A2.051,2.051,0,0,1,383.074,47.142Z" transform="translate(-371.286 -33.369)"/></g></g></svg>