<svg xmlns="http://www.w3.org/2000/svg" width="33" height="33" viewBox="0 0 33 33"><defs><style>.a{fill:#3b7ded;}.b{fill:#fff;fill-rule:evenodd;}</style></defs><g transform="translate(-407 -2394)"><circle class="a" cx="16.5" cy="16.5" r="16.5" transform="translate(407 2394)"/><path class="b" d="M57.6,38.208c.536-.017,1.074,0,1.612,0h.223V35.409c-.287-.03-.588-.07-.89-.086-.551-.024-1.1-.051-1.655-.04a4.061,4.061,0,0,0-2.336.722,3.49,3.49,0,0,0-1.4,2.334,7.819,7.819,0,0,0-.1,1.2c-.017.628,0,1.256,0,1.884v.235H50.372V44.78h2.66v7.849h3.249V44.794h2.652c.136-1.04.267-2.068.408-3.139h-.6c-.754,0-2.484,0-2.484,0s.009-1.548.027-2.22C56.312,38.515,56.858,38.235,57.6,38.208Z" transform="translate(368.07 2367.301)"/></g></svg>