<svg xmlns="http://www.w3.org/2000/svg" width="33" height="33" viewBox="0 0 33 33"><defs><style>.a{fill:#3b7ded;}.b{fill:#fff;}</style></defs><g transform="translate(-453 -2394)"><circle class="a" cx="16.5" cy="16.5" r="16.5" transform="translate(453 2394)"/><path class="b" d="M227.1,39.724a4.427,4.427,0,0,0-1.35-2.848,4.613,4.613,0,0,0-3.058-1.241,59.994,59.994,0,0,0-8.25.092,4.209,4.209,0,0,0-3.608,3.239c-.4,1.417-.318,7.959-.086,9.362a4.224,4.224,0,0,0,3.351,3.639,49.69,49.69,0,0,0,9.232.06,4.228,4.228,0,0,0,3.653-3.335C227.362,47.234,227.227,41.037,227.1,39.724Zm-1.536,8.333a2.825,2.825,0,0,1-2.655,2.52c-1.346.147-7.354.229-8.6-.12A2.733,2.733,0,0,1,212.23,48.1a55.978,55.978,0,0,1,0-8.418,2.82,2.82,0,0,1,2.645-2.509,59.085,59.085,0,0,1,8.21.033,2.827,2.827,0,0,1,2.514,2.66A59.794,59.794,0,0,1,225.56,48.056ZM218.892,39.6a4.276,4.276,0,1,0,4.276,4.281A4.271,4.271,0,0,0,218.892,39.6Zm-.03,7.041a2.765,2.765,0,1,1,2.8-2.755A2.762,2.762,0,0,1,218.862,46.64Zm5.473-7.2a1,1,0,1,1-.993-1.007A.994.994,0,0,1,224.336,39.439Z" transform="translate(250.449 2367.042)"/></g></svg>