<svg xmlns="http://www.w3.org/2000/svg" width="68.918" height="65.657" viewBox="0 0 68.918 65.657"><defs><style>.a{fill:#ffb555;}.b{fill:#381911;}.c{fill:#2d150f;}.cj,.ct,.d{fill:#d78c74;}.e{fill:#e5a185;}.f{opacity:0.58;}.g{fill:#e5a084;}.h{fill:#e59f83;}.i{fill:#e49e83;}.j{fill:#e49d82;}.k{fill:#e49c81;}.l{fill:#e49b80;}.m{fill:#e49a80;}.n{fill:#e3997f;}.o{fill:#e3987e;}.p{fill:#e3977d;}.q{fill:#e3967c;}.r{fill:#e2957c;}.s{fill:#e2947b;}.t{fill:#e2937a;}.u{fill:#e29279;}.v{fill:#e29179;}.w{fill:#e19078;}.x{fill:#e18f77;}.y{fill:#e18e76;}.z{fill:#e18d75;}.aa{fill:#e18c75;}.ab{fill:#e08b74;}.ac{fill:#e08a73;}.ad{fill:#e08972;}.ae{fill:#e08872;}.af{fill:#df8771;}.ag{fill:#df8670;}.ah{fill:#df856f;}.ai{fill:#df846f;}.aj{fill:#df836e;}.ak{fill:#de826d;}.al{fill:#de816c;}.am{fill:#de806b;}.an{fill:#de7f6b;}.ao{fill:#de7e6a;}.ap{fill:#dd7d69;}.aq{fill:#dd7c68;}.ar{fill:#dd7b68;}.as{fill:#dd7a67;}.at{fill:#dd7a66;}.au{fill:#dc7965;}.av{fill:#dc7864;}.aw{fill:#dc7764;}.ax{fill:#dc7663;}.ay{fill:#db7562;}.az{fill:#db7461;}.ba{fill:#db7361;}.bb{fill:#db7260;}.bc{fill:#db715f;}.bd{fill:#da705e;}.be{fill:#da6f5d;}.bf{fill:#da6e5d;}.bg{fill:#da6d5c;}.bh{fill:#da6c5b;}.bi{fill:#d96b5a;}.bj{fill:#d96a5a;}.bk{fill:#d96959;}.bl{fill:#d96858;}.bm{fill:#d86757;}.bn{fill:#d86657;}.bo{fill:#d86556;}.bp{fill:#d86455;}.bq{fill:#d86354;}.br{fill:#d76253;}.bs{fill:#d76153;}.bt{fill:#d76052;}.bu{fill:#d75f51;}.bv{fill:#d75e50;}.bw{fill:#d65d50;}.bx{fill:#d65c4f;}.by{fill:#d65b4e;}.bz{fill:#d65a4d;}.ca{fill:#d5594c;}.cb{fill:#d5584c;}.cc{fill:#d5574b;}.cd{fill:#d5564a;}.ce{fill:#d55549;}.cf{fill:#d45449;}.cg{fill:#d45348;}.ch{fill:#d45247;}.ci{opacity:0.65;}.cj{opacity:0.54;}.ck{fill:#6c332e;}.cl,.co,.cp{fill:#fff;}.cm{fill:#cec3af;opacity:0.16;}.cn{opacity:0.36;}.co{opacity:0.6;}.cp{opacity:0.1;}.cq{fill:#a59a76;}.cr{fill:#898163;}.cs{fill:#ed7066;}.ct{opacity:0.46;}</style></defs><g transform="translate(-268.775 -22.275)"><path class="a" d="M34.459,0C53.49,0,68.918,14.7,68.918,32.828S53.49,65.656,34.459,65.656,0,50.959,0,32.828,15.428,0,34.459,0Z" transform="translate(268.775 22.275)"/><path class="b" d="M313.433,32.062s-12.4-3.4-19.423,12.928.285,40.76.285,40.76h30.416s8.57-22.973,2.825-41.289C323.541,31.724,313.433,32.062,313.433,32.062Z" transform="translate(-7.261 -3.409)"/><path class="c" d="M301.661,67.867a72.686,72.686,0,0,0-1.769,17.576,52.271,52.271,0,0,0,2.4,13.1h18.484a129.314,129.314,0,0,0,3.184-19.017,67.727,67.727,0,0,0,0-12.2C316.523,67.384,309.091,67.579,301.661,67.867Z" transform="translate(-10.171 -16.18)"/><path class="d" d="M294.2,70.079c.672,2.015,2.381,3.267,3.817,2.8s2.055-2.487,1.383-4.5-2.381-3.267-3.816-2.8S293.528,68.063,294.2,70.079Z" transform="translate(-8.233 -15.515)"/><path class="e" d="M314.637,99.154h0a3.2,3.2,0,0,1-2.928-3.444s-2.073-2.949-1.179-3.071c1.636-.224,1.568-4.59,1.568-4.59a3.228,3.228,0,0,1,3.263-3.151h0a3.2,3.2,0,0,1,2.928,3.444s-.062,4.073,1.283,4.083c.98.008-1.672,3.578-1.672,3.578A3.228,3.228,0,0,1,314.637,99.154Z" transform="translate(-13.593 -22.489)"/><path class="d" d="M312.433,91.112a14.878,14.878,0,0,0,6.769-.291,13.458,13.458,0,0,1-.217-2.479,3.105,3.105,0,1,0-6.191-.294A12.4,12.4,0,0,1,312.433,91.112Z" transform="translate(-14.289 -22.489)"/><path class="e" d="M310.276,73.607c-12.726-.106-15.225-17.026-11.7-24.86l.055-.121a16.742,16.742,0,0,1,1.446-2.546,15.69,15.69,0,0,1,7.861-6.147,14.332,14.332,0,0,1,4.606-.724c9.305.039,13.309,9.91,12.864,18.141C324.979,65.334,317.831,73.67,310.276,73.607Z" transform="translate(-9.278 -6.081)"/><g class="f" transform="translate(287.218 48.304)"><path class="e" d="M5.185.012a5.491,5.491,0,0,1,5.287,5.519,5.212,5.212,0,0,1-5.172,5.4A5.491,5.491,0,0,1,.013,5.416,5.212,5.212,0,0,1,5.185.012Z" transform="translate(0 10.176) rotate(-76.765)"/><ellipse class="g" cx="5.441" cy="5.183" rx="5.441" ry="5.183" transform="translate(1.088 1.142)"/><path class="h" d="M5.121.011a5.411,5.411,0,0,1,5.214,5.448A5.158,5.158,0,0,1,5.226,10.8,5.411,5.411,0,0,1,.012,5.354,5.158,5.158,0,0,1,5.121.011Z" transform="translate(0.161 10.256) rotate(-77.942)"/><path class="i" d="M5.087.013a5.392,5.392,0,0,1,5.191,5.416,5.11,5.11,0,0,1-5.074,5.3A5.392,5.392,0,0,1,.013,5.312,5.11,5.11,0,0,1,5.087.013Z" transform="translate(0.092 10.052) rotate(-76.298)"/><ellipse class="j" cx="5.338" cy="5.085" rx="5.338" ry="5.085" transform="translate(1.191 1.24)"/><path class="k" d="M5.023.012a5.319,5.319,0,0,1,5.122,5.347,5.049,5.049,0,0,1-5.01,5.235A5.319,5.319,0,0,1,.012,5.247,5.049,5.049,0,0,1,5.023.012Z" transform="matrix(0.229, -0.973, 0.973, 0.229, 0.204, 10.055)"/><path class="l" d="M4.99.012a5.285,5.285,0,0,1,5.089,5.312,5.016,5.016,0,0,1-4.978,5.2A5.285,5.285,0,0,1,.012,5.213,5.016,5.016,0,0,1,4.99.012Z" transform="translate(0.245 10.031) rotate(-76.763)"/><ellipse class="m" cx="5.235" cy="4.988" rx="5.235" ry="4.988" transform="translate(1.293 1.338)"/><path class="n" d="M4.925.012A5.216,5.216,0,0,1,9.948,5.255a4.951,4.951,0,0,1-4.913,5.133A5.216,5.216,0,0,1,.012,5.145,4.951,4.951,0,0,1,4.925.012Z" transform="translate(0.326 9.983) rotate(-76.762)"/><path class="o" d="M4.893.012A5.182,5.182,0,0,1,9.883,5.22,4.919,4.919,0,0,1,5,10.32,5.182,5.182,0,0,1,.012,5.111,4.919,4.919,0,0,1,4.893.012Z" transform="translate(0.367 9.959) rotate(-76.762)"/><ellipse class="p" cx="5.133" cy="4.89" rx="5.133" ry="4.89" transform="translate(1.396 1.436)"/><path class="q" d="M4.828.012a5.113,5.113,0,0,1,4.924,5.14,4.853,4.853,0,0,1-4.816,5.032A5.113,5.113,0,0,1,.012,5.044,4.853,4.853,0,0,1,4.828.012Z" transform="translate(0.449 9.911) rotate(-76.761)"/><path class="r" d="M4.8.012A5.079,5.079,0,0,1,9.686,5.117a4.821,4.821,0,0,1-4.784,5A5.079,5.079,0,0,1,.012,5.01,4.821,4.821,0,0,1,4.8.012Z" transform="translate(0.489 9.886) rotate(-76.761)"/><ellipse class="s" cx="5.03" cy="4.792" rx="5.03" ry="4.792" transform="translate(1.499 1.534)"/><path class="t" d="M4.731.011A5.01,5.01,0,0,1,9.555,5.048,4.756,4.756,0,0,1,4.836,9.978,5.01,5.01,0,0,1,.012,4.942,4.756,4.756,0,0,1,4.731.011Z" transform="translate(0.571 9.838) rotate(-76.76)"/><path class="u" d="M4.7.011a4.976,4.976,0,0,1,4.791,5A4.723,4.723,0,0,1,4.8,9.91a4.976,4.976,0,0,1-4.791-5A4.723,4.723,0,0,1,4.7.011Z" transform="matrix(0.229, -0.973, 0.973, 0.229, 0.612, 9.814)"/><ellipse class="v" cx="4.927" cy="4.694" rx="4.927" ry="4.694" transform="translate(1.601 1.631)"/><path class="w" d="M308.409,70.149a4.9,4.9,0,1,1-4.893-4.662A4.781,4.781,0,0,1,308.409,70.149Z" transform="translate(-296.988 -63.823)"/><path class="x" d="M308.392,70.167a4.865,4.865,0,1,1-4.859-4.629A4.748,4.748,0,0,1,308.392,70.167Z" transform="translate(-297.004 -63.841)"/><ellipse class="y" cx="4.825" cy="4.596" rx="4.825" ry="4.596" transform="translate(1.704 1.729)"/><path class="z" d="M308.357,70.2a4.8,4.8,0,1,1-4.79-4.564A4.681,4.681,0,0,1,308.357,70.2Z" transform="translate(-297.038 -63.877)"/><path class="aa" d="M308.339,70.222a4.762,4.762,0,1,1-4.756-4.532A4.648,4.648,0,0,1,308.339,70.222Z" transform="translate(-297.054 -63.896)"/><ellipse class="ab" cx="4.722" cy="4.499" rx="4.722" ry="4.499" transform="translate(1.806 1.827)"/><path class="ac" d="M308.3,70.258a4.694,4.694,0,1,1-4.688-4.466A4.581,4.581,0,0,1,308.3,70.258Z" transform="translate(-297.087 -63.932)"/><path class="ad" d="M308.286,70.277a4.659,4.659,0,1,1-4.654-4.434A4.547,4.547,0,0,1,308.286,70.277Z" transform="translate(-297.104 -63.95)"/><ellipse class="ae" cx="4.619" cy="4.401" rx="4.619" ry="4.401" transform="translate(1.909 1.925)"/><path class="af" d="M308.251,70.313a4.591,4.591,0,1,1-4.585-4.369A4.481,4.481,0,0,1,308.251,70.313Z" transform="translate(-297.137 -63.987)"/><path class="ag" d="M308.234,70.331A4.556,4.556,0,1,1,303.683,66,4.447,4.447,0,0,1,308.234,70.331Z" transform="translate(-297.154 -64.005)"/><ellipse class="ah" cx="4.517" cy="4.303" rx="4.517" ry="4.303" transform="translate(2.012 2.023)"/><path class="ai" d="M308.2,70.368a4.488,4.488,0,1,1-4.482-4.271A4.38,4.38,0,0,1,308.2,70.368Z" transform="translate(-297.187 -64.042)"/><path class="aj" d="M308.181,70.386a4.454,4.454,0,1,1-4.449-4.238A4.347,4.347,0,0,1,308.181,70.386Z" transform="translate(-297.204 -64.06)"/><ellipse class="ak" cx="4.414" cy="4.205" rx="4.414" ry="4.205" transform="translate(2.114 2.12)"/><path class="al" d="M308.146,70.423a4.385,4.385,0,1,1-4.38-4.173A4.28,4.28,0,0,1,308.146,70.423Z" transform="translate(-297.237 -64.097)"/><path class="am" d="M308.128,70.441a4.351,4.351,0,1,1-4.346-4.14A4.247,4.247,0,0,1,308.128,70.441Z" transform="translate(-297.254 -64.115)"/><ellipse class="an" cx="4.311" cy="4.107" rx="4.311" ry="4.107" transform="translate(2.217 2.218)"/><path class="ao" d="M308.093,70.477a4.282,4.282,0,1,1-4.277-4.075A4.18,4.18,0,0,1,308.093,70.477Z" transform="translate(-297.287 -64.151)"/><path class="ap" d="M308.075,70.5a4.248,4.248,0,1,1-4.243-4.043A4.146,4.146,0,0,1,308.075,70.5Z" transform="translate(-297.304 -64.17)"/><ellipse class="aq" cx="4.209" cy="4.01" rx="4.209" ry="4.01" transform="translate(2.32 2.316)"/><path class="ar" d="M308.041,70.532a4.18,4.18,0,1,1-4.175-3.977A4.079,4.079,0,0,1,308.041,70.532Z" transform="translate(-297.337 -64.206)"/><path class="as" d="M308.023,70.551a4.145,4.145,0,1,1-4.14-3.945A4.046,4.046,0,0,1,308.023,70.551Z" transform="translate(-297.354 -64.225)"/><ellipse class="at" cx="4.106" cy="3.912" rx="4.106" ry="3.912" transform="translate(2.422 2.414)"/><path class="au" d="M307.988,70.587a4.077,4.077,0,1,1-4.072-3.88A3.979,3.979,0,0,1,307.988,70.587Z" transform="translate(-297.387 -64.261)"/><path class="av" d="M307.97,70.605a4.042,4.042,0,1,1-4.038-3.847A3.946,3.946,0,0,1,307.97,70.605Z" transform="translate(-297.404 -64.279)"/><ellipse class="aw" cx="4.004" cy="3.814" rx="4.004" ry="3.814" transform="translate(2.525 2.512)"/><path class="ax" d="M307.935,70.642a3.974,3.974,0,1,1-3.969-3.782A3.878,3.878,0,0,1,307.935,70.642Z" transform="translate(-297.437 -64.316)"/><path class="ay" d="M307.918,70.66a3.94,3.94,0,1,1-3.935-3.749A3.845,3.845,0,0,1,307.918,70.66Z" transform="translate(-297.454 -64.334)"/><ellipse class="az" cx="3.901" cy="3.716" rx="3.901" ry="3.716" transform="translate(2.628 2.609)"/><path class="ba" d="M307.882,70.7a3.871,3.871,0,1,1-3.867-3.684A3.778,3.778,0,0,1,307.882,70.7Z" transform="translate(-297.487 -64.371)"/><path class="bb" d="M307.865,70.715a3.837,3.837,0,1,1-3.832-3.651A3.745,3.745,0,0,1,307.865,70.715Z" transform="translate(-297.504 -64.389)"/><ellipse class="bc" cx="3.798" cy="3.618" rx="3.798" ry="3.618" transform="translate(2.73 2.707)"/><path class="bd" d="M307.83,70.751a3.768,3.768,0,1,1-3.764-3.586A3.678,3.678,0,0,1,307.83,70.751Z" transform="translate(-297.537 -64.425)"/><path class="be" d="M307.812,70.77a3.734,3.734,0,1,1-3.729-3.554A3.644,3.644,0,0,1,307.812,70.77Z" transform="translate(-297.554 -64.444)"/><ellipse class="bf" cx="3.696" cy="3.521" rx="3.696" ry="3.521" transform="translate(2.833 2.805)"/><path class="bg" d="M307.777,70.806a3.666,3.666,0,1,1-3.661-3.488A3.578,3.578,0,0,1,307.777,70.806Z" transform="translate(-297.587 -64.48)"/><path class="bh" d="M307.759,70.825a3.631,3.631,0,1,1-3.627-3.456A3.544,3.544,0,0,1,307.759,70.825Z" transform="translate(-297.604 -64.499)"/><ellipse class="bi" cx="3.593" cy="3.423" rx="3.593" ry="3.423" transform="translate(2.936 2.903)"/><path class="bj" d="M307.724,70.861a3.563,3.563,0,1,1-3.559-3.391A3.478,3.478,0,0,1,307.724,70.861Z" transform="translate(-297.637 -64.535)"/><path class="bk" d="M307.707,70.879a3.528,3.528,0,1,1-3.524-3.358A3.444,3.444,0,0,1,307.707,70.879Z" transform="translate(-297.654 -64.553)"/><ellipse class="bl" cx="3.49" cy="3.325" rx="3.49" ry="3.325" transform="translate(3.038 3.001)"/><path class="bm" d="M307.671,70.916a3.46,3.46,0,1,1-3.456-3.293A3.377,3.377,0,0,1,307.671,70.916Z" transform="translate(-297.687 -64.59)"/><path class="bn" d="M307.654,70.934a3.426,3.426,0,1,1-3.422-3.26A3.344,3.344,0,0,1,307.654,70.934Z" transform="translate(-297.703 -64.608)"/><ellipse class="bo" cx="3.388" cy="3.227" rx="3.388" ry="3.227" transform="translate(3.141 3.098)"/><path class="bp" d="M307.619,70.971a3.357,3.357,0,1,1-3.353-3.195A3.277,3.277,0,0,1,307.619,70.971Z" transform="translate(-297.737 -64.645)"/><path class="bq" d="M307.6,70.989a3.323,3.323,0,1,1-3.319-3.162A3.244,3.244,0,0,1,307.6,70.989Z" transform="translate(-297.753 -64.663)"/><ellipse class="br" cx="3.285" cy="3.129" rx="3.285" ry="3.129" transform="translate(3.244 3.196)"/><path class="bs" d="M307.566,71.025a3.254,3.254,0,1,1-3.25-3.1A3.176,3.176,0,0,1,307.566,71.025Z" transform="translate(-297.787 -64.699)"/><path class="bt" d="M307.548,71.044a3.22,3.22,0,1,1-3.216-3.065A3.143,3.143,0,0,1,307.548,71.044Z" transform="translate(-297.803 -64.718)"/><ellipse class="bu" cx="3.182" cy="3.032" rx="3.182" ry="3.032" transform="translate(3.346 3.294)"/><path class="bv" d="M307.513,71.08a3.152,3.152,0,1,1-3.148-3A3.076,3.076,0,0,1,307.513,71.08Z" transform="translate(-297.837 -64.754)"/><path class="bw" d="M307.5,71.1a3.118,3.118,0,1,1-3.114-2.967A3.043,3.043,0,0,1,307.5,71.1Z" transform="translate(-297.853 -64.773)"/><ellipse class="bx" cx="3.08" cy="2.934" rx="3.08" ry="2.934" transform="translate(3.449 3.392)"/><path class="by" d="M307.461,71.135a3.049,3.049,0,1,1-3.045-2.9A2.976,2.976,0,0,1,307.461,71.135Z" transform="translate(-297.887 -64.809)"/><path class="bz" d="M307.443,71.153a3.015,3.015,0,1,1-3.011-2.869A2.942,2.942,0,0,1,307.443,71.153Z" transform="translate(-297.903 -64.827)"/><ellipse class="ca" cx="2.977" cy="2.836" rx="2.977" ry="2.836" transform="translate(3.552 3.49)"/><path class="cb" d="M307.408,71.19a2.946,2.946,0,1,1-2.942-2.8A2.875,2.875,0,0,1,307.408,71.19Z" transform="translate(-297.936 -64.864)"/><path class="cc" d="M307.391,71.208a2.912,2.912,0,1,1-2.909-2.771A2.842,2.842,0,0,1,307.391,71.208Z" transform="translate(-297.953 -64.882)"/><ellipse class="cd" cx="2.874" cy="2.738" rx="2.874" ry="2.738" transform="translate(3.654 3.587)"/><path class="ce" d="M307.355,71.245a2.843,2.843,0,1,1-2.84-2.706A2.776,2.776,0,0,1,307.355,71.245Z" transform="translate(-297.987 -64.919)"/><path class="cf" d="M307.338,71.263a2.809,2.809,0,1,1-2.806-2.673A2.742,2.742,0,0,1,307.338,71.263Z" transform="translate(-298.003 -64.937)"/><ellipse class="cg" cx="2.772" cy="2.641" rx="2.772" ry="2.641" transform="translate(3.757 3.685)"/><path class="ch" d="M307.3,71.3a2.74,2.74,0,1,1-2.737-2.608A2.675,2.675,0,0,1,307.3,71.3Z" transform="translate(-298.037 -64.973)"/></g><g class="ci" transform="translate(300.249 47.17)"><path class="e" d="M5.216.028a5.659,5.659,0,0,1,5.44,5.5,5.052,5.052,0,0,1-5.188,5.251,5.659,5.659,0,0,1-5.44-5.5A5.052,5.052,0,0,1,5.216.028Z" transform="translate(0 8.343) rotate(-52.01)"/><ellipse class="g" cx="5.441" cy="5.183" rx="5.441" ry="5.183" transform="translate(2.107 2.276)"/><path class="h" d="M5.179.028a5.6,5.6,0,0,1,5.406,5.406,4.98,4.98,0,0,1-5.151,5.151A5.6,5.6,0,0,1,.028,5.179,4.98,4.98,0,0,1,5.179.028Z" transform="translate(0.042 7.46) rotate(-45)"/><path class="i" d="M5.146.028A5.563,5.563,0,0,1,10.518,5.4,4.949,4.949,0,0,1,5.4,10.518,5.563,5.563,0,0,1,.028,5.146,4.949,4.949,0,0,1,5.146.028Z" transform="translate(0.09 7.46) rotate(-45)"/><ellipse class="j" cx="5.338" cy="5.085" rx="5.338" ry="5.085" transform="translate(2.209 2.374)"/><path class="k" d="M5.09.028A5.491,5.491,0,0,1,10.4,5.322a4.886,4.886,0,0,1-5.063,5.044A5.491,5.491,0,0,1,.028,5.071,4.886,4.886,0,0,1,5.09.028Z" transform="translate(0.19 7.192) rotate(-42.811)"/><path class="l" d="M5.048.028a5.456,5.456,0,0,1,5.27,5.27,4.854,4.854,0,0,1-5.02,5.02,5.456,5.456,0,0,1-5.27-5.27A4.854,4.854,0,0,1,5.048.028Z" transform="translate(0.232 7.46) rotate(-45)"/><ellipse class="m" cx="5.235" cy="4.988" rx="5.235" ry="4.988" transform="translate(2.312 2.472)"/><path class="n" d="M4.982.027a5.386,5.386,0,0,1,5.2,5.2,4.791,4.791,0,0,1-4.955,4.955,5.386,5.386,0,0,1-5.2-5.2A4.791,4.791,0,0,1,4.982.027Z" transform="translate(0.327 7.46) rotate(-45)"/><path class="o" d="M4.949.027a5.35,5.35,0,0,1,5.167,5.167,4.759,4.759,0,0,1-4.922,4.922A5.35,5.35,0,0,1,.027,4.949,4.759,4.759,0,0,1,4.949.027Z" transform="translate(0.375 7.46) rotate(-45)"/><ellipse class="p" cx="5.133" cy="4.89" rx="5.133" ry="4.89" transform="translate(2.415 2.57)"/><path class="q" d="M4.884.027a5.279,5.279,0,0,1,5.1,5.1A4.7,4.7,0,0,1,5.125,9.982a5.279,5.279,0,0,1-5.1-5.1A4.7,4.7,0,0,1,4.884.027Z" transform="translate(0.47 7.46) rotate(-45)"/><path class="r" d="M4.851.027A5.244,5.244,0,0,1,9.915,5.091,4.665,4.665,0,0,1,5.091,9.915,5.244,5.244,0,0,1,.027,4.851,4.665,4.665,0,0,1,4.851.027Z" transform="translate(0.517 7.46) rotate(-45)"/><ellipse class="s" cx="5.03" cy="4.792" rx="5.03" ry="4.792" transform="translate(2.517 2.668)"/><path class="t" d="M4.786.026a5.173,5.173,0,0,1,5,5A4.6,4.6,0,0,1,5.022,9.781a5.173,5.173,0,0,1-5-5A4.6,4.6,0,0,1,4.786.026Z" transform="translate(0.612 7.46) rotate(-45)"/><path class="u" d="M4.727.025a5.129,5.129,0,0,1,4.93,4.987,4.578,4.578,0,0,1-4.7,4.759A5.129,5.129,0,0,1,.025,4.784,4.578,4.578,0,0,1,4.727.025Z" transform="translate(0.707 8.26) rotate(-52.005)"/><ellipse class="v" cx="4.927" cy="4.694" rx="4.927" ry="4.694" transform="translate(2.62 2.765)"/><path class="w" d="M4.687.026A5.067,5.067,0,0,1,9.58,4.919,4.507,4.507,0,0,1,4.919,9.58,5.067,5.067,0,0,1,.026,4.687,4.507,4.507,0,0,1,4.687.026Z" transform="translate(0.755 7.46) rotate(-45)"/><path class="x" d="M329.277,70.167a4.865,4.865,0,1,1-4.859-4.629A4.748,4.748,0,0,1,329.277,70.167Z" transform="translate(-316.87 -62.707)"/><ellipse class="y" cx="4.825" cy="4.596" rx="4.825" ry="4.596" transform="translate(2.723 2.863)"/><path class="z" d="M329.241,70.2a4.8,4.8,0,1,1-4.79-4.564A4.681,4.681,0,0,1,329.241,70.2Z" transform="translate(-316.903 -62.743)"/><path class="aa" d="M329.224,70.222a4.762,4.762,0,1,1-4.756-4.532A4.648,4.648,0,0,1,329.224,70.222Z" transform="translate(-316.92 -62.762)"/><ellipse class="ab" cx="4.722" cy="4.499" rx="4.722" ry="4.499" transform="translate(2.825 2.961)"/><path class="ac" d="M329.188,70.258a4.693,4.693,0,1,1-4.687-4.466A4.581,4.581,0,0,1,329.188,70.258Z" transform="translate(-316.953 -62.798)"/><path class="ad" d="M329.171,70.277a4.659,4.659,0,1,1-4.653-4.434A4.547,4.547,0,0,1,329.171,70.277Z" transform="translate(-316.97 -62.817)"/><ellipse class="ae" cx="4.619" cy="4.401" rx="4.619" ry="4.401" transform="translate(2.928 3.059)"/><path class="af" d="M329.136,70.313a4.591,4.591,0,1,1-4.585-4.369A4.481,4.481,0,0,1,329.136,70.313Z" transform="translate(-317.003 -62.853)"/><path class="ag" d="M329.118,70.331A4.556,4.556,0,1,1,324.567,66,4.447,4.447,0,0,1,329.118,70.331Z" transform="translate(-317.02 -62.871)"/><ellipse class="ah" cx="4.517" cy="4.303" rx="4.517" ry="4.303" transform="translate(3.031 3.157)"/><path class="ai" d="M329.083,70.368A4.488,4.488,0,1,1,324.6,66.1,4.38,4.38,0,0,1,329.083,70.368Z" transform="translate(-317.053 -62.908)"/><path class="aj" d="M329.065,70.386a4.453,4.453,0,1,1-4.448-4.238A4.346,4.346,0,0,1,329.065,70.386Z" transform="translate(-317.07 -62.926)"/><ellipse class="ak" cx="4.414" cy="4.205" rx="4.414" ry="4.205" transform="translate(3.133 3.254)"/><path class="al" d="M329.031,70.423a4.385,4.385,0,1,1-4.38-4.173A4.28,4.28,0,0,1,329.031,70.423Z" transform="translate(-317.103 -62.963)"/><path class="am" d="M329.013,70.441a4.351,4.351,0,1,1-4.346-4.14A4.247,4.247,0,0,1,329.013,70.441Z" transform="translate(-317.12 -62.981)"/><ellipse class="an" cx="4.311" cy="4.107" rx="4.311" ry="4.107" transform="translate(3.236 3.352)"/><path class="ao" d="M328.978,70.477A4.282,4.282,0,1,1,324.7,66.4,4.18,4.18,0,0,1,328.978,70.477Z" transform="translate(-317.153 -63.017)"/><path class="ap" d="M328.96,70.5a4.248,4.248,0,1,1-4.243-4.043A4.146,4.146,0,0,1,328.96,70.5Z" transform="translate(-317.17 -63.036)"/><ellipse class="aq" cx="4.209" cy="4.01" rx="4.209" ry="4.01" transform="translate(3.339 3.45)"/><path class="ar" d="M328.925,70.532a4.179,4.179,0,1,1-4.174-3.977A4.079,4.079,0,0,1,328.925,70.532Z" transform="translate(-317.203 -63.072)"/><path class="as" d="M328.907,70.551a4.145,4.145,0,1,1-4.14-3.945A4.045,4.045,0,0,1,328.907,70.551Z" transform="translate(-317.22 -63.091)"/><ellipse class="at" cx="4.106" cy="3.912" rx="4.106" ry="3.912" transform="translate(3.441 3.548)"/><path class="au" d="M328.872,70.587a4.077,4.077,0,1,1-4.072-3.88A3.979,3.979,0,0,1,328.872,70.587Z" transform="translate(-317.253 -63.127)"/><path class="av" d="M328.855,70.605a4.043,4.043,0,1,1-4.038-3.847A3.946,3.946,0,0,1,328.855,70.605Z" transform="translate(-317.27 -63.145)"/><ellipse class="aw" cx="4.004" cy="3.814" rx="4.004" ry="3.814" transform="translate(3.544 3.646)"/><path class="ax" d="M328.82,70.642a3.974,3.974,0,1,1-3.969-3.782A3.879,3.879,0,0,1,328.82,70.642Z" transform="translate(-317.303 -63.182)"/><path class="ay" d="M328.8,70.66a3.94,3.94,0,1,1-3.935-3.749A3.845,3.845,0,0,1,328.8,70.66Z" transform="translate(-317.32 -63.2)"/><ellipse class="az" cx="3.901" cy="3.716" rx="3.901" ry="3.716" transform="translate(3.647 3.743)"/><path class="ba" d="M328.767,70.7a3.871,3.871,0,1,1-3.867-3.684A3.778,3.778,0,0,1,328.767,70.7Z" transform="translate(-317.353 -63.237)"/><path class="bb" d="M328.75,70.715a3.837,3.837,0,1,1-3.832-3.651A3.745,3.745,0,0,1,328.75,70.715Z" transform="translate(-317.37 -63.255)"/><ellipse class="bc" cx="3.798" cy="3.618" rx="3.798" ry="3.618" transform="translate(3.749 3.841)"/><path class="bd" d="M328.714,70.751a3.768,3.768,0,1,1-3.764-3.586A3.678,3.678,0,0,1,328.714,70.751Z" transform="translate(-317.403 -63.291)"/><path class="be" d="M328.7,70.77a3.734,3.734,0,1,1-3.729-3.554A3.644,3.644,0,0,1,328.7,70.77Z" transform="translate(-317.42 -63.31)"/><ellipse class="bf" cx="3.696" cy="3.521" rx="3.696" ry="3.521" transform="translate(3.852 3.939)"/><path class="bg" d="M328.661,70.806A3.665,3.665,0,1,1,325,67.318,3.577,3.577,0,0,1,328.661,70.806Z" transform="translate(-317.453 -63.346)"/><path class="bh" d="M328.644,70.825a3.631,3.631,0,1,1-3.627-3.456A3.544,3.544,0,0,1,328.644,70.825Z" transform="translate(-317.47 -63.365)"/><ellipse class="bi" cx="3.593" cy="3.423" rx="3.593" ry="3.423" transform="translate(3.954 4.037)"/><path class="bj" d="M328.609,70.861a3.563,3.563,0,1,1-3.559-3.391A3.478,3.478,0,0,1,328.609,70.861Z" transform="translate(-317.503 -63.401)"/><path class="bk" d="M328.591,70.879a3.529,3.529,0,1,1-3.524-3.358A3.444,3.444,0,0,1,328.591,70.879Z" transform="translate(-317.519 -63.419)"/><ellipse class="bl" cx="3.49" cy="3.325" rx="3.49" ry="3.325" transform="translate(4.057 4.135)"/><path class="bm" d="M328.556,70.916a3.46,3.46,0,1,1-3.456-3.293A3.377,3.377,0,0,1,328.556,70.916Z" transform="translate(-317.553 -63.456)"/><path class="bn" d="M328.538,70.934a3.426,3.426,0,1,1-3.421-3.26A3.343,3.343,0,0,1,328.538,70.934Z" transform="translate(-317.569 -63.474)"/><ellipse class="bo" cx="3.388" cy="3.227" rx="3.388" ry="3.227" transform="translate(4.16 4.232)"/><path class="bp" d="M328.5,70.971a3.357,3.357,0,1,1-3.353-3.195A3.277,3.277,0,0,1,328.5,70.971Z" transform="translate(-317.603 -63.511)"/><path class="bq" d="M328.486,70.989a3.323,3.323,0,1,1-3.319-3.162A3.244,3.244,0,0,1,328.486,70.989Z" transform="translate(-317.619 -63.529)"/><ellipse class="br" cx="3.285" cy="3.129" rx="3.285" ry="3.129" transform="translate(4.262 4.33)"/><path class="bs" d="M328.451,71.025a3.255,3.255,0,1,1-3.25-3.1A3.177,3.177,0,0,1,328.451,71.025Z" transform="translate(-317.653 -63.565)"/><path class="bt" d="M328.433,71.044a3.22,3.22,0,1,1-3.216-3.065A3.143,3.143,0,0,1,328.433,71.044Z" transform="translate(-317.669 -63.584)"/><ellipse class="bu" cx="3.182" cy="3.032" rx="3.182" ry="3.032" transform="translate(4.365 4.428)"/><path class="bv" d="M328.4,71.08a3.152,3.152,0,1,1-3.148-3A3.076,3.076,0,0,1,328.4,71.08Z" transform="translate(-317.703 -63.62)"/><path class="bw" d="M328.38,71.1a3.117,3.117,0,1,1-3.113-2.967A3.042,3.042,0,0,1,328.38,71.1Z" transform="translate(-317.719 -63.639)"/><ellipse class="bx" cx="3.08" cy="2.934" rx="3.08" ry="2.934" transform="translate(4.468 4.526)"/><path class="by" d="M328.345,71.135a3.049,3.049,0,1,1-3.045-2.9A2.976,2.976,0,0,1,328.345,71.135Z" transform="translate(-317.752 -63.675)"/><path class="bz" d="M328.328,71.153a3.015,3.015,0,1,1-3.011-2.869A2.942,2.942,0,0,1,328.328,71.153Z" transform="translate(-317.769 -63.693)"/><ellipse class="ca" cx="2.977" cy="2.836" rx="2.977" ry="2.836" transform="translate(4.57 4.624)"/><path class="cb" d="M328.293,71.19a2.946,2.946,0,1,1-2.942-2.8A2.875,2.875,0,0,1,328.293,71.19Z" transform="translate(-317.802 -63.73)"/><path class="cc" d="M328.275,71.208a2.912,2.912,0,1,1-2.908-2.771A2.842,2.842,0,0,1,328.275,71.208Z" transform="translate(-317.819 -63.748)"/><ellipse class="cd" cx="2.874" cy="2.738" rx="2.874" ry="2.738" transform="translate(4.673 4.721)"/><path class="ce" d="M328.24,71.245a2.843,2.843,0,1,1-2.84-2.706A2.776,2.776,0,0,1,328.24,71.245Z" transform="translate(-317.853 -63.785)"/><path class="cf" d="M328.223,71.263a2.809,2.809,0,1,1-2.806-2.673A2.742,2.742,0,0,1,328.223,71.263Z" transform="translate(-317.869 -63.803)"/><ellipse class="cg" cx="2.772" cy="2.641" rx="2.772" ry="2.641" transform="translate(4.776 4.819)"/><path class="ch" d="M328.187,71.3a2.741,2.741,0,1,1-2.737-2.608A2.675,2.675,0,0,1,328.187,71.3Z" transform="translate(-317.902 -63.839)"/></g><path class="e" d="M341.1,70.079c-.672,2.015-2.381,3.267-3.817,2.8s-2.055-2.487-1.384-4.5,2.381-3.267,3.817-2.8S341.768,68.063,341.1,70.079Z" transform="translate(-21.88 -15.515)"/><path class="d" d="M329.593,73.717a3.942,3.942,0,0,1-3.614-.891c-1.834,5.476-6.775,10.722-12.645,11.6a12.91,12.91,0,0,1-8.2-1.638,11.473,11.473,0,0,0,7.766,2.9c5.733.048,11.229-4.742,13.737-10.543a2.011,2.011,0,0,0,.665.376c1.367.449,2.98-.666,3.711-2.513A4.111,4.111,0,0,1,329.593,73.717Z" transform="translate(-11.899 -18.154)"/><path class="cj" d="M302.02,59.169l-.228,4.445,5.462,2.961s2.122-3.386,1.1-6.8l-1.991-.731-2.7-.358Z" transform="translate(-10.806 -13.076)"/><path class="d" d="M338,69.876s.472-3.278,2.969-2.453a2.783,2.783,0,0,0-1.485,2.637Z" transform="translate(-22.658 -16.166)"/><path class="ck" d="M308.23,78.176s4.589,3.231,10.372-.313h0a5.553,5.553,0,0,1-5.37,4.507A4.63,4.63,0,0,1,308.23,78.176Z" transform="translate(-12.913 -19.963)"/><path class="cl" d="M317.609,79.1c-.015-.062-.02-.123-.032-.185a9.625,9.625,0,0,1-8.341.072,4.168,4.168,0,0,1-.1.646,5.6,5.6,0,0,1-.18.581,4.454,4.454,0,0,0,4.516,2.537,5.262,5.262,0,0,0,4.535-2.489A6.708,6.708,0,0,1,317.609,79.1Z" transform="translate(-13.152 -20.34)"/><path class="cm" d="M309.568,80.923a11.418,11.418,0,0,1,4.019-.278,9.969,9.969,0,0,1,3.583.643,5.56,5.56,0,0,0,.84-1.031,6.708,6.708,0,0,1-.4-1.162c-.015-.062-.02-.123-.032-.185a9.625,9.625,0,0,1-8.341.072,4.168,4.168,0,0,1-.1.646,5.6,5.6,0,0,1-.18.581,4.826,4.826,0,0,0,.47.779A1.2,1.2,0,0,1,309.568,80.923Z" transform="translate(-13.152 -20.34)"/><path class="cl" d="M307.211,68.552s-1.679-7.362-5.462-2.961c0,0-.616.856,1.422,2.149A6.769,6.769,0,0,0,307.211,68.552Z" transform="translate(-10.764 -15.052)"/><path class="cj" d="M321.066,59.759s-.49,4.029.13,5.683l6.749-2.039a8.4,8.4,0,0,0-.218-4.234l-2.31-.483Z" transform="translate(-17.054 -13.076)"/><path class="b" d="M306.3,65.612c-.648-.195-1.438.443-1.763,1.426a2.338,2.338,0,0,0-.044,1.436,5.786,5.786,0,0,0,1.528.494,2.407,2.407,0,0,0,.864-1.225C307.207,66.761,306.944,65.807,306.3,65.612Z" transform="translate(-11.659 -15.551)"/><path class="cn" d="M306.514,65.612a1.406,1.406,0,0,0-1.453.781,1.676,1.676,0,0,1,.161-.048,1.6,1.6,0,0,1,1.4.385,1.507,1.507,0,0,1,.252,1.509,2.752,2.752,0,0,0,.225-.5C307.424,66.761,307.162,65.807,306.514,65.612Z" transform="translate(-11.876 -15.551)"/><path class="co" d="M303.285,68.228s1.536-1.19,1.723-.4-1.494.8-1.494.8Z" transform="translate(-11.295 -16.262)"/><path class="b" d="M301.335,65.42a.964.964,0,0,1-.466-.17,1.009,1.009,0,0,1-.254-.306,1.624,1.624,0,0,1-.211-.972.242.242,0,0,0,.143.2.689.689,0,0,0,.255.057,4.973,4.973,0,0,0,2.041-.4,2.112,2.112,0,0,1,1.847.248c1.616.981,2.108,4.305,2.108,4.305s-1.335-3.413-2.81-3.614a2.95,2.95,0,0,0-1.774.512A1.674,1.674,0,0,1,301.335,65.42Z" transform="translate(-10.349 -14.882)"/><path class="cl" d="M327.91,65.666c.027-.112-3.014-2.419-6.561,2.033,0,0-.014.458,1.515.85A4.334,4.334,0,0,0,327.91,65.666Z" transform="translate(-17.207 -15.333)"/><path class="b" d="M326.336,65.443c-.656-.128-1.454.608-1.781,1.643a2.122,2.122,0,0,0,.087,1.735,4.457,4.457,0,0,0,1.81-.345,3.092,3.092,0,0,0,.478-.928C327.258,66.512,326.992,65.57,326.336,65.443Z" transform="translate(-18.211 -15.498)"/><path class="cn" d="M326.556,65.443a1.6,1.6,0,0,0-1.468.952c.055-.021.1-.051.162-.066a1.5,1.5,0,0,1,1.416.239,1.466,1.466,0,0,1,.258,1.507,3.206,3.206,0,0,0,.227-.528C327.478,66.512,327.212,65.57,326.556,65.443Z" transform="translate(-18.431 -15.498)"/><path class="co" d="M323.348,68.45s1.552-1.378,1.742-.592-1.742,1.266-1.742,1.266Z" transform="translate(-17.862 -16.283)"/><path class="b" d="M321.349,67.281a1.77,1.77,0,0,0,.149-.41,5.179,5.179,0,0,1,.548-.977c.864-1.213,2.677-2.394,4.151-2.015a3.748,3.748,0,0,1,1.061.5,2.761,2.761,0,0,0,.852.421,1.018,1.018,0,0,0,.947-.249,1.912,1.912,0,0,1-1.968,1.152,7.442,7.442,0,0,1-.924-.3C324.462,64.89,322.544,65.981,321.349,67.281Z" transform="translate(-17.207 -14.915)"/><path class="b" d="M303.776,58.587c2.011-.209,3.388,1.946,4.578,1.64.409-.1.112-.82.112-.82s-2.776-3.483-6.336-.606C302.131,58.8,303.285,58.638,303.776,58.587Z" transform="translate(-10.917 -12.709)"/><path class="b" d="M327.071,58.764c-3.735-.9-4.13,1.352-5.226,1.312-.423-.015-.69-.686-.69-.686s3.1-3.468,6.661-.59A6.819,6.819,0,0,1,327.071,58.764Z" transform="translate(-17.144 -12.707)"/><path class="e" d="M313.379,65.369s-.515,2.935-2.225,4.353.607,3.731,2.889,2.945S316,70.317,316,70.317Z" transform="translate(-13.677 -15.476)"/><path class="d" d="M310.861,74.378a2.773,2.773,0,0,0,3.279,1.109c1.966-.677,2-1.93,1.972-2.264A4.783,4.783,0,0,1,310.861,74.378Z" transform="translate(-13.775 -18.297)"/><path class="cp" d="M312.736,70.272a3.777,3.777,0,0,0,1.047-1.724,3.726,3.726,0,0,0,.15-1.043c0-.169-.175-1.431-.673-1.3a7.671,7.671,0,0,1-2.1,3.813,1.458,1.458,0,0,0-.584,1.093A2.778,2.778,0,0,0,312.736,70.272Z" transform="translate(-13.681 -15.774)"/><path class="b" d="M313.075,35.91c-5.028,0-16.952,2.66-15.974,18.949,0,0,.566-6.951,5.908-10.6,3.448-2.355,5.031,1.1,7.7,1.019,3.877-.117,4.909-3.26,8.734-.954,2.1,1.265,4.049,8.122,4.335,10.965.193,1.92,2.3-.5,2.3-.5C327.307,40.14,318.737,35.91,313.075,35.91Z" transform="translate(-9.253 -4.897)"/><path class="cq" d="M297.09,55.9s-.305-15.044,14.473-14.509,14.506,14.44,14.506,14.44,2.94-17.134-14.058-17.016S297.09,55.9,297.09,55.9Z" transform="translate(-9.241 -5.94)"/><path class="e" d="M320.473,96.905a36.925,36.925,0,0,0-6.318-.5,31.91,31.91,0,0,0-9.224,1.208c.572.834,1.115,1.689,1.732,2.443a68.272,68.272,0,0,0,5.678,5.952A106.1,106.1,0,0,1,320.473,96.905Z" transform="translate(-11.834 -26.623)"/><path class="cr" d="M314.546,96.978a8.057,8.057,0,0,1-6.073,4.092c-3.258.429-6.054-1.041-7.133-3.656-7.54,1.754-10.691,6.048-12.006,9.519,2.074,1.558,4.3,3.353,6.656,5.005a36.039,36.039,0,0,0,25.193,1.032c2.252-1.382,4.383-2.854,6.325-4,.085-.066.172-.129.257-.2C327.608,105.252,325.785,98.6,314.546,96.978Z" transform="translate(-6.729 -26.828)"/><path class="cl" d="M288.25,108.46a34.968,34.968,0,0,0,11.1,5.6c-.121-1.252-.262-3.011-.339-3.627-.45-3.6-.68-7.554-1.414-11.168a.162.162,0,0,0-.221-.108A15.347,15.347,0,0,0,288.25,108.46Z" transform="translate(-6.374 -27.604)"/><path class="cl" d="M341.953,110.062c-.343-3.163-2.5-9.553-9.129-11.547a.137.137,0,0,0-.171.084A68.186,68.186,0,0,0,330,114.68,35.221,35.221,0,0,0,341.953,110.062Z" transform="translate(-20.039 -27.378)"/><path class="bx" d="M308.23,78.079s1.453.756,5.016.716a14.422,14.422,0,0,0,5.355-.931,7.565,7.565,0,0,1-5.436,2.253C309.4,80.008,308.23,78.079,308.23,78.079Z" transform="translate(-12.913 -19.964)"/><path class="cs" d="M308.23,78.079a4.631,4.631,0,0,0,4.75,3.6,6.29,6.29,0,0,0,5.622-3.814s-.738,5.186-5.643,5.186S308.23,78.079,308.23,78.079Z" transform="translate(-12.913 -19.964)"/><path class="ct" d="M314.839,86.825h1.122a.5.5,0,0,1,.51.629c-.088.251-.362.488-1.066.524-.827.042-1.059-.285-1.092-.6A.513.513,0,0,1,314.839,86.825Z" transform="translate(-14.903 -23.182)"/></g></svg>