<svg xmlns="http://www.w3.org/2000/svg" xmlns:xlink="http://www.w3.org/1999/xlink" width="31" height="36.458" viewBox="0 0 31 36.458"><defs><style>.a{fill:url(#a);}</style><linearGradient id="a" x1="0.5" x2="0.5" y2="1" gradientUnits="objectBoundingBox"><stop offset="0" stop-color="#3b7ded"/><stop offset="1" stop-color="#183377"/></linearGradient></defs><g transform="translate(2351.893 -3664.363)"><path class="a" d="M-2332.786,3690.2l2.279,3.765c1.09,1.8,2.184,3.6,3.262,5.409a.565.565,0,0,0,.583.324c.5-.024.514-.012,1.016,0,.4.006.624.221.62.568s-.229.556-.632.557c-1.679,0-2.376,0-4.055,0-.4,0-.613-.216-.6-.576s.211-.538.6-.548c.294-.008.1,0,.391,0h.971l-5.422-8.9a10.655,10.655,0,0,1-4.324,1.261v7.643c.66,0,.717,0,1.362,0,.374,0,.573.181.6.506a.516.516,0,0,1-.525.613c-1.74.009-2.3.009-4.043,0a.5.5,0,0,1-.515-.547.505.505,0,0,1,.533-.567c.659-.013.73,0,1.416,0v-7.64a10.509,10.509,0,0,1-4.083-1.153l-5.312,8.791c.648,0,.63,0,1.2,0,.443,0,.66.189.663.556s-.214.568-.651.57c-1.654,0-2.131,0-3.785,0-.443,0-.65-.189-.649-.567s.2-.556.655-.56c.527,0,.465.012.991-.01a.522.522,0,0,0,.374-.2q2.748-4.518,5.474-9.049a.655.655,0,0,0,.033-.108,10.14,10.14,0,0,1-4.259-7.633c-.45,0-.288,0-.715,0-.467,0-.689-.177-.69-.526,0-.405.231-.614.694-.618.44,0,.291,0,.769,0a9.919,9.919,0,0,1,2.908-6.458,9.893,9.893,0,0,1,6.46-2.9c0-.5-.016-.5,0-.985a.539.539,0,0,1,.822-.491.854.854,0,0,1,.3.567,5.408,5.408,0,0,1,.023.83c0,.021.019.042.041.086a10.157,10.157,0,0,1,6.029,2.539c.363-.383.709-.76,1.068-1.123q1.02-1.033,2.054-2.053a.485.485,0,0,0,.166-.476,5.674,5.674,0,0,1,1.612-5.012c.47-.483.957-.95,1.427-1.432a.679.679,0,0,1,.753-.236c.319.105.357.354.38.639.066.793.16,1.584.222,2.377.02.258.118.356.376.376.769.062,1.536.154,2.3.22a.706.706,0,0,1,.688.452c.111.3-.072.483-.26.669-.47.466-.935.937-1.405,1.4a5.741,5.741,0,0,1-5.042,1.648.563.563,0,0,0-.416.116c-1.041,1.021-2.069,2.056-3.1,3.088a1.379,1.379,0,0,0-.1.135,9.725,9.725,0,0,1,2.492,6.024c.471,0,.331,0,.78,0s.663.181.674.547c.012.389-.2.586-.665.595-.38.007-.172-.012-.55.012a.344.344,0,0,0-.252.209,9.912,9.912,0,0,1-3.971,7.208A.431.431,0,0,0-2332.786,3690.2Zm-.832-8.628a4.974,4.974,0,0,0-1.049-2.484l-1.864,1.861a2.513,2.513,0,0,1-.752,3.247,2.475,2.475,0,0,1-3.058-.2,2.472,2.472,0,0,1-.471-3.056,2.372,2.372,0,0,1,1.2-1.038,2.477,2.477,0,0,1,2.133.124l1.866-1.866a3.871,3.871,0,0,0-2.507-.981c0,.153,0,.311,0,.469,0,.472-.183.7-.553.707s-.571-.23-.575-.723c0-.164,0-.328,0-.49a4.938,4.938,0,0,0-4.418,4.4c.207,0,.414,0,.621,0a.609.609,0,0,1,.65.6c-.006.34-.228.529-.648.542-.191.006-.383,0-.577,0a4.906,4.906,0,0,0,4.421,4.4c0-.169-.006-.339,0-.507.017-.437.212-.642.591-.633.354.008.542.222.551.634,0,.2,0,.4,0,.6,2.35-.279,4.664-2.643,4.375-4.419-.427-.12-1.153.219-1.162-.577C-2334.854,3681.362-2334.11,3681.7-2333.617,3681.572Zm-5.6-8.214a8.723,8.723,0,0,0-8.153,8.17h2.556a6.317,6.317,0,0,1,5.6-5.6Zm6.785,9.358a6.325,6.325,0,0,1-5.6,5.594v2.55a8.669,8.669,0,0,0,8.153-8.144Zm-6.813,8.146c0-.756-.009-1.512,0-2.267,0-.247-.074-.332-.324-.365a6.2,6.2,0,0,1-5.1-4.573c-.076-.314-.058-.755-.259-.907s-.633-.053-.963-.055c-.5,0-.993,0-1.49,0A8.656,8.656,0,0,0-2339.25,3690.862Zm9.4-9.326a8.416,8.416,0,0,0-2.182-5.127l-1.822,1.819a6.209,6.209,0,0,1,1.4,3.308Zm-8.122-5.639a6.249,6.249,0,0,1,3.356,1.442c.312-.32.6-.622.892-.914s.614-.589.923-.883a8.668,8.668,0,0,0-5.17-2.214Zm12.412-9.658a4.574,4.574,0,0,0-2.01,4.038c.261-.263.5-.507.738-.743.313-.306.612-.327.867-.07s.234.553-.074.867c-.236.24-.483.471-.756.735a4.588,4.588,0,0,0,4.046-2.01c-.66-.073-1.318-.142-1.974-.218-.434-.051-.574-.2-.62-.622C-2325.415,3667.558-2325.488,3666.9-2325.561,3666.239Zm-11.879,15.475a.657.657,0,0,0-.09.056c-.218.215-.434.431-.652.646-.329.323-.638.358-.9.107s-.222-.579.089-.9c.232-.237.468-.47.723-.726a1.241,1.241,0,0,0-1.5.557,1.33,1.33,0,0,0,.255,1.642,1.343,1.343,0,0,0,1.632.1A1.2,1.2,0,0,0-2337.44,3681.714Z"/><path class="a" d="M-2227.652,3833.007a1.2,1.2,0,0,1-.438,1.491,1.343,1.343,0,0,1-1.632-.1,1.33,1.33,0,0,1-.255-1.642,1.241,1.241,0,0,1,1.5-.556c-.255.256-.491.489-.723.726-.312.317-.343.648-.089.9s.567.216.9-.107c.218-.214.434-.431.652-.645A.636.636,0,0,1-2227.652,3833.007Z" transform="translate(-109.788 -151.294)"/></g></svg>