<svg xmlns="http://www.w3.org/2000/svg" width="200.701" height="200.701" viewBox="0 0 200.701 200.701"><defs><style>.a{fill:#00d17d;}.b{fill:#888;}.c{fill:#fff;}.d{fill:#848484;}.e{fill:#eee;}.f{fill:#3b7ded;}.g{fill:#183377;}.h{fill:none;stroke:#6c63ff;stroke-width:2px;}</style></defs><g transform="translate(2576 -585)"><g transform="translate(-2576 585)"><circle class="a" cx="70.959" cy="70.959" r="70.959" transform="translate(0 100.351) rotate(-45)"/><path class="b" d="M2646.075,224.521l-20.186,5.061c-1.844.462-3.339,2.727-3.339,5.058v58.908c0,2.331,1.495,3.739,3.339,3.145l20.171-4.98,3.354-.948V223.684Z" transform="translate(-2562.495 -159.906)"/><path class="c" d="M2652.084,234.711l-17.956,4.5c-1.641.411-2.97,2.426-2.97,4.5v52.4c0,2.074,1.33,3.327,2.97,2.8l17.943-4.43,2.984-.843V233.967Z" transform="translate(-2568.135 -166.645)"/><path class="b" d="M2781.769,295.992l20.186-5.061c1.844-.463,3.339-2.727,3.339-5.059V226.965c0-2.331-1.495-3.739-3.339-3.145l-20.17,4.98-3.354,1.033v67Z" transform="translate(-2664.647 -159.906)"/><path class="c" d="M2781.533,300.484l17.745-4.515c1.621-.413,2.935-2.433,2.935-4.513V238.9c0-2.08-1.314-3.336-2.935-2.806l-17.732,4.443-2.949.845v59.849Z" transform="translate(-2664.757 -167.959)"/><path class="d" d="M2727.4,296.829l-26.911-6.159V223.684l26.911,6.159Z" transform="translate(-2613.571 -159.906)"/><path class="e" d="M2727.354,300.059l-26.864-6.327V234.081l26.864,6.044Z" transform="translate(-2613.571 -166.719)"/><path class="f" d="M2729.58,358.537a4.532,4.532,0,1,0-8.9,1.2h0s2.03,7.5,4.372,7.549,4.376-7.564,4.376-7.564h0A4.526,4.526,0,0,0,2729.58,358.537Zm-4.532,2.217a2.217,2.217,0,1,1,2.218-2.218A2.217,2.217,0,0,1,2725.047,360.754Z" transform="translate(-2649.097 -254.148)"/><path class="g" d="M2813.2,280.8a4.655,4.655,0,1,0-9.144,1.232h0s2.085,7.7,4.49,7.753,4.5-7.768,4.5-7.768h0A4.663,4.663,0,0,0,2813.2,280.8Zm-4.655,2.277a2.277,2.277,0,1,1,2.277-2.277A2.278,2.278,0,0,1,2808.549,283.077Z" transform="translate(-2681.335 -194.285)"/></g><path class="h" d="M-2354.948,879.964l10.439-1.282,27.288-14.834,13.736-1.465" transform="translate(-144.862 -181.777)"/></g></svg>