<svg xmlns="http://www.w3.org/2000/svg" width="70.683" height="65.657" viewBox="0 0 70.683 65.657"><defs><style>.a{fill:#00d17d;}.b{fill:#443b39;}.c{fill:#351a11;}.d{opacity:0.24;}.e{fill:#d58a73;}.f{fill:#544947;}.g{opacity:0.1;}.h{fill:#472319;}.i{fill:#e39f83;}.j{opacity:0.58;}.k{fill:#e39e82;}.l{fill:#e39d81;}.m{fill:#e29c81;}.n{fill:#e29b80;}.o{fill:#e29a7f;}.p{fill:#e2997e;}.q{fill:#e1987e;}.r{fill:#e1977d;}.s{fill:#e1967c;}.t{fill:#e1957b;}.u{fill:#e1947b;}.v{fill:#e0937a;}.w{fill:#e09279;}.x{fill:#e09178;}.y{fill:#e09077;}.z{fill:#e08f77;}.aa{fill:#df8e76;}.ab{fill:#df8d75;}.ac{fill:#df8c74;}.ad{fill:#df8b74;}.ae{fill:#de8a73;}.af{fill:#de8972;}.ag{fill:#de8871;}.ah{fill:#de8771;}.ai{fill:#de8670;}.aj{fill:#dd856f;}.ak{fill:#dd846e;}.al{fill:#dd836d;}.am{fill:#dd826d;}.an{fill:#dc816c;}.ao{fill:#dc806b;}.ap{fill:#dc7f6a;}.aq{fill:#dc7e6a;}.ar{fill:#dc7d69;}.as{fill:#db7c68;}.at{fill:#db7b67;}.au{fill:#db7a67;}.av{fill:#db7966;}.aw{fill:#db7865;}.ax{fill:#da7864;}.ay{fill:#da7763;}.az{fill:#da7663;}.ba{fill:#da7562;}.bb{fill:#d97461;}.bc{fill:#d97360;}.bd{fill:#d97260;}.be{fill:#d9715f;}.bf{fill:#d9705e;}.bg{fill:#d86f5d;}.bh{fill:#d86e5d;}.bi{fill:#d86d5c;}.bj{fill:#d86c5b;}.bk{fill:#d76b5a;}.bl{fill:#d76a59;}.bm{fill:#d76959;}.bn{fill:#d76858;}.bo{fill:#d76757;}.bp{fill:#d66656;}.bq{fill:#d66556;}.br{fill:#d66455;}.bs{fill:#d66354;}.bt{fill:#d56253;}.bu{fill:#d56153;}.bv{fill:#d56052;}.bw{fill:#d55f51;}.bx{fill:#d55e50;}.by{fill:#d45d4f;}.bz{fill:#d45c4f;}.ca{fill:#d45b4e;}.cb{fill:#d45a4d;}.cc{fill:#d4594c;}.cd{fill:#d3584c;}.ce{fill:#d3574b;}.cf{fill:#d3564a;}.cg{fill:#d35549;}.ch{fill:#d25449;}.ci{fill:#d25348;}.cj{fill:#d25247;}.ck{opacity:0.65;}.cl{fill:#6c332e;}.cm,.cq,.cr,.cs,.cu,.cw{fill:#fff;}.cn{fill:#c1b9a3;opacity:0.35;}.co{fill:#381911;}.cp{opacity:0.36;}.cq{opacity:0.71;}.cr{opacity:0.08;}.cs{opacity:0.41;}.ct{fill:#282828;}.cu{opacity:0.16;}.cv{opacity:0.45;}.cw{opacity:0.21;}.cx{fill:#f2f2f2;}.cy{fill:#f9f9f9;}.cz{fill:#e8716b;}.da{fill:#f48176;}</style></defs><g transform="translate(-153.334 -355.275)"><ellipse class="a" cx="35.342" cy="32.828" rx="35.342" ry="32.828" transform="translate(153.334 355.275)"/><path class="b" d="M220.076,426.133a2.047,2.047,0,0,0-1.839-.055l5,9.626s.274,3.7.662,7.444a36.077,36.077,0,0,0,5.086-2.744C225.557,434.7,221.3,426.725,220.076,426.133Z" transform="translate(-20.124 -25.361)"/><path class="c" d="M196.008,369.956s-4.4-7.371-13.169-2.266c-10.411,6.063-2.926,43.6.16,48.346l19.525-.669S202.642,373.774,196.008,369.956Z" transform="translate(-7.493 -3.812)"/><path class="d" d="M197.649,371.209s-.628-4.906-9.8,1.343c-10.1,6.88-4.343,37.845,10.847,44.256l5.471-.188S204.283,375.026,197.649,371.209Z" transform="translate(-9.134 -5.064)"/><path class="e" d="M205.927,413.583a2.823,2.823,0,0,0-2.626,3.011l.23,6.032H209.1l-.244-6.289A2.862,2.862,0,0,0,205.927,413.583Z" transform="translate(-15.492 -20.939)"/><path class="f" d="M186.85,427.692c-.195.54-.639,7.689-1.617,16.531a37.038,37.038,0,0,0,6.458,1.8c1.2-5.376,2.3-10.007,2.3-10.007l-4.893-8.658S187.428,426.087,186.85,427.692Z" transform="translate(-9.891 -25.715)"/><path class="g" d="M190.83,447.862c.854.22,1.719.415,2.6.576,1.2-5.376,2.3-10.007,2.3-10.007L193,433.609C192.872,434.312,191.779,441.588,190.83,447.862Z" transform="translate(-11.626 -28.132)"/><path class="e" d="M225.261,396.312c-1.376-.354-2.928.824-3.468,2.631s.139,3.56,1.514,3.914,2.928-.824,3.468-2.631S226.637,396.665,225.261,396.312Z" transform="translate(-21.17 -14.715)"/><path class="h" d="M196.542,368.716c-5.478.249-14.853,2.966-12.891,17.607s13.276,15.253,13.276,15.253,16.13,2.306,16.218-14.948C213.229,370.245,201.408,368.494,196.542,368.716Z" transform="translate(-9.318 -4.821)"/><path class="i" d="M211.941,381.058a15.38,15.38,0,0,0-9.178-7.273,14.435,14.435,0,0,0-4.375-.441c-8.77.434-13.143,9.366-12.34,16.612.779,7.029,7.5,13.768,15.023,13.7a12.674,12.674,0,0,0,5.462-1.307c7.826-3.806,9.155-14.421,5.465-21.185Z" transform="translate(-10.115 -6.482)"/><g class="j" transform="translate(191.941 380.883)"><path class="i" d="M214.01,395.239a4.754,4.754,0,0,0-4.713,4.83,4.837,4.837,0,0,0,5.2,4.378,4.754,4.754,0,0,0,4.713-4.83A4.837,4.837,0,0,0,214.01,395.239Z" transform="translate(-209.291 -395.233)"/><path class="k" d="M214.026,395.285a4.723,4.723,0,0,0-4.683,4.8,4.805,4.805,0,0,0,5.166,4.35,4.722,4.722,0,0,0,4.683-4.8A4.806,4.806,0,0,0,214.026,395.285Z" transform="translate(-209.305 -395.25)"/><path class="l" d="M214.042,395.331a4.693,4.693,0,0,0-4.652,4.767,4.775,4.775,0,0,0,5.132,4.321,4.692,4.692,0,0,0,4.652-4.767A4.775,4.775,0,0,0,214.042,395.331Z" transform="translate(-209.32 -395.266)"/><path class="m" d="M214.058,395.377a4.663,4.663,0,0,0-4.623,4.737,4.744,4.744,0,0,0,5.1,4.293,4.661,4.661,0,0,0,4.622-4.736A4.745,4.745,0,0,0,214.058,395.377Z" transform="translate(-209.334 -395.283)"/><path class="n" d="M214.074,395.423a4.632,4.632,0,0,0-4.592,4.706,4.713,4.713,0,0,0,5.066,4.265,4.631,4.631,0,0,0,4.592-4.705A4.713,4.713,0,0,0,214.074,395.423Z" transform="translate(-209.348 -395.299)"/><path class="o" d="M214.089,395.469a4.6,4.6,0,0,0-4.562,4.674,4.682,4.682,0,0,0,5.032,4.237,4.6,4.6,0,0,0,4.562-4.674A4.682,4.682,0,0,0,214.089,395.469Z" transform="translate(-209.363 -395.316)"/><path class="p" d="M214.1,395.515a4.571,4.571,0,0,0-4.531,4.644,4.651,4.651,0,0,0,5,4.209,4.571,4.571,0,0,0,4.531-4.643A4.651,4.651,0,0,0,214.1,395.515Z" transform="translate(-209.377 -395.333)"/><path class="q" d="M214.121,395.561a4.541,4.541,0,0,0-4.5,4.613,4.62,4.62,0,0,0,4.965,4.181,4.54,4.54,0,0,0,4.5-4.612A4.621,4.621,0,0,0,214.121,395.561Z" transform="translate(-209.391 -395.349)"/><path class="r" d="M214.137,395.608a4.51,4.51,0,0,0-4.471,4.582,4.589,4.589,0,0,0,4.932,4.153,4.51,4.51,0,0,0,4.471-4.582A4.589,4.589,0,0,0,214.137,395.608Z" transform="translate(-209.405 -395.366)"/><path class="s" d="M214.153,395.653a4.48,4.48,0,0,0-4.441,4.551,4.559,4.559,0,0,0,4.9,4.125,4.479,4.479,0,0,0,4.441-4.551A4.559,4.559,0,0,0,214.153,395.653Z" transform="translate(-209.42 -395.382)"/><path class="t" d="M4.3,0A4.513,4.513,0,0,1,8.626,4.653a4.463,4.463,0,0,1-4.3,4.633A4.513,4.513,0,0,1,0,4.632,4.463,4.463,0,0,1,4.3,0Z" transform="matrix(0.032, -1, 1, 0.032, 0.186, 8.773)"/><path class="u" d="M214.185,395.746a4.419,4.419,0,0,0-4.381,4.489,4.5,4.5,0,0,0,4.832,4.069,4.419,4.419,0,0,0,4.381-4.489A4.5,4.5,0,0,0,214.185,395.746Z" transform="translate(-209.448 -395.416)"/><path class="v" d="M214.2,395.792a4.388,4.388,0,0,0-4.351,4.458,4.465,4.465,0,0,0,4.8,4.041A4.389,4.389,0,0,0,219,399.833,4.465,4.465,0,0,0,214.2,395.792Z" transform="translate(-209.463 -395.432)"/><ellipse class="w" cx="4.548" cy="4.225" rx="4.548" ry="4.225" transform="translate(0.414 0.384)"/><path class="x" d="M214.232,395.884a4.326,4.326,0,0,0-4.289,4.4,4.4,4.4,0,0,0,4.732,3.985,4.327,4.327,0,0,0,4.29-4.4A4.4,4.4,0,0,0,214.232,395.884Z" transform="translate(-209.491 -395.465)"/><path class="y" d="M214.248,395.93a4.3,4.3,0,0,0-4.26,4.365,4.372,4.372,0,0,0,4.7,3.957,4.3,4.3,0,0,0,4.26-4.365A4.372,4.372,0,0,0,214.248,395.93Z" transform="translate(-209.506 -395.482)"/><path class="z" d="M214.264,395.976a4.266,4.266,0,0,0-4.229,4.334,4.341,4.341,0,0,0,4.665,3.929,4.267,4.267,0,0,0,4.23-4.334A4.341,4.341,0,0,0,214.264,395.976Z" transform="translate(-209.52 -395.498)"/><path class="aa" d="M214.28,396.022a4.235,4.235,0,0,0-4.2,4.3,4.31,4.31,0,0,0,4.632,3.9,4.235,4.235,0,0,0,4.2-4.3A4.31,4.31,0,0,0,214.28,396.022Z" transform="translate(-209.534 -395.515)"/><path class="ab" d="M214.3,396.068a4.205,4.205,0,0,0-4.169,4.272,4.279,4.279,0,0,0,4.6,3.873,4.2,4.2,0,0,0,4.169-4.272A4.279,4.279,0,0,0,214.3,396.068Z" transform="translate(-209.549 -395.531)"/><path class="ac" d="M214.312,396.114a4.175,4.175,0,0,0-4.139,4.241,4.248,4.248,0,0,0,4.565,3.845,4.175,4.175,0,0,0,4.139-4.241A4.247,4.247,0,0,0,214.312,396.114Z" transform="translate(-209.563 -395.548)"/><path class="ad" d="M214.327,396.16a4.144,4.144,0,0,0-4.109,4.21,4.217,4.217,0,0,0,4.532,3.817,4.144,4.144,0,0,0,4.109-4.21A4.217,4.217,0,0,0,214.327,396.16Z" transform="translate(-209.577 -395.564)"/><path class="ae" d="M214.343,396.206a4.114,4.114,0,0,0-4.078,4.179,4.185,4.185,0,0,0,4.5,3.788A4.113,4.113,0,0,0,218.842,400,4.186,4.186,0,0,0,214.343,396.206Z" transform="translate(-209.591 -395.581)"/><path class="af" d="M214.359,396.252a4.083,4.083,0,0,0-4.048,4.148,4.154,4.154,0,0,0,4.466,3.76,4.083,4.083,0,0,0,4.048-4.148A4.155,4.155,0,0,0,214.359,396.252Z" transform="translate(-209.606 -395.598)"/><path class="ag" d="M214.375,396.3a4.053,4.053,0,0,0-4.018,4.118,4.123,4.123,0,0,0,4.432,3.732,4.052,4.052,0,0,0,4.018-4.117A4.124,4.124,0,0,0,214.375,396.3Z" transform="translate(-209.62 -395.614)"/><path class="ah" d="M214.391,396.344a4.022,4.022,0,0,0-3.988,4.086,4.093,4.093,0,0,0,4.4,3.7,4.022,4.022,0,0,0,3.988-4.086A4.093,4.093,0,0,0,214.391,396.344Z" transform="translate(-209.634 -395.631)"/><path class="ai" d="M214.406,396.39a3.993,3.993,0,0,0-3.957,4.055,4.062,4.062,0,0,0,4.366,3.676,3.991,3.991,0,0,0,3.957-4.055A4.062,4.062,0,0,0,214.406,396.39Z" transform="translate(-209.649 -395.647)"/><path class="aj" d="M214.423,396.436a3.962,3.962,0,0,0-3.928,4.025,4.031,4.031,0,0,0,4.333,3.648,3.961,3.961,0,0,0,3.927-4.024A4.031,4.031,0,0,0,214.423,396.436Z" transform="translate(-209.663 -395.664)"/><path class="ak" d="M214.438,396.482a3.931,3.931,0,0,0-3.9,3.994,4,4,0,0,0,4.3,3.62,3.931,3.931,0,0,0,3.9-3.993A4,4,0,0,0,214.438,396.482Z" transform="translate(-209.677 -395.68)"/><path class="al" d="M214.454,396.528a3.9,3.9,0,0,0-3.867,3.962,3.969,3.969,0,0,0,4.266,3.592,3.9,3.9,0,0,0,3.867-3.962A3.97,3.97,0,0,0,214.454,396.528Z" transform="translate(-209.691 -395.697)"/><path class="am" d="M214.47,396.574a3.871,3.871,0,0,0-3.837,3.932,3.938,3.938,0,0,0,4.233,3.564,3.87,3.87,0,0,0,3.837-3.931A3.938,3.938,0,0,0,214.47,396.574Z" transform="translate(-209.706 -395.713)"/><path class="an" d="M214.486,396.62a3.84,3.84,0,0,0-3.807,3.9,3.907,3.907,0,0,0,4.2,3.536,3.839,3.839,0,0,0,3.806-3.9A3.907,3.907,0,0,0,214.486,396.62Z" transform="translate(-209.72 -395.73)"/><path class="ao" d="M214.5,396.667a3.809,3.809,0,0,0-3.777,3.87,3.876,3.876,0,0,0,4.166,3.507,3.809,3.809,0,0,0,3.777-3.87A3.875,3.875,0,0,0,214.5,396.667Z" transform="translate(-209.734 -395.747)"/><path class="ap" d="M214.517,396.714a3.779,3.779,0,0,0-3.746,3.838,3.845,3.845,0,0,0,4.133,3.48,3.779,3.779,0,0,0,3.746-3.839A3.845,3.845,0,0,0,214.517,396.714Z" transform="translate(-209.748 -395.763)"/><path class="aq" d="M214.533,396.76a3.748,3.748,0,0,0-3.716,3.807,3.815,3.815,0,0,0,4.1,3.452,3.748,3.748,0,0,0,3.716-3.807A3.814,3.814,0,0,0,214.533,396.76Z" transform="translate(-209.763 -395.78)"/><path class="ar" d="M214.549,396.806a3.718,3.718,0,0,0-3.686,3.777,3.784,3.784,0,0,0,4.066,3.424,3.718,3.718,0,0,0,3.686-3.777A3.783,3.783,0,0,0,214.549,396.806Z" transform="translate(-209.777 -395.796)"/><path class="as" d="M214.565,396.852a3.687,3.687,0,0,0-3.655,3.746,3.751,3.751,0,0,0,4.032,3.4,3.688,3.688,0,0,0,3.656-3.746A3.752,3.752,0,0,0,214.565,396.852Z" transform="translate(-209.792 -395.813)"/><path class="at" d="M214.581,396.9a3.656,3.656,0,0,0-3.625,3.715,3.72,3.72,0,0,0,4,3.368,3.657,3.657,0,0,0,3.626-3.715A3.721,3.721,0,0,0,214.581,396.9Z" transform="translate(-209.806 -395.829)"/><path class="au" d="M214.6,396.944A3.625,3.625,0,0,0,211,400.627a3.69,3.69,0,0,0,3.966,3.34,3.627,3.627,0,0,0,3.6-3.684A3.69,3.69,0,0,0,214.6,396.944Z" transform="translate(-209.82 -395.846)"/><path class="av" d="M214.613,396.99a3.6,3.6,0,0,0-3.565,3.653,3.658,3.658,0,0,0,3.932,3.311,3.6,3.6,0,0,0,3.566-3.653A3.66,3.66,0,0,0,214.613,396.99Z" transform="translate(-209.834 -395.863)"/><path class="aw" d="M214.628,397.036a3.565,3.565,0,0,0-3.535,3.622,3.628,3.628,0,0,0,3.9,3.283,3.565,3.565,0,0,0,3.535-3.622A3.627,3.627,0,0,0,214.628,397.036Z" transform="translate(-209.849 -395.879)"/><path class="ax" d="M214.644,397.082a3.534,3.534,0,0,0-3.5,3.591,3.6,3.6,0,0,0,3.866,3.256,3.535,3.535,0,0,0,3.5-3.591A3.6,3.6,0,0,0,214.644,397.082Z" transform="translate(-209.863 -395.896)"/><path class="ay" d="M214.66,397.128a3.5,3.5,0,0,0-3.474,3.56,3.566,3.566,0,0,0,3.833,3.227,3.5,3.5,0,0,0,3.474-3.56A3.566,3.566,0,0,0,214.66,397.128Z" transform="translate(-209.877 -395.912)"/><path class="az" d="M214.676,397.174a3.474,3.474,0,0,0-3.444,3.529,3.535,3.535,0,0,0,3.8,3.2,3.474,3.474,0,0,0,3.444-3.529A3.535,3.535,0,0,0,214.676,397.174Z" transform="translate(-209.892 -395.929)"/><path class="ba" d="M214.692,397.22a3.443,3.443,0,0,0-3.414,3.5,3.5,3.5,0,0,0,3.766,3.171,3.443,3.443,0,0,0,3.414-3.5A3.5,3.5,0,0,0,214.692,397.22Z" transform="translate(-209.906 -395.945)"/><path class="bb" d="M214.707,397.266a3.413,3.413,0,0,0-3.383,3.467,3.474,3.474,0,0,0,3.733,3.143,3.413,3.413,0,0,0,3.383-3.468A3.473,3.473,0,0,0,214.707,397.266Z" transform="translate(-209.92 -395.962)"/><path class="bc" d="M214.723,397.312a3.383,3.383,0,0,0-3.353,3.436,3.441,3.441,0,0,0,3.7,3.115,3.382,3.382,0,0,0,3.353-3.436A3.442,3.442,0,0,0,214.723,397.312Z" transform="translate(-209.934 -395.978)"/><path class="bd" d="M214.74,397.358a3.352,3.352,0,0,0-3.323,3.406,3.41,3.41,0,0,0,3.666,3.086,3.352,3.352,0,0,0,3.323-3.4A3.411,3.411,0,0,0,214.74,397.358Z" transform="translate(-209.949 -395.995)"/><path class="be" d="M214.755,397.4a3.321,3.321,0,0,0-3.293,3.374,3.38,3.38,0,0,0,3.632,3.059,3.321,3.321,0,0,0,3.293-3.374A3.38,3.38,0,0,0,214.755,397.4Z" transform="translate(-209.963 -396.011)"/><path class="bf" d="M214.771,397.45a3.291,3.291,0,0,0-3.263,3.343,3.348,3.348,0,0,0,3.6,3.031,3.29,3.29,0,0,0,3.263-3.343A3.349,3.349,0,0,0,214.771,397.45Z" transform="translate(-209.977 -396.028)"/><path class="bg" d="M214.787,397.5a3.261,3.261,0,0,0-3.232,3.313,3.318,3.318,0,0,0,3.566,3,3.26,3.26,0,0,0,3.232-3.312A3.318,3.318,0,0,0,214.787,397.5Z" transform="translate(-209.992 -396.044)"/><path class="bh" d="M214.8,397.542a3.231,3.231,0,0,0-3.2,3.282,3.287,3.287,0,0,0,3.532,2.974,3.23,3.23,0,0,0,3.2-3.281A3.287,3.287,0,0,0,214.8,397.542Z" transform="translate(-210.006 -396.061)"/><path class="bi" d="M214.818,397.588a3.2,3.2,0,0,0-3.172,3.25,3.256,3.256,0,0,0,3.5,2.947,3.2,3.2,0,0,0,3.172-3.251A3.257,3.257,0,0,0,214.818,397.588Z" transform="translate(-210.02 -396.078)"/><path class="bj" d="M214.834,397.635a3.169,3.169,0,0,0-3.142,3.219,3.225,3.225,0,0,0,3.466,2.918,3.169,3.169,0,0,0,3.142-3.219A3.225,3.225,0,0,0,214.834,397.635Z" transform="translate(-210.034 -396.094)"/><path class="bk" d="M214.851,397.681a3.139,3.139,0,0,0-3.112,3.188,3.194,3.194,0,0,0,3.433,2.89,3.139,3.139,0,0,0,3.112-3.188A3.193,3.193,0,0,0,214.851,397.681Z" transform="translate(-210.049 -396.111)"/><path class="bl" d="M214.866,397.727a3.108,3.108,0,0,0-3.082,3.158,3.164,3.164,0,0,0,3.4,2.862,3.108,3.108,0,0,0,3.082-3.158A3.162,3.162,0,0,0,214.866,397.727Z" transform="translate(-210.063 -396.128)"/><path class="bm" d="M214.882,397.773a3.078,3.078,0,0,0-3.052,3.126,3.132,3.132,0,0,0,3.366,2.835,3.078,3.078,0,0,0,3.052-3.127A3.132,3.132,0,0,0,214.882,397.773Z" transform="translate(-210.077 -396.144)"/><path class="bn" d="M2.934-.011A3.354,3.354,0,0,1,6.1,3.179,2.809,2.809,0,0,1,3.159,6.143a3.354,3.354,0,0,1-3.17-3.19A2.809,2.809,0,0,1,2.934-.011Z" transform="matrix(0.676, -0.737, 0.737, 0.676, 0.644, 4.783)"/><path class="bo" d="M214.914,397.865a3.016,3.016,0,0,0-2.991,3.065,3.07,3.07,0,0,0,3.3,2.778,3.018,3.018,0,0,0,2.991-3.065A3.07,3.07,0,0,0,214.914,397.865Z" transform="translate(-210.106 -396.177)"/><path class="bp" d="M214.93,397.911a2.986,2.986,0,0,0-2.961,3.034,3.038,3.038,0,0,0,3.265,2.75,2.987,2.987,0,0,0,2.961-3.034A3.039,3.039,0,0,0,214.93,397.911Z" transform="translate(-210.12 -396.194)"/><path class="bq" d="M214.945,397.957a2.955,2.955,0,0,0-2.93,3,3.007,3.007,0,0,0,3.232,2.722,2.956,2.956,0,0,0,2.931-3A3.008,3.008,0,0,0,214.945,397.957Z" transform="translate(-210.135 -396.21)"/><path class="br" d="M214.961,398a2.925,2.925,0,0,0-2.9,2.972,2.977,2.977,0,0,0,3.2,2.694,2.926,2.926,0,0,0,2.9-2.972A2.977,2.977,0,0,0,214.961,398Z" transform="translate(-210.149 -396.227)"/><path class="bs" d="M214.977,398.049a2.894,2.894,0,0,0-2.87,2.941,2.946,2.946,0,0,0,3.166,2.666,2.9,2.9,0,0,0,2.869-2.941A2.945,2.945,0,0,0,214.977,398.049Z" transform="translate(-210.163 -396.243)"/><path class="bt" d="M214.993,398.1a2.864,2.864,0,0,0-2.84,2.91,2.915,2.915,0,0,0,3.132,2.638,2.864,2.864,0,0,0,2.84-2.91A2.915,2.915,0,0,0,214.993,398.1Z" transform="translate(-210.178 -396.26)"/><path class="bu" d="M215.009,398.141a2.834,2.834,0,0,0-2.809,2.879,2.884,2.884,0,0,0,3.1,2.61,2.834,2.834,0,0,0,2.809-2.879A2.883,2.883,0,0,0,215.009,398.141Z" transform="translate(-210.192 -396.276)"/><path class="bv" d="M215.024,398.187a2.8,2.8,0,0,0-2.779,2.848,2.853,2.853,0,0,0,3.066,2.582,2.8,2.8,0,0,0,2.779-2.848A2.852,2.852,0,0,0,215.024,398.187Z" transform="translate(-210.206 -396.293)"/><path class="bw" d="M215.041,398.233a2.773,2.773,0,0,0-2.749,2.817,2.821,2.821,0,0,0,3.033,2.553,2.772,2.772,0,0,0,2.749-2.817A2.822,2.822,0,0,0,215.041,398.233Z" transform="translate(-210.22 -396.309)"/><path class="bx" d="M215.056,398.279a2.743,2.743,0,0,0-2.719,2.786,2.79,2.79,0,0,0,3,2.525,2.742,2.742,0,0,0,2.719-2.786A2.79,2.79,0,0,0,215.056,398.279Z" transform="translate(-210.235 -396.326)"/><path class="by" d="M215.072,398.325a2.712,2.712,0,0,0-2.689,2.755,2.759,2.759,0,0,0,2.966,2.5,2.712,2.712,0,0,0,2.689-2.755A2.76,2.76,0,0,0,215.072,398.325Z" transform="translate(-210.249 -396.343)"/><path class="bz" d="M215.088,398.371a2.681,2.681,0,0,0-2.658,2.724,2.728,2.728,0,0,0,2.933,2.469,2.68,2.68,0,0,0,2.658-2.724A2.73,2.73,0,0,0,215.088,398.371Z" transform="translate(-210.263 -396.359)"/><path class="ca" d="M215.1,398.417a2.652,2.652,0,0,0-2.629,2.694,2.7,2.7,0,0,0,2.9,2.441A2.651,2.651,0,0,0,218,400.859,2.7,2.7,0,0,0,215.1,398.417Z" transform="translate(-210.277 -396.376)"/><path class="cb" d="M215.12,398.463a2.621,2.621,0,0,0-2.6,2.663,2.666,2.666,0,0,0,2.866,2.413,2.621,2.621,0,0,0,2.6-2.662A2.667,2.667,0,0,0,215.12,398.463Z" transform="translate(-210.292 -396.392)"/><path class="cc" d="M215.135,398.509a2.591,2.591,0,0,0-2.568,2.631,2.635,2.635,0,0,0,2.833,2.385,2.59,2.59,0,0,0,2.568-2.631A2.636,2.636,0,0,0,215.135,398.509Z" transform="translate(-210.306 -396.409)"/><path class="cd" d="M215.151,398.555a2.56,2.56,0,0,0-2.538,2.6,2.6,2.6,0,0,0,2.8,2.357,2.559,2.559,0,0,0,2.538-2.6A2.605,2.605,0,0,0,215.151,398.555Z" transform="translate(-210.32 -396.425)"/><path class="ce" d="M215.167,398.6a2.53,2.53,0,0,0-2.508,2.57,2.573,2.573,0,0,0,2.766,2.329,2.529,2.529,0,0,0,2.508-2.569A2.574,2.574,0,0,0,215.167,398.6Z" transform="translate(-210.335 -396.442)"/><path class="cf" d="M215.183,398.647a2.5,2.5,0,0,0-2.478,2.538,2.543,2.543,0,0,0,2.733,2.3,2.5,2.5,0,0,0,2.478-2.538A2.543,2.543,0,0,0,215.183,398.647Z" transform="translate(-210.349 -396.458)"/><path class="cg" d="M215.2,398.693a2.469,2.469,0,0,0-2.447,2.508,2.512,2.512,0,0,0,2.7,2.273,2.468,2.468,0,0,0,2.447-2.508A2.513,2.513,0,0,0,215.2,398.693Z" transform="translate(-210.363 -396.475)"/><path class="ch" d="M215.214,398.74a2.438,2.438,0,0,0-2.417,2.476,2.481,2.481,0,0,0,2.667,2.245,2.438,2.438,0,0,0,2.417-2.476A2.481,2.481,0,0,0,215.214,398.74Z" transform="translate(-210.377 -396.492)"/><path class="ci" d="M215.231,398.786a2.408,2.408,0,0,0-2.387,2.446,2.449,2.449,0,0,0,2.633,2.217A2.408,2.408,0,0,0,217.864,401,2.449,2.449,0,0,0,215.231,398.786Z" transform="translate(-210.392 -396.508)"/><path class="cj" d="M215.247,398.832a2.376,2.376,0,0,0-2.356,2.414,2.418,2.418,0,0,0,2.6,2.189,2.377,2.377,0,0,0,2.357-2.415A2.419,2.419,0,0,0,215.247,398.832Z" transform="translate(-210.406 -396.525)"/></g><g class="ck" transform="translate(178.658 380.492)"><path class="i" d="M195.577,396.143a4.754,4.754,0,0,0-4.713,4.83,4.837,4.837,0,0,0,5.2,4.377,4.752,4.752,0,0,0,4.712-4.829A4.837,4.837,0,0,0,195.577,396.143Z" transform="translate(-190.293 -395.167)"/><path class="k" d="M195.593,396.189a4.723,4.723,0,0,0-4.683,4.8,4.806,4.806,0,0,0,5.166,4.35,4.722,4.722,0,0,0,4.683-4.8A4.806,4.806,0,0,0,195.593,396.189Z" transform="translate(-190.307 -395.184)"/><path class="l" d="M195.609,396.235A4.693,4.693,0,0,0,190.956,401a4.775,4.775,0,0,0,5.132,4.321,4.692,4.692,0,0,0,4.652-4.767A4.775,4.775,0,0,0,195.609,396.235Z" transform="translate(-190.321 -395.2)"/><path class="m" d="M195.625,396.281A4.663,4.663,0,0,0,191,401.018a4.744,4.744,0,0,0,5.1,4.293,4.661,4.661,0,0,0,4.622-4.736A4.743,4.743,0,0,0,195.625,396.281Z" transform="translate(-190.336 -395.217)"/><path class="n" d="M195.641,396.327a4.633,4.633,0,0,0-4.592,4.706,4.713,4.713,0,0,0,5.066,4.265,4.631,4.631,0,0,0,4.592-4.705A4.713,4.713,0,0,0,195.641,396.327Z" transform="translate(-190.35 -395.233)"/><path class="o" d="M195.656,396.373a4.6,4.6,0,0,0-4.562,4.675,4.683,4.683,0,0,0,5.032,4.237,4.6,4.6,0,0,0,4.562-4.675A4.682,4.682,0,0,0,195.656,396.373Z" transform="translate(-190.364 -395.25)"/><path class="p" d="M195.673,396.419a4.571,4.571,0,0,0-4.532,4.644,4.651,4.651,0,0,0,5,4.209,4.57,4.57,0,0,0,4.531-4.644A4.651,4.651,0,0,0,195.673,396.419Z" transform="translate(-190.379 -395.266)"/><path class="q" d="M195.688,396.465a4.542,4.542,0,0,0-4.5,4.613,4.62,4.62,0,0,0,4.966,4.181,4.54,4.54,0,0,0,4.5-4.612A4.62,4.62,0,0,0,195.688,396.465Z" transform="translate(-190.393 -395.283)"/><path class="r" d="M195.7,396.511a4.511,4.511,0,0,0-4.471,4.582,4.589,4.589,0,0,0,4.932,4.153,4.509,4.509,0,0,0,4.471-4.582A4.589,4.589,0,0,0,195.7,396.511Z" transform="translate(-190.407 -395.299)"/><path class="s" d="M195.72,396.557a4.48,4.48,0,0,0-4.441,4.551,4.559,4.559,0,0,0,4.9,4.125,4.479,4.479,0,0,0,4.441-4.551A4.558,4.558,0,0,0,195.72,396.557Z" transform="translate(-190.421 -395.316)"/><path class="t" d="M195.736,396.6a4.449,4.449,0,0,0-4.411,4.52,4.527,4.527,0,0,0,4.865,4.1,4.449,4.449,0,0,0,4.411-4.52A4.528,4.528,0,0,0,195.736,396.6Z" transform="translate(-190.436 -395.332)"/><path class="u" d="M195.752,396.65a4.417,4.417,0,0,0-4.38,4.489,4.5,4.5,0,0,0,4.832,4.069,4.419,4.419,0,0,0,4.38-4.489A4.5,4.5,0,0,0,195.752,396.65Z" transform="translate(-190.45 -395.349)"/><path class="v" d="M195.768,396.7a4.387,4.387,0,0,0-4.35,4.457,4.465,4.465,0,0,0,4.8,4.041,4.389,4.389,0,0,0,4.351-4.458A4.465,4.465,0,0,0,195.768,396.7Z" transform="translate(-190.465 -395.366)"/><path class="w" d="M195.783,396.742a4.357,4.357,0,0,0-4.32,4.427,4.434,4.434,0,0,0,4.765,4.013,4.358,4.358,0,0,0,4.32-4.427A4.434,4.434,0,0,0,195.783,396.742Z" transform="translate(-190.479 -395.382)"/><path class="x" d="M195.8,396.788a4.327,4.327,0,0,0-4.29,4.4,4.4,4.4,0,0,0,4.732,3.985,4.327,4.327,0,0,0,4.29-4.4A4.4,4.4,0,0,0,195.8,396.788Z" transform="translate(-190.493 -395.399)"/><path class="y" d="M195.815,396.834a4.3,4.3,0,0,0-4.26,4.365,4.372,4.372,0,0,0,4.7,3.957,4.3,4.3,0,0,0,4.26-4.365A4.372,4.372,0,0,0,195.815,396.834Z" transform="translate(-190.507 -395.415)"/><path class="z" d="M195.831,396.88a4.265,4.265,0,0,0-4.229,4.334,4.341,4.341,0,0,0,4.665,3.929,4.267,4.267,0,0,0,4.23-4.334A4.341,4.341,0,0,0,195.831,396.88Z" transform="translate(-190.522 -395.432)"/><path class="aa" d="M195.847,396.926a4.235,4.235,0,0,0-4.2,4.3,4.31,4.31,0,0,0,4.632,3.9,4.237,4.237,0,0,0,4.2-4.3A4.31,4.31,0,0,0,195.847,396.926Z" transform="translate(-190.536 -395.448)"/><path class="ab" d="M195.863,396.972a4.2,4.2,0,0,0-4.169,4.272,4.279,4.279,0,0,0,4.6,3.873,4.206,4.206,0,0,0,4.169-4.272A4.279,4.279,0,0,0,195.863,396.972Z" transform="translate(-190.55 -395.465)"/><path class="ac" d="M195.879,397.018a4.175,4.175,0,0,0-4.139,4.241,4.249,4.249,0,0,0,4.566,3.845,4.175,4.175,0,0,0,4.139-4.241A4.248,4.248,0,0,0,195.879,397.018Z" transform="translate(-190.565 -395.482)"/><path class="ad" d="M195.894,397.064a4.144,4.144,0,0,0-4.109,4.21,4.218,4.218,0,0,0,4.532,3.817,4.144,4.144,0,0,0,4.109-4.211A4.216,4.216,0,0,0,195.894,397.064Z" transform="translate(-190.579 -395.498)"/><path class="ae" d="M195.91,397.11a4.114,4.114,0,0,0-4.078,4.179,4.185,4.185,0,0,0,4.5,3.788,4.113,4.113,0,0,0,4.078-4.179A4.185,4.185,0,0,0,195.91,397.11Z" transform="translate(-190.593 -395.515)"/><path class="af" d="M195.926,397.156a4.083,4.083,0,0,0-4.049,4.148,4.155,4.155,0,0,0,4.466,3.76,4.083,4.083,0,0,0,4.048-4.148A4.155,4.155,0,0,0,195.926,397.156Z" transform="translate(-190.607 -395.531)"/><ellipse class="ag" cx="4.23" cy="3.929" rx="4.23" ry="3.929" transform="translate(1.297 1.65)"/><path class="ah" d="M195.958,397.248a4.023,4.023,0,0,0-3.988,4.086,4.093,4.093,0,0,0,4.4,3.7,4.022,4.022,0,0,0,3.988-4.086A4.092,4.092,0,0,0,195.958,397.248Z" transform="translate(-190.636 -395.564)"/><path class="ai" d="M195.973,397.294a3.992,3.992,0,0,0-3.957,4.055,4.062,4.062,0,0,0,4.366,3.676,3.991,3.991,0,0,0,3.957-4.055A4.062,4.062,0,0,0,195.973,397.294Z" transform="translate(-190.65 -395.581)"/><path class="aj" d="M195.99,397.34a3.962,3.962,0,0,0-3.928,4.025,4.031,4.031,0,0,0,4.333,3.648,3.961,3.961,0,0,0,3.927-4.024A4.031,4.031,0,0,0,195.99,397.34Z" transform="translate(-190.665 -395.597)"/><path class="ak" d="M196.005,397.386a3.931,3.931,0,0,0-3.9,3.994,4,4,0,0,0,4.3,3.62,3.931,3.931,0,0,0,3.9-3.993A4,4,0,0,0,196.005,397.386Z" transform="translate(-190.679 -395.614)"/><path class="al" d="M3.755-.015A4.293,4.293,0,0,1,7.812,4.069a3.6,3.6,0,0,1-3.769,3.8A4.293,4.293,0,0,1-.015,3.781,3.6,3.6,0,0,1,3.755-.015Z" transform="translate(0 5.809) rotate(-47.566)"/><path class="am" d="M196.037,397.478a3.871,3.871,0,0,0-3.837,3.932,3.938,3.938,0,0,0,4.233,3.564,3.87,3.87,0,0,0,3.837-3.932A3.938,3.938,0,0,0,196.037,397.478Z" transform="translate(-190.707 -395.647)"/><path class="an" d="M196.053,397.524a3.84,3.84,0,0,0-3.807,3.9,3.908,3.908,0,0,0,4.2,3.536,3.839,3.839,0,0,0,3.806-3.9A3.907,3.907,0,0,0,196.053,397.524Z" transform="translate(-190.722 -395.664)"/><path class="ao" d="M196.069,397.571a3.809,3.809,0,0,0-3.777,3.87,3.877,3.877,0,0,0,4.167,3.507,3.809,3.809,0,0,0,3.776-3.87A3.875,3.875,0,0,0,196.069,397.571Z" transform="translate(-190.736 -395.68)"/><path class="ap" d="M196.084,397.617a3.778,3.778,0,0,0-3.746,3.838,3.844,3.844,0,0,0,4.132,3.48,3.778,3.778,0,0,0,3.746-3.839A3.845,3.845,0,0,0,196.084,397.617Z" transform="translate(-190.751 -395.697)"/><path class="aq" d="M196.1,397.664a3.747,3.747,0,0,0-3.716,3.807,3.814,3.814,0,0,0,4.1,3.452,3.748,3.748,0,0,0,3.716-3.808A3.814,3.814,0,0,0,196.1,397.664Z" transform="translate(-190.765 -395.714)"/><path class="ar" d="M196.117,397.71a3.717,3.717,0,0,0-3.686,3.777,3.783,3.783,0,0,0,4.066,3.424,3.718,3.718,0,0,0,3.686-3.777A3.782,3.782,0,0,0,196.117,397.71Z" transform="translate(-190.779 -395.73)"/><path class="as" d="M196.132,397.756a3.686,3.686,0,0,0-3.655,3.745,3.751,3.751,0,0,0,4.032,3.4,3.687,3.687,0,0,0,3.656-3.746A3.752,3.752,0,0,0,196.132,397.756Z" transform="translate(-190.793 -395.747)"/><path class="at" d="M196.148,397.8a3.656,3.656,0,0,0-3.625,3.714,3.721,3.721,0,0,0,4,3.368,3.657,3.657,0,0,0,3.626-3.715A3.721,3.721,0,0,0,196.148,397.8Z" transform="translate(-190.808 -395.763)"/><ellipse class="au" cx="3.785" cy="3.516" rx="3.785" ry="3.516" transform="translate(1.742 2.063)"/><path class="av" d="M196.18,397.894a3.6,3.6,0,0,0-3.565,3.653,3.659,3.659,0,0,0,3.933,3.311,3.6,3.6,0,0,0,3.565-3.653A3.659,3.659,0,0,0,196.18,397.894Z" transform="translate(-190.836 -395.796)"/><path class="aw" d="M196.2,397.94a3.565,3.565,0,0,0-3.535,3.622,3.628,3.628,0,0,0,3.9,3.284,3.566,3.566,0,0,0,3.535-3.622A3.628,3.628,0,0,0,196.2,397.94Z" transform="translate(-190.85 -395.813)"/><path class="ax" d="M196.211,397.986a3.534,3.534,0,0,0-3.5,3.591,3.6,3.6,0,0,0,3.866,3.256,3.536,3.536,0,0,0,3.5-3.591A3.6,3.6,0,0,0,196.211,397.986Z" transform="translate(-190.865 -395.829)"/><path class="ay" d="M196.228,398.032a3.5,3.5,0,0,0-3.475,3.56,3.565,3.565,0,0,0,3.833,3.227,3.5,3.5,0,0,0,3.475-3.56A3.566,3.566,0,0,0,196.228,398.032Z" transform="translate(-190.879 -395.846)"/><path class="az" d="M196.243,398.078a3.474,3.474,0,0,0-3.444,3.529,3.534,3.534,0,0,0,3.8,3.2,3.473,3.473,0,0,0,3.443-3.529A3.535,3.535,0,0,0,196.243,398.078Z" transform="translate(-190.893 -395.862)"/><path class="ba" d="M196.259,398.124a3.443,3.443,0,0,0-3.414,3.5,3.5,3.5,0,0,0,3.766,3.171,3.443,3.443,0,0,0,3.414-3.5A3.5,3.5,0,0,0,196.259,398.124Z" transform="translate(-190.908 -395.879)"/><path class="bb" d="M196.274,398.17a3.413,3.413,0,0,0-3.383,3.467,3.473,3.473,0,0,0,3.733,3.143,3.412,3.412,0,0,0,3.383-3.467A3.472,3.472,0,0,0,196.274,398.17Z" transform="translate(-190.922 -395.895)"/><path class="bc" d="M196.291,398.216a3.383,3.383,0,0,0-3.354,3.436,3.442,3.442,0,0,0,3.7,3.115,3.381,3.381,0,0,0,3.353-3.436A3.442,3.442,0,0,0,196.291,398.216Z" transform="translate(-190.936 -395.912)"/><path class="bd" d="M196.307,398.262a3.352,3.352,0,0,0-3.323,3.406,3.411,3.411,0,0,0,3.666,3.086,3.351,3.351,0,0,0,3.323-3.4A3.41,3.41,0,0,0,196.307,398.262Z" transform="translate(-190.95 -395.929)"/><path class="be" d="M196.322,398.308a3.321,3.321,0,0,0-3.293,3.374,3.38,3.38,0,0,0,3.633,3.059,3.321,3.321,0,0,0,3.293-3.374A3.38,3.38,0,0,0,196.322,398.308Z" transform="translate(-190.965 -395.945)"/><path class="bf" d="M196.338,398.354a3.292,3.292,0,0,0-3.263,3.343,3.349,3.349,0,0,0,3.6,3.031,3.291,3.291,0,0,0,3.263-3.343A3.348,3.348,0,0,0,196.338,398.354Z" transform="translate(-190.979 -395.962)"/><path class="bg" d="M196.354,398.4a3.262,3.262,0,0,0-3.233,3.313,3.318,3.318,0,0,0,3.566,3,3.26,3.26,0,0,0,3.232-3.312A3.318,3.318,0,0,0,196.354,398.4Z" transform="translate(-190.993 -395.978)"/><path class="bh" d="M196.37,398.446a3.231,3.231,0,0,0-3.2,3.281A3.288,3.288,0,0,0,196.7,404.7a3.23,3.23,0,0,0,3.2-3.281A3.287,3.287,0,0,0,196.37,398.446Z" transform="translate(-191.008 -395.995)"/><path class="bi" d="M196.385,398.492a3.2,3.2,0,0,0-3.172,3.25,3.256,3.256,0,0,0,3.5,2.947,3.2,3.2,0,0,0,3.172-3.25A3.256,3.256,0,0,0,196.385,398.492Z" transform="translate(-191.022 -396.011)"/><path class="bj" d="M196.4,398.538a3.17,3.17,0,0,0-3.142,3.22,3.225,3.225,0,0,0,3.466,2.919,3.169,3.169,0,0,0,3.142-3.22A3.226,3.226,0,0,0,196.4,398.538Z" transform="translate(-191.036 -396.028)"/><path class="bk" d="M196.418,398.584a3.139,3.139,0,0,0-3.112,3.189,3.194,3.194,0,0,0,3.433,2.89,3.139,3.139,0,0,0,3.112-3.188A3.194,3.194,0,0,0,196.418,398.584Z" transform="translate(-191.05 -396.044)"/><path class="bl" d="M196.433,398.63a3.108,3.108,0,0,0-3.081,3.158,3.163,3.163,0,0,0,3.4,2.863,3.108,3.108,0,0,0,3.081-3.158A3.163,3.163,0,0,0,196.433,398.63Z" transform="translate(-191.065 -396.061)"/><path class="bm" d="M196.449,398.677A3.077,3.077,0,0,0,193.4,401.8a3.131,3.131,0,0,0,3.366,2.835,3.078,3.078,0,0,0,3.052-3.127A3.132,3.132,0,0,0,196.449,398.677Z" transform="translate(-191.079 -396.078)"/><ellipse class="bn" cx="3.181" cy="2.954" rx="3.181" ry="2.954" transform="translate(2.347 2.625)"/><path class="bo" d="M196.481,398.769a3.016,3.016,0,0,0-2.991,3.065,3.07,3.07,0,0,0,3.3,2.778,3.018,3.018,0,0,0,2.991-3.065A3.07,3.07,0,0,0,196.481,398.769Z" transform="translate(-191.108 -396.111)"/><path class="bp" d="M196.5,398.815a2.986,2.986,0,0,0-2.961,3.033A3.039,3.039,0,0,0,196.8,404.6a2.987,2.987,0,0,0,2.961-3.034A3.039,3.039,0,0,0,196.5,398.815Z" transform="translate(-191.122 -396.127)"/><path class="bq" d="M196.512,398.861a2.955,2.955,0,0,0-2.93,3,3.008,3.008,0,0,0,3.232,2.722,2.956,2.956,0,0,0,2.931-3A3.008,3.008,0,0,0,196.512,398.861Z" transform="translate(-191.136 -396.144)"/><path class="br" d="M196.529,398.907a2.925,2.925,0,0,0-2.9,2.972,2.977,2.977,0,0,0,3.2,2.694,2.926,2.926,0,0,0,2.9-2.972A2.977,2.977,0,0,0,196.529,398.907Z" transform="translate(-191.151 -396.16)"/><path class="bs" d="M196.544,398.953a2.894,2.894,0,0,0-2.87,2.941,2.946,2.946,0,0,0,3.166,2.666,2.9,2.9,0,0,0,2.87-2.941A2.946,2.946,0,0,0,196.544,398.953Z" transform="translate(-191.165 -396.177)"/><path class="bt" d="M196.56,399a2.864,2.864,0,0,0-2.84,2.91,2.914,2.914,0,0,0,3.133,2.638,2.864,2.864,0,0,0,2.84-2.91A2.916,2.916,0,0,0,196.56,399Z" transform="translate(-191.179 -396.194)"/><path class="bu" d="M196.576,399.045a2.834,2.834,0,0,0-2.809,2.879,2.884,2.884,0,0,0,3.1,2.61,2.835,2.835,0,0,0,2.81-2.879A2.884,2.884,0,0,0,196.576,399.045Z" transform="translate(-191.194 -396.21)"/><path class="bv" d="M196.592,399.091a2.8,2.8,0,0,0-2.78,2.848,2.853,2.853,0,0,0,3.066,2.582,2.8,2.8,0,0,0,2.779-2.849A2.852,2.852,0,0,0,196.592,399.091Z" transform="translate(-191.208 -396.227)"/><path class="bw" d="M196.608,399.137a2.773,2.773,0,0,0-2.749,2.817,2.822,2.822,0,0,0,3.033,2.553,2.772,2.772,0,0,0,2.749-2.817A2.821,2.821,0,0,0,196.608,399.137Z" transform="translate(-191.222 -396.243)"/><path class="bx" d="M196.623,399.183a2.742,2.742,0,0,0-2.719,2.786,2.79,2.79,0,0,0,3,2.526,2.742,2.742,0,0,0,2.719-2.786A2.79,2.79,0,0,0,196.623,399.183Z" transform="translate(-191.236 -396.26)"/><path class="by" d="M196.639,399.229a2.712,2.712,0,0,0-2.689,2.755,2.76,2.76,0,0,0,2.966,2.5,2.711,2.711,0,0,0,2.689-2.755A2.759,2.759,0,0,0,196.639,399.229Z" transform="translate(-191.251 -396.276)"/><path class="bz" d="M196.656,399.275A2.682,2.682,0,0,0,194,402a2.729,2.729,0,0,0,2.933,2.469,2.681,2.681,0,0,0,2.658-2.724A2.728,2.728,0,0,0,196.656,399.275Z" transform="translate(-191.265 -396.293)"/><path class="ca" d="M196.671,399.321a2.652,2.652,0,0,0-2.629,2.694,2.7,2.7,0,0,0,2.9,2.441,2.65,2.65,0,0,0,2.628-2.693A2.7,2.7,0,0,0,196.671,399.321Z" transform="translate(-191.279 -396.309)"/><path class="cb" d="M196.687,399.367a2.621,2.621,0,0,0-2.6,2.662,2.667,2.667,0,0,0,2.866,2.414,2.621,2.621,0,0,0,2.6-2.662A2.667,2.667,0,0,0,196.687,399.367Z" transform="translate(-191.293 -396.326)"/><path class="cc" d="M196.7,399.413a2.591,2.591,0,0,0-2.568,2.631,2.636,2.636,0,0,0,2.833,2.385,2.59,2.59,0,0,0,2.568-2.631A2.636,2.636,0,0,0,196.7,399.413Z" transform="translate(-191.308 -396.342)"/><path class="cd" d="M196.719,399.459a2.56,2.56,0,0,0-2.538,2.6,2.6,2.6,0,0,0,2.8,2.357,2.559,2.559,0,0,0,2.538-2.6A2.6,2.6,0,0,0,196.719,399.459Z" transform="translate(-191.322 -396.359)"/><path class="ce" d="M196.734,399.505a2.53,2.53,0,0,0-2.508,2.57,2.575,2.575,0,0,0,2.767,2.329,2.529,2.529,0,0,0,2.507-2.569A2.573,2.573,0,0,0,196.734,399.505Z" transform="translate(-191.336 -396.376)"/><path class="cf" d="M196.75,399.551a2.5,2.5,0,0,0-2.478,2.538,2.543,2.543,0,0,0,2.733,2.3,2.5,2.5,0,0,0,2.478-2.538A2.543,2.543,0,0,0,196.75,399.551Z" transform="translate(-191.351 -396.392)"/><path class="cg" d="M196.766,399.6a2.468,2.468,0,0,0-2.447,2.507,2.511,2.511,0,0,0,2.7,2.273,2.468,2.468,0,0,0,2.447-2.508A2.511,2.511,0,0,0,196.766,399.6Z" transform="translate(-191.365 -396.409)"/><path class="ch" d="M196.782,399.644a2.437,2.437,0,0,0-2.417,2.476,2.48,2.48,0,0,0,2.666,2.245,2.438,2.438,0,0,0,2.417-2.476A2.48,2.48,0,0,0,196.782,399.644Z" transform="translate(-191.379 -396.426)"/><path class="ci" d="M196.8,399.69a2.407,2.407,0,0,0-2.386,2.445,2.45,2.45,0,0,0,2.633,2.217,2.408,2.408,0,0,0,2.386-2.446A2.449,2.449,0,0,0,196.8,399.69Z" transform="translate(-191.394 -396.442)"/><path class="cj" d="M196.814,399.736a2.376,2.376,0,0,0-2.356,2.414,2.418,2.418,0,0,0,2.6,2.189,2.377,2.377,0,0,0,2.357-2.415A2.418,2.418,0,0,0,196.814,399.736Z" transform="translate(-191.408 -396.459)"/></g><path class="i" d="M184.615,398.324c-1.332.477-1.821,2.283-1.094,4.033s2.4,2.781,3.728,2.3,1.821-2.283,1.094-4.033S185.947,397.846,184.615,398.324Z" transform="translate(-9.256 -15.418)"/><path class="e" d="M187.541,404.489c-2.342,2.453-3.842-.212-4.079-.444.042.136.088.272.145.408.716,1.722,2.344,2.745,3.664,2.321,2.681,4.53,7.65,7.962,13.028,7.913a12.673,12.673,0,0,0,5.462-1.307,12.368,12.368,0,0,0,1.722-1.023C195.3,416.834,190.014,409.18,187.541,404.489Z" transform="translate(-9.342 -17.515)"/><path class="e" d="M184.685,399.983a2.485,2.485,0,0,1,1.522,2.264l1.39-.226S187,399.147,184.685,399.983Z" transform="translate(-9.721 -16.001)"/><path class="cl" d="M200.842,407.188s.878,4.884,5.764,4.761c5.037-.127,4.958-5.125,4.958-5.125S207.357,411.67,200.842,407.188Z" transform="translate(-14.731 -18.513)"/><path class="cm" d="M201.912,408.051a5.653,5.653,0,0,0,4.9,2.817c3.473.05,4.429-2.741,4.311-2.952C209.7,409.011,206.4,410.736,201.912,408.051Z" transform="translate(-15.062 -18.905)"/><path class="cn" d="M203.618,409.958a20.822,20.822,0,0,1,2.447-.423,9.4,9.4,0,0,1-4.153-1.408A5.535,5.535,0,0,0,203.618,409.958Z" transform="translate(-15.062 -18.981)"/><path class="cn" d="M210.508,409.371a9.351,9.351,0,0,1,2.292.293,2.822,2.822,0,0,0,.985-1.748A7.549,7.549,0,0,1,210.508,409.371Z" transform="translate(-17.728 -18.905)"/><path class="cm" d="M212.828,398.254s2.515,1.429,3.9.58a2.256,2.256,0,0,0,.8-3.047C213.9,392.059,212.828,398.254,212.828,398.254Z" transform="translate(-18.447 -14.12)"/><path class="co" d="M214.7,395.43c-.577.2-.771,1.052-.431,1.905s1.085,1.385,1.662,1.186.771-1.052.431-1.905S215.279,395.231,214.7,395.43Z" transform="translate(-18.842 -14.406)"/><path class="cp" d="M214.7,395.43c-.577.2-.771,1.052-.431,1.905a2.464,2.464,0,0,0,.227.428,1.3,1.3,0,0,1,.158-1.342,1.461,1.461,0,0,1,1.249-.4,1.405,1.405,0,0,1,.148.035A1.293,1.293,0,0,0,214.7,395.43Z" transform="translate(-18.842 -14.406)"/><path class="cq" d="M216.068,397.574c.428.6-1.384,1.453-1.384,1.453l-.2-.555S215.638,396.972,216.068,397.574Z" transform="translate(-18.959 -15.14)"/><path class="co" d="M217.15,394.915s-1.2-1.761-2.615-.828-1.707,3.887-1.707,3.887,1.049-3.067,2.375-3.306,2.488,1.225,2.488,1.225l.286-.917-.622-.6Z" transform="translate(-18.447 -13.841)"/><path class="cm" d="M194.124,398.388c.483,1.5,3.07,2.189,4.8,1.288,1.935-1.009.778-2.362.778-2.362C196.333,393.927,193.719,397.13,194.124,398.388Z" transform="translate(-12.635 -14.556)"/><path class="co" d="M197.006,396.3c-.578.2-.771,1.052-.431,1.905s1.084,1.385,1.662,1.186.771-1.052.431-1.905S197.583,396.1,197.006,396.3Z" transform="translate(-13.356 -14.717)"/><path class="cp" d="M197.006,396.3c-.578.2-.771,1.052-.431,1.905a2.463,2.463,0,0,0,.226.428,1.3,1.3,0,0,1,.159-1.343,1.461,1.461,0,0,1,1.248-.4c.052.006.1.026.148.036A1.293,1.293,0,0,0,197.006,396.3Z" transform="translate(-13.356 -14.718)"/><path class="cq" d="M197.84,398.545c.389.625-1.436,1.368-1.436,1.368l-.17-.565S197.451,397.921,197.84,398.545Z" transform="translate(-13.302 -15.483)"/><path class="co" d="M195.992,395.049a2.151,2.151,0,0,0-2.3,1.753l-.747-.349-.371.892,1.042.351s1.144-1.782,2.743-1.676a6.293,6.293,0,0,1,3.115,1.41A3.781,3.781,0,0,0,195.992,395.049Z" transform="translate(-12.167 -14.284)"/><path class="co" d="M212.357,389.4l.252.9a4.6,4.6,0,0,1,3.716.22l-.073-.576C214.688,388.668,212.357,389.4,212.357,389.4Z" transform="translate(-18.301 -12.18)"/><path class="co" d="M196.762,391.655l.353.526a4.09,4.09,0,0,1,3.513-1l.164-.784S198.045,390.134,196.762,391.655Z" transform="translate(-13.466 -12.608)"/><path class="h" d="M197.216,368.716c-5.478.249-13.313,4.259-11.35,18.9,0,0,1.844,2.091,2.192.187.4-2.167.8-9.7,2.767-11.059,3.186-2.2,4.193.608,9.212.686,2.585.04,4.07-3.817,7.531-1.607,5.362,3.425,6.251,10.806,6.251,10.806C213.9,370.245,202.081,368.494,197.216,368.716Z" transform="translate(-9.991 -4.821)"/><path class="cr" d="M213.6,370.867a12.744,12.744,0,0,1,2.47,5.621c.063.037.126.072.19.113a11.267,11.267,0,0,1,2.271,1.933,17.747,17.747,0,0,0-1.067-5.19A13.893,13.893,0,0,0,213.6,370.867Z" transform="translate(-18.687 -5.599)"/><path class="cs" d="M209.432,394.39l.54,1.969a19.678,19.678,0,0,1,5.3-1.064,15.455,15.455,0,0,1,4.954.022l-.125-2.362C215.241,392.466,209.432,394.39,209.432,394.39Z" transform="translate(-17.394 -13.504)"/><path class="cs" d="M190.643,394.5l.125,2.363a15.271,15.271,0,0,1,4.916-.472,19.746,19.746,0,0,1,5.381.577l.338-2.009S194.946,393.6,190.643,394.5Z" transform="translate(-11.568 -13.977)"/><path class="ct" d="M213.353,391.3l-.621-.032a23.129,23.129,0,0,0-10.768,1.784,11.246,11.246,0,0,0-2.93.087,22.99,22.99,0,0,0-10.677-.76l-.609.088-.988.3-2.217,2.467-.033.871,1.031-.395,1.443-1.12.824.033a12.651,12.651,0,0,0,1.738,5.595c.64.966,2.111,1.462,4.055,1.373l.228-.013c1.877-.127,4.151-.807,4.707-2a24.711,24.711,0,0,0,1.354-5.171,9.878,9.878,0,0,1,1.458-.06,24.8,24.8,0,0,0,1.906,5.015c.686,1.138,3.046,1.607,4.948,1.562.077,0,.155,0,.23-.008,1.966-.09,3.392-.716,3.933-1.737a12.5,12.5,0,0,0,1.154-5.81l.731.144.014-2.149-.911-.058Zm-16.15,7.682c-.184.4-1.632,1.05-3.481,1.175-1.441.095-2.595-.18-2.943-.706a12.233,12.233,0,0,1-1.565-5.752,21.634,21.634,0,0,1,9.187.727A22.593,22.593,0,0,1,197.2,398.984Zm13.843-.455c-.3.556-1.423.939-2.884.972-1.873.044-3.4-.474-3.626-.851a22.637,22.637,0,0,1-1.687-4.424,22.085,22.085,0,0,1,9.161-1.565A12.03,12.03,0,0,1,211.046,398.529Z" transform="translate(-9.667 -12.913)"/><path class="cr" d="M205.141,368.867a18.285,18.285,0,0,0-3.221-.151c-.386.017-.784.056-1.19.113.273.163.542.333.8.517,2.294,1.6,4.7,4.462,5.3,7.348a9.691,9.691,0,0,1,2.643-1.461,13.611,13.611,0,0,0-3.886-5.987C205.446,369.113,205.292,368.993,205.141,368.867Z" transform="translate(-14.696 -4.821)"/><path class="cu" d="M213.872,391.3l-.621-.032a23.129,23.129,0,0,0-10.768,1.784,11.246,11.246,0,0,0-2.929.087,22.99,22.99,0,0,0-10.677-.76l-.609.088-.988.3-1.095,1.218c6.146-2.322,11.623.015,14.93-.132,2.989-.133,5.832-2.426,13.666-2.128l0-.362-.911-.058Z" transform="translate(-10.186 -12.913)"/><path class="cv" d="M184.543,396.09l-.033.871,1.031-.394,1.443-1.12-.224-1.823Z" transform="translate(-9.667 -13.772)"/><path class="i" d="M210.392,401.121c-1.7-1.066-2.461-3.77-2.461-3.77-1.676.064-3.519,6.276,0,6.262C211,403.6,211.854,402.036,210.392,401.121Z" transform="translate(-16.307 -15.111)"/><path class="cw" d="M208.664,398.557c-.422.044-.843.107-1.263.18a7.911,7.911,0,0,0,1.745,3,11.52,11.52,0,0,0,1.618-.247A6.572,6.572,0,0,1,208.664,398.557Z" transform="translate(-16.764 -15.544)"/><path class="e" d="M205.992,404.379a1.844,1.844,0,0,0,1.96,1.741c2.368-.01,3.411-.941,3.1-1.787A7.674,7.674,0,0,1,205.992,404.379Z" transform="translate(-16.327 -17.618)"/><path class="e" d="M196.358,442.585h17.8a7.962,7.962,0,0,1,.57-3.027c1.476-3.718.131-5.649-2.164-8.581-.269-.344-.529-.681-.784-1.02-1.7-1.03-3.182-2.414-3.512-4.13-2.315-.016-5.818-.289-9.707-.153v0c-.083,0-.169.008-.253.012-.216.008-.435.019-.653.03a14.7,14.7,0,0,1-4.168,5.714c.681,2.846,1.461,5.686,2.068,8.438A26,26,0,0,0,196.358,442.585Z" transform="translate(-12.45 -25.269)"/><path class="cx" d="M211.782,429.96c-1.7-1.03-3.182-2.414-3.512-4.13-.615,0-1.316-.027-2.084-.054a2.969,2.969,0,0,1-1.221,1.129,4.054,4.054,0,0,1-2.31.327,3.682,3.682,0,0,1-2.591-1.588q-.739.008-1.5.034v0c-.083,0-.169.008-.253.012-.216.008-.435.019-.653.029a14.7,14.7,0,0,1-4.168,5.714c.681,2.846,1.461,5.686,2.068,8.438.444,2.011,1.361,4.081,1.893,6.161q1.813.174,3.677.177a37.614,37.614,0,0,0,13.132-2.351,8.14,8.14,0,0,1,.474-4.293c1.476-3.718.131-5.649-2.164-8.581C212.3,430.636,212.038,430.3,211.782,429.96Z" transform="translate(-12.45 -25.271)"/><path class="f" d="M215.385,434.64a65.662,65.662,0,0,0-4.965-8.315.9.9,0,0,0-.68-.37c-.916-.059-2.963-.19-3.116-.193.721,10.656-5.078,8.59-8.988-.278-2.164.1-6.83.77-7.2,1.544,0,0,3.694,11.993,4.181,18.71a38.277,38.277,0,0,0,5.562.408,37.46,37.46,0,0,0,15.122-3.153l-.531-1.49S217.424,438.832,215.385,434.64Z" transform="translate(-11.504 -25.214)"/><path class="g" d="M216.357,439.1c-.2-.4-.4-.8-.609-1.2.575,2.615,1.376,4.8-2.4,6.071a26.71,26.71,0,0,1-9.76.942c-3.034-.213-6.316-1.032-8.4-3.229a9.943,9.943,0,0,1-1.615-2.35A71.63,71.63,0,0,1,195.59,450.2a38.281,38.281,0,0,0,5.562.408,37.46,37.46,0,0,0,15.122-3.153l-.531-1.49S218.4,443.29,216.357,439.1Z" transform="translate(-12.476 -29.672)"/><path class="cy" d="M207.943,423.372s-.141,1.65-2.5,1.574a3.35,3.35,0,0,1-3.076-1.88,4.428,4.428,0,0,0-2.334,4.929c.75,3.352,5.716-1.626,5.716-1.626s5,4.04,5.524,1.423S207.943,423.372,207.943,423.372Z" transform="translate(-14.442 -24.346)"/><path class="cz" d="M200.842,407.188a14.621,14.621,0,0,0,5.9,1.124,11.886,11.886,0,0,0,4.82-1.488s-1.136,2.105-4.613,2.369A7.958,7.958,0,0,1,200.842,407.188Z" transform="translate(-14.731 -18.513)"/><path class="da" d="M200.842,407.188s1.345,4.355,5.7,4.275,5.021-4.639,5.021-4.639.07,5.173-4.892,5.494C201.679,412.64,200.842,407.188,200.842,407.188Z" transform="translate(-14.731 -18.513)"/></g></svg>