<svg xmlns="http://www.w3.org/2000/svg" xmlns:xlink="http://www.w3.org/1999/xlink" width="21.662" height="33.723" viewBox="0 0 21.662 33.723"><defs><style>.a{fill:url(#a);}</style><linearGradient id="a" x1="0.5" x2="0.5" y2="1" gradientUnits="objectBoundingBox"><stop offset="0" stop-color="#3b7ded"/><stop offset="1" stop-color="#183377"/></linearGradient></defs><g transform="translate(1472.774 -3113.377)"><path class="a" d="M-1451.119,3122.733a19.763,19.763,0,0,1-.128,3.189,5.547,5.547,0,0,1-.788,1.936c-.751,1.167-1.516,2.324-2.247,3.5a3.474,3.474,0,0,1-1.226,1.22c-.518.3-1.021.626-1.545.915a.638.638,0,0,0-.375.663c.145,3.458.277,2.057.415,5.516.088,2.2.18,4.407.266,6.611.019.495-.205.785-.6.812-.412.028-.683-.237-.707-.761-.083-1.794-.149-3.589-.222-5.385-.147-3.634-.3-2.407-.437-6.041-.013-.35-.124-.412-.418-.233s-.581.337-.879.492c-.431.226-.8.149-.994-.192a.668.668,0,0,1,.347-.948c1.277-.737,2.55-1.484,3.845-2.189a4.35,4.35,0,0,0,1.732-1.669c.613-1.044,1.3-2.044,1.966-3.058a3.959,3.959,0,0,0,.663-2.191c.008-1.651.02-3.3,0-4.952a2.018,2.018,0,0,0-1.856-2.126c-1.7-.278-3.4-.543-5.1-.817a.935.935,0,0,0-.475.01.784.784,0,0,0-.579.742.655.655,0,0,0,.494.686c1.278.5,2.552,1.011,3.826,1.521.7.281.788.426.732,1.191q-.073,1-.136,2.01a.657.657,0,0,1-.536.7.612.612,0,0,1-.746-.457c-.108-.338-.3-.185-.476-.1a10.4,10.4,0,0,0-3.741,3.1,7.02,7.02,0,0,0-1.468,3,4.028,4.028,0,0,0-.028,1.134c.045.476-.17.795-.56.841-.366.043-.658-.2-.729-.655a5.866,5.866,0,0,1,.726-3.5,10.458,10.458,0,0,1,.861-1.423c.076-.109.294-.236.064-.392-.189-.128-.338-.125-.5.11a2.4,2.4,0,0,1-2.771,1.074,2.251,2.251,0,0,1-1.186-.784.344.344,0,0,0-.516-.111,1.848,1.848,0,0,1-2.131-.2c-.484-.352-.954-.724-1.421-1.1a.664.664,0,0,1-.178-.991.661.661,0,0,1,.977-.042q.686.509,1.353,1.044c.262.21.531.328.832.1.283-.21.252-.488.147-.789-.3-.867-.594-1.738-.885-2.609a2.3,2.3,0,0,1-.116-.465.6.6,0,0,1,.412-.694.6.6,0,0,1,.764.258,2.944,2.944,0,0,1,.266.6c.436,1.269.856,2.543,1.3,3.809a1.068,1.068,0,0,0,1.067.756,1.1,1.1,0,0,0,1.06-.711,1,1,0,0,0,.044-.641q-.52-2.369-1.028-4.74c-.117-.548.078-.921.5-1,.382-.071.716.215.827.728.3,1.381.591,2.763.886,4.145.165.774.681,1.172,1.342,1.036a1.179,1.179,0,0,0,.884-1.508c-.187-.96-.379-1.919-.558-2.881a.746.746,0,0,0-.239-.444,2.05,2.05,0,0,1-.446-2.625c.177-.323.073-.418-.2-.543a1.729,1.729,0,0,0-2.157.37,3.465,3.465,0,0,0-.309.311,1.115,1.115,0,0,1-1.35.4,1.578,1.578,0,0,0-1.844.663c-.2.271-.378.555-.574.828a.716.716,0,0,1-1.086.282,1.413,1.413,0,0,0-1.1-.147,1.417,1.417,0,0,0-.97,1.087,20.279,20.279,0,0,0-.387,4.525,7.886,7.886,0,0,0,.63,3.267c.878,2.1,1.735,4.212,2.727,6.264a1.837,1.837,0,0,1,.189.929c-.255,4.52-.5,4.18-.755,8.7-.042.758-.078,1.517-.118,2.275a4.187,4.187,0,0,1-.04.523.647.647,0,0,1-.7.586.621.621,0,0,1-.586-.689c.027-.919.074-1.838.125-2.757.246-4.462.495-4.064.747-8.525a1.319,1.319,0,0,0-.149-.673c-1.2-2.442-2.177-4.976-3.194-7.493a2.415,2.415,0,0,1-.183-.936c.006-1.212-.012-2.425.006-3.637a11.288,11.288,0,0,1,.494-2.929,2.592,2.592,0,0,1,3.008-1.827.642.642,0,0,0,.762-.3,2.972,2.972,0,0,1,3.1-1.353.517.517,0,0,0,.5-.187,3.042,3.042,0,0,1,3.259-.94c.259.077.367-.069.5-.237a2.936,2.936,0,0,1,2.228-1.227,2.722,2.722,0,0,1,2.9,1.88,1.586,1.586,0,0,0,1.571,1.239,3.51,3.51,0,0,1,3.33,3.909c-.009.175,0,.351,0,.526Zm-5.645-1.291a.3.3,0,0,0-.2-.36c-.717-.283-1.433-.572-2.15-.857-.22-.088-.294-.017-.246.217.131.642.259,1.284.377,1.929.05.274.172.293.39.164a8.554,8.554,0,0,1,1.577-.744A.325.325,0,0,0-1456.764,3121.442Zm-.623-5.424c.225.045.233-.115.133-.363a1.458,1.458,0,0,0-1.337-.965,1.6,1.6,0,0,0-1.551.787c-.036.057-.073.149-.051.2.044.1.152.055.232.039a2.661,2.661,0,0,1,.912.039C-1458.531,3115.832-1458.014,3115.918-1457.387,3116.018Z"/></g></svg>