<svg xmlns="http://www.w3.org/2000/svg" width="138" height="138" viewBox="0 0 138 138"><defs><style>.a{fill:#fc4242;}.b{fill:#e4e4e4;}.c{fill:#ececec;}.d{fill:#00d17d;}.e{fill:#03c577;}.f{fill:#ffb555;}.g{fill:#e8a146;}.h{fill:#eee;}.i{fill:#fff;}</style></defs><g transform="translate(-522 -3015)"><g transform="translate(522 3015)"><circle class="a" cx="69" cy="69" r="69"/></g><g transform="translate(6007.271 1752.529)"><path class="b" d="M-5379.618,1322.659a1.148,1.148,0,0,0-.454-.915l-34.025-25.812a3.608,3.608,0,0,0-4.347,0l-34.025,25.812a1.148,1.148,0,0,0-.454.915v3.52h73.306Z" transform="translate(0 -3.758)"/><path class="c" d="M-5361.692,1419.87v-31.458l-16.632-12.618h-32.848l-16.632,12.618v31.458h66.113Z" transform="translate(-21.523 -72.81)"/><path class="d" d="M-5356.355,1384.881h-61.216a1.148,1.148,0,0,0-1.148,1.148v39.178a1.148,1.148,0,0,0,1.148,1.148h61.216a1.148,1.148,0,0,0,1.148-1.148v-39.178A1.149,1.149,0,0,0-5356.355,1384.881Z" transform="translate(-29.307 -80.596)"/><path class="e" d="M-5331.946,1425.207a4.979,4.979,0,0,1-4.974-4.974,1.148,1.148,0,0,0-1.148-1.148h-39.178a1.147,1.147,0,0,0-1.147,1.148,4.979,4.979,0,0,1-4.974,4.974,1.148,1.148,0,0,0-1.148,1.148v17.14a1.148,1.148,0,0,0,1.148,1.148,4.98,4.98,0,0,1,4.974,4.974,1.148,1.148,0,0,0,1.147,1.148h39.178a1.148,1.148,0,0,0,1.148-1.148,4.979,4.979,0,0,1,4.974-4.974,1.148,1.148,0,0,0,1.148-1.148v-17.141A1.148,1.148,0,0,0-5331.946,1425.207Z" transform="translate(-58.614 -109.902)"/><circle class="f" cx="11.019" cy="11.019" r="11.019" transform="translate(-5427.29 1314.003)"/><path class="g" d="M-5269.734,1469.072A12.181,12.181,0,0,1-5281.9,1456.9a12.181,12.181,0,0,1,12.167-12.167,12.18,12.18,0,0,1,12.166,12.167A12.18,12.18,0,0,1-5269.734,1469.072Zm0-22.038a9.883,9.883,0,0,0-9.871,9.871,9.882,9.882,0,0,0,9.871,9.871,9.882,9.882,0,0,0,9.871-9.871A9.883,9.883,0,0,0-5269.734,1447.034Z" transform="translate(-146.536 -131.882)"/><path class="h" d="M-5218.448,1477.736a1.3,1.3,0,0,1-1.3-1.3,1.3,1.3,0,0,1,1.3-1.3H-5216a1.148,1.148,0,0,0,1.148-1.148,1.148,1.148,0,0,0-1.148-1.148h-1.3v-1.3a1.148,1.148,0,0,0-1.148-1.148,1.148,1.148,0,0,0-1.148,1.148v1.49a3.6,3.6,0,0,0-2.448,3.408,3.6,3.6,0,0,0,3.6,3.6,1.3,1.3,0,0,1,1.3,1.3,1.3,1.3,0,0,1-1.3,1.3h-2.448a1.148,1.148,0,0,0-1.148,1.148,1.148,1.148,0,0,0,1.148,1.148h1.3v1.3a1.148,1.148,0,0,0,1.147,1.148,1.148,1.148,0,0,0,1.148-1.148v-1.49a3.6,3.6,0,0,0,2.448-3.407A3.6,3.6,0,0,0-5218.448,1477.736Z" transform="translate(-197.823 -153.862)"/><path class="c" d="M-5380.208,1479.089a1.147,1.147,0,0,0-1.163.028l-71.01,44.075a1.147,1.147,0,0,0-.5,1.29,1.147,1.147,0,0,0,1.1.833h71.011a1.147,1.147,0,0,0,1.147-1.148v-44.075A1.147,1.147,0,0,0-5380.208,1479.089Z" transform="translate(0 -161.191)"/><path class="i" d="M-5380.16,1523.216l-71.011-44.075a1.158,1.158,0,0,0-1.753.975v44.075a1.148,1.148,0,0,0,1.147,1.148h71.011a1.159,1.159,0,0,0,1.1-.812A1.159,1.159,0,0,0-5380.16,1523.216Z" transform="translate(0 -161.215)"/><path class="i" d="M-5149.511,1480.116a1.158,1.158,0,0,0-1.753-.975l-33.1,20.546,34.855,21.634Z" transform="translate(-230.107 -161.215)"/><g transform="translate(-5444.354 1290.818)"><path class="f" d="M-5113.386,1293.267h-1.3v-1.3a1.148,1.148,0,0,0-1.148-1.148,1.148,1.148,0,0,0-1.148,1.148v1.3h-1.3a1.148,1.148,0,0,0-1.148,1.148,1.148,1.148,0,0,0,1.148,1.148h1.3v1.3a1.148,1.148,0,0,0,1.148,1.148,1.148,1.148,0,0,0,1.148-1.148v-1.3h1.3a1.148,1.148,0,0,0,1.147-1.148A1.148,1.148,0,0,0-5113.386,1293.267Z" transform="translate(5158.609 -1290.818)"/><path class="f" d="M-5387.022,1318.92h-1.3v-1.3a1.148,1.148,0,0,0-1.148-1.148,1.148,1.148,0,0,0-1.147,1.148v1.3h-1.3a1.148,1.148,0,0,0-1.148,1.148,1.148,1.148,0,0,0,1.148,1.148h1.3v1.3a1.148,1.148,0,0,0,1.147,1.148,1.148,1.148,0,0,0,1.148-1.148v-1.3h1.3a1.148,1.148,0,0,0,1.147-1.148A1.148,1.148,0,0,0-5387.022,1318.92Z" transform="translate(5393.068 -1312.798)"/><path class="f" d="M-5044.977,1318.92h-1.3v-1.3a1.148,1.148,0,0,0-1.148-1.148,1.148,1.148,0,0,0-1.148,1.148v1.3h-1.3a1.148,1.148,0,0,0-1.147,1.148,1.148,1.148,0,0,0,1.147,1.148h1.3v1.3a1.148,1.148,0,0,0,1.148,1.148,1.148,1.148,0,0,0,1.148-1.148v-1.3h1.3a1.148,1.148,0,0,0,1.148-1.148A1.148,1.148,0,0,0-5044.977,1318.92Z" transform="translate(5099.995 -1312.798)"/><path class="f" d="M-5318.612,1293.267h-1.3v-1.3a1.148,1.148,0,0,0-1.147-1.148,1.148,1.148,0,0,0-1.147,1.148v1.3h-1.3a1.147,1.147,0,0,0-1.147,1.148,1.147,1.147,0,0,0,1.147,1.148h1.3v1.3a1.148,1.148,0,0,0,1.147,1.148,1.147,1.147,0,0,0,1.147-1.148v-1.3h1.3a1.147,1.147,0,0,0,1.147-1.148A1.148,1.148,0,0,0-5318.612,1293.267Z" transform="translate(5334.453 -1290.818)"/></g></g></g></svg>