<svg xmlns="http://www.w3.org/2000/svg" xmlns:xlink="http://www.w3.org/1999/xlink" width="80" height="73" viewBox="0 0 80 73"><defs><style>.a{fill:url(#a);}.b{fill:#fff;stroke:#fff;fill-rule:evenodd;}.c{filter:url(#b);}</style><linearGradient id="a" x1="0.5" x2="0.5" y2="1" gradientUnits="objectBoundingBox"><stop offset="0" stop-color="#3b7ded"/><stop offset="1" stop-color="#183377"/></linearGradient><filter id="b" x="0" y="0" width="80" height="73" filterUnits="userSpaceOnUse"><feOffset dy="3" input="SourceAlpha"/><feGaussianBlur stdDeviation="3" result="c"/><feFlood flood-opacity="0.161"/><feComposite operator="in" in2="c"/><feComposite in="SourceGraphic"/></filter></defs><g transform="translate(-677 -1908)"><g class="c" transform="matrix(1, 0, 0, 1, 677, 1908)"><rect class="a" width="62" height="55" rx="8" transform="translate(9 6)"/></g><path class="b" d="M8.627,19.939A8.775,8.775,0,1,0,17.4,11.164a8.785,8.785,0,0,0-8.775,8.775Zm25.792,2.517a.432.432,0,0,1-.152.318L31.213,25.38a.437.437,0,0,1-.677-.158l-1.611-3.75a.431.431,0,1,1,.792-.341l1.161,2.7A14.024,14.024,0,0,0,19.669,6.092a.431.431,0,1,1,.14-.851A14.89,14.89,0,0,1,31.8,23.747l1.91-1.63a.431.431,0,0,1,.711.315v.022ZM17.4,10.3a9.637,9.637,0,1,1-9.637,9.637A9.648,9.648,0,0,1,17.4,10.3ZM8.553,9.05A14.01,14.01,0,0,0,4.273,24.9a.432.432,0,0,1-.251.555.424.424,0,0,1-.152.028.434.434,0,0,1-.405-.278A14.889,14.889,0,0,1,13.5,5.567l-2.371-.84a.431.431,0,0,1,.289-.813l3.785,1.343a.433.433,0,0,1,.2.664L12.967,9.193a.43.43,0,0,1-.344.173.423.423,0,0,1-.258-.086.431.431,0,0,1-.088-.6l1.765-2.365A14.054,14.054,0,0,0,8.553,9.05Zm19.71,19.778a.432.432,0,0,1,.668.546A14.976,14.976,0,0,1,26.8,31.5a14.8,14.8,0,0,1-9.372,3.337q-.667,0-1.343-.06A14.809,14.809,0,0,1,6.908,30.5l.455,2.466a.431.431,0,0,1-.344.5.394.394,0,0,1-.08.007.43.43,0,0,1-.422-.353l-.73-3.948a.431.431,0,0,1,.474-.507l4.054.479a.431.431,0,0,1-.1.856L7.283,29.66a14.042,14.042,0,0,0,20.979-.833ZM13.881,22.645a.432.432,0,0,1,.838-.209,2.663,2.663,0,0,0,2.8,1.824,3.135,3.135,0,0,0,2.212-.853,1.407,1.407,0,0,0,.329-1.152c-.126-1.044-.964-1.637-2.717-1.925C15.32,20,14.259,19.109,14.19,17.686a2.818,2.818,0,0,1,2.383-2.835,3.557,3.557,0,0,1,.4-.065v-.967a.431.431,0,1,1,.862,0v.962a3.338,3.338,0,0,1,2.814,2.052.431.431,0,1,1-.8.334,2.64,2.64,0,0,0-3.087-1.476,1.981,1.981,0,0,0-1.711,1.952c.047.974.841,1.575,2.428,1.835.786.129,3.174.521,3.435,2.673a2.282,2.282,0,0,1-.533,1.82A3.779,3.779,0,0,1,17.834,25.1v.956a.431.431,0,1,1-.862,0v-.963A3.379,3.379,0,0,1,13.881,22.645Z" transform="translate(699.92 1922.138)"/></g></svg>