<svg xmlns="http://www.w3.org/2000/svg" xmlns:xlink="http://www.w3.org/1999/xlink" width="482" height="566.355" viewBox="0 0 482 566.355"><defs><style>.a,.b,.h{fill:none;}.a,.b{stroke:#888;stroke-dasharray:6;}.b{opacity:0.47;}.c{fill:#fff;}.d{fill:#efefef;}.e{fill:#bebebe;}.f{fill:#c7c7c7;}.g{stroke:none;}.i{filter:url(#a);}</style><filter id="a" x="86" y="0" width="309.916" height="566.355" filterUnits="userSpaceOnUse"><feOffset input="SourceAlpha"/><feGaussianBlur stdDeviation="9" result="b"/><feFlood flood-opacity="0.098"/><feComposite operator="in" in2="b"/><feComposite in="SourceGraphic"/></filter></defs><g transform="translate(-719 -1602)"><g class="a" transform="translate(784 1709)"><circle class="g" cx="176" cy="176" r="176"/><circle class="h" cx="176" cy="176" r="175.5"/></g><g class="b" transform="translate(719 1644)"><circle class="g" cx="241" cy="241" r="241"/><circle class="h" cx="241" cy="241" r="240.5"/></g><g transform="translate(832 1629)"><g transform="translate(0)"><g class="i" transform="matrix(1, 0, 0, 1, -113, -27)"><path class="c" d="M27.347,512.356a25,25,0,0,1-25-25V173.121A1.548,1.548,0,0,1,0,171.8V140.185a1.548,1.548,0,0,1,2.348-1.325v-8.335A1.548,1.548,0,0,1,0,129.2V96.941a1.548,1.548,0,0,1,2.348-1.325V81.108A1.549,1.549,0,0,1,0,79.783v-15.6a1.548,1.548,0,0,1,2.348-1.325V25a25,25,0,0,1,25-25H229.32a25,25,0,0,1,25,25v81.714h.05a1.546,1.546,0,0,1,1.545,1.545V165a1.546,1.546,0,0,1-1.545,1.545h-.05V487.356a25,25,0,0,1-25,25Z" transform="translate(113 27)"/></g><path class="d" d="M214.242,494.332H16a16,16,0,0,1-16-16V16A16,16,0,0,1,16,0H66.634a7.84,7.84,0,0,0,.178,15.679h64.559A7.839,7.839,0,0,0,131.55,0l82.693,0a16,16,0,0,1,16,16V478.333a16,16,0,0,1-16,16Z" transform="translate(13.146 10.601)"/><g transform="translate(78.127 12.685)"><rect class="e" width="29.37" height="3.74" rx="1.87" transform="translate(35.18 2.623)"/><circle class="f" cx="4.537" cy="4.537" r="4.537"/><circle class="f" cx="4.537" cy="4.537" r="4.537" transform="translate(20.739 0)"/></g></g></g></g></svg>