<svg xmlns="http://www.w3.org/2000/svg" width="138" height="138" viewBox="0 0 138 138"><defs><style>.a{fill:#ffb555;}.b{fill:#fff;}.c{fill:#3b7ded;}.d{fill:#6c63ff;}.e{fill:#183377;}.f{fill:#fdfefe;}.g{fill:#888;}</style></defs><g transform="translate(-2194 -5522)"><circle class="a" cx="69" cy="69" r="69" transform="translate(2194 5522)"/><path class="b" d="M2688.414,715.013a37.2,37.2,0,1,1-37.207-37.2A37.2,37.2,0,0,1,2688.414,715.013Z" transform="translate(-388.209 4875.986)"/><path class="c" d="M2643.424,670.026a37.2,37.2,0,1,1-37.2,37.2,37.2,37.2,0,0,1,37.2-37.2m0-3.27a40.748,40.748,0,0,0-8.153.822,40.445,40.445,0,0,0-20.465,11.033,40.539,40.539,0,0,0-8.673,12.864,40.325,40.325,0,0,0-2.36,7.6,40.849,40.849,0,0,0,0,16.307,40.265,40.265,0,0,0,6.093,14.478,40.589,40.589,0,0,0,17.8,14.66,40.294,40.294,0,0,0,7.6,2.36,40.825,40.825,0,0,0,16.307,0,40.266,40.266,0,0,0,14.48-6.092,40.578,40.578,0,0,0,14.661-17.8,40.279,40.279,0,0,0,2.36-7.6,40.837,40.837,0,0,0,0-16.307,40.277,40.277,0,0,0-6.092-14.478,40.587,40.587,0,0,0-17.806-14.66,40.32,40.32,0,0,0-7.6-2.36,40.767,40.767,0,0,0-8.154-.822Z" transform="translate(-380.426 4883.77)"/><rect class="d" width="1.666" height="21.159" transform="matrix(0.866, -0.5, 0.5, 0.866, 2262.221, 5592.373)"/><path class="e" d="M2702.532,764.308h0l0,0a.03.03,0,0,0-.009-.009l-12.361-12.8a1.879,1.879,0,1,0-2.73,2.568l12.408,12.846a.463.463,0,0,0,.1.075,1.865,1.865,0,0,0,2.6-2.677Z" transform="translate(-439.483 4824.589)"/><path class="e" d="M2760.252,790.64h-.018l-16.067,2a1.7,1.7,0,0,0-.946,3.073,1.719,1.719,0,0,0,1.338.315l16.125-2.012a.39.39,0,0,0,.109-.031,1.676,1.676,0,0,0,1.052-.649,1.7,1.7,0,0,0-1.594-2.7Z" transform="translate(-478.71 4796.549)"/><ellipse class="f" cx="2.154" cy="2.154" rx="2.154" ry="2.154" transform="translate(2261.431 5589.353)"/><path class="g" d="M2739.562,696.469h0a.955.955,0,0,1-.952-.952v-5.632a.955.955,0,0,1,.952-.952h0a.955.955,0,0,1,.952.952v5.632A.955.955,0,0,1,2739.562,696.469Z" transform="translate(-475.948 4868.153)"/><path class="g" d="M2804.1,728.723h0a.954.954,0,0,1,0-1.346l3.98-3.984a.955.955,0,0,1,1.346,0h0a.954.954,0,0,1,0,1.346l-3.98,3.984A.955.955,0,0,1,2804.1,728.723Z" transform="translate(-521.869 4844.086)"/><path class="g" d="M2829.432,803h0a.954.954,0,0,1,.951-.953l5.632-.006a.954.954,0,0,1,.953.951h0a.955.955,0,0,1-.951.953l-5.632.006A.955.955,0,0,1,2829.432,803Z" transform="translate(-539.899 4788.509)"/><path class="g" d="M2802.6,865.573h0a.955.955,0,0,1,1.346,0l3.989,3.976a.955.955,0,0,1,0,1.346h0a.954.954,0,0,1-1.346,0l-3.989-3.976A.955.955,0,0,1,2802.6,865.573Z" transform="translate(-520.813 4743.972)"/><path class="g" d="M2739.756,892.982h0a.955.955,0,0,1,.954.95l.011,5.632a.955.955,0,0,1-.95.954h0a.955.955,0,0,1-.954-.95l-.012-5.632A.955.955,0,0,1,2739.756,892.982Z" transform="translate(-476.086 4724.476)"/><path class="g" d="M2665.476,868.094h0a.955.955,0,0,1,0,1.346l-3.972,3.992a.955.955,0,0,1-1.346,0h0a.954.954,0,0,1,0-1.346l3.972-3.993A.954.954,0,0,1,2665.476,868.094Z" transform="translate(-420.513 4742.194)"/><path class="g" d="M2633.293,803.4h0a.955.955,0,0,1-.949.955l-5.632.018a.955.955,0,0,1-.955-.949h0a.954.954,0,0,1,.949-.955l5.632-.018A.955.955,0,0,1,2633.293,803.4Z" transform="translate(-396.485 4788.219)"/><path class="g" d="M2663.882,727.982h0a.955.955,0,0,1-1.346.005l-4-3.968a.955.955,0,0,1-.005-1.346h0a.955.955,0,0,1,1.346-.005l4,3.968A.954.954,0,0,1,2663.882,727.982Z" transform="translate(-419.37 4844.593)"/></g></svg>