<svg xmlns="http://www.w3.org/2000/svg" width="138" height="138" viewBox="0 0 138 138"><defs><style>.a{fill:#ffb555;}.b{fill:#183377;}.c{fill:#6c63ff;}.d{fill:#fc4242;}.e{fill:#262e3a;}.f{fill:#ecdcc7;}</style></defs><g transform="translate(1823 -645.253)"><g transform="translate(-1823 645.253)"><circle class="a" cx="69" cy="69" r="69"/><g transform="translate(32.175 31.209)"><path class="b" d="M-830.894,2207.153c-.612-.98-1.2-1.858-1.723-2.777-1.014-1.794-2.766-2.453-4.428-1.618a3.191,3.191,0,0,0-1.3,4.6,21.937,21.937,0,0,0,5.474,6.844,1.506,1.506,0,0,1,.576,1.554c-.215,1.742-.309,3.5-.484,5.245-.072.716.2,1.015.911,1.119,2.947.428,5.883.926,8.831,1.349a4.158,4.158,0,0,1,3.567,2.8c1.729,4.442,3.519,8.86,5.252,13.3a3.973,3.973,0,0,1-1.274,4.733,3.843,3.843,0,0,1-4.781-.041,5.774,5.774,0,0,1-1.468-2.125c-1.385-3.349-2.7-6.728-3.991-10.113a1.539,1.539,0,0,0-1.35-1.155c-3.7-.538-7.4-1.151-11.1-1.681a6.288,6.288,0,0,1-5.841-5.891,37.03,37.03,0,0,1,1.632-16.837c.793-2.306,1.911-4.364,4.192-5.488,1.858-.916,3.843-1.346,5.627.056,1.819,1.43,2.152,3.507,1.934,5.7C-830.641,2206.822-830.739,2206.908-830.894,2207.153Z" transform="translate(870.406 -2181.852)"/><path class="c" d="M-934.436,2235.763q0,4.758,0,9.516c0,1.564-.561,2.126-2.146,2.128q-9.633.008-19.267,0c-1.562,0-2.182-.6-2.184-2.127q-.012-9.631.008-19.261c0-1.354.6-1.929,1.988-1.931q9.8-.016,19.61-.005c1.409,0,1.992.613,2,2.051.011,3.21,0,6.42,0,9.631Z" transform="translate(958.039 -2200.311)"/><path class="d" d="M-934.71,2339.408c-1.158-.219-1.445-.952-1.39-1.954.046-.838-.012-1.681.006-2.521.026-1.2.466-1.642,1.688-1.655,1.949-.021,3.9-.006,5.848-.006q9.518,0,19.035,0c1.727,0,2.073.351,2.076,2.073,0,.8.009,1.6-.015,2.407-.009.3,0,.744-.174.863-1.109.752-.677,1.8-.463,2.683.537,2.217,1.22,4.4,1.847,6.594.22.771.709,1,1.524.994,5.963-.038,11.926-.021,17.889-.021h1.363v3.755h-25.278a11.175,11.175,0,0,0-3.6-10.412,10.768,10.768,0,0,0-8.345-2.794c-5.71.449-11.124,5.5-10.111,13.224h-5.4C-937.994,2347.992-936.339,2343.781-934.71,2339.408Z" transform="translate(942.75 -2284.464)"/><path class="e" d="M-701.061,2376.561a9.484,9.484,0,0,1,9.951-9.439,9.565,9.565,0,0,1,9.09,9.75,9.531,9.531,0,0,1-9.916,9.262A9.5,9.5,0,0,1-701.061,2376.561Zm9.566-3.729a3.778,3.778,0,0,0-3.828,3.618,3.781,3.781,0,0,0,3.709,3.967,3.83,3.83,0,0,0,3.854-3.738A3.836,3.836,0,0,0-691.5,2372.832Z" transform="translate(759.986 -2310.554)"/><path class="e" d="M-898.557,2386.133a9.487,9.487,0,0,1-9.458-9.478,9.5,9.5,0,0,1,9.625-9.541,9.5,9.5,0,0,1,9.4,9.655A9.5,9.5,0,0,1-898.557,2386.133Zm-3.739-9.6a3.822,3.822,0,0,0,3.7,3.883,3.825,3.825,0,0,0,3.881-3.82,3.816,3.816,0,0,0-3.7-3.763A3.834,3.834,0,0,0-902.3,2376.53Z" transform="translate(919.485 -2310.551)"/><path class="b" d="M-801.652,2127.481c-.772.133-1.558.228-2.323.414a10.978,10.978,0,0,0-2.053.679,2.223,2.223,0,0,0-1.451,2.766c.141,1.018.3,2.037.384,3.06a1.22,1.22,0,0,1-1.157,1.43,11.406,11.406,0,0,1-7.019-1c-1.86-.99-2.389-2.873-2.72-4.8a8.31,8.31,0,0,1,6.764-9.5A8.2,8.2,0,0,1-801.652,2127.481Z" transform="translate(850.193 -2120.429)"/><path class="d" d="M-736.875,2294.858l-7.2-20.977c-1.009.372-1.954.739-2.912,1.067-1.206.413-1.944-.03-2.207-1.288,2.648-.229,5.924,1.3,7.329-2.728a7.858,7.858,0,0,1,.4.8c.271.754.562,1.5.768,2.276.68,2.547,1.741,4.577,4.373,5.9,2.933,1.477,4.73,4.262,5.74,7.43a1.438,1.438,0,0,0,1.524,1.171,12.02,12.02,0,0,1,9.582,5.036,8.859,8.859,0,0,1,.7,1.047c.292.551.831,1.187.087,1.683-.17.113-.921-.4-1.229-.775a11.168,11.168,0,0,0-15.776-1.643C-736.053,2294.146-736.393,2294.449-736.875,2294.858Z" transform="translate(797.078 -2236.423)"/><path class="b" d="M-799.1,2228.373c-8.182-.351-13.973-4.456-17.874-11.47a2.568,2.568,0,0,1,.936-3.583,2.544,2.544,0,0,1,3.557,1.249c2.175,3.87,5.146,6.855,9.5,8.1a23.382,23.382,0,0,0,4.97.64c1.674.1,2.827.989,2.885,2.461a2.542,2.542,0,0,1-2.718,2.6C-798.256,2228.388-798.677,2228.373-799.1,2228.373Z" transform="translate(849.602 -2191.77)"/><path class="d" d="M-695.405,2262.756c-.274,1.24-.473,2.479-.833,3.668a1.608,1.608,0,0,1-1.979,1.122,4.927,4.927,0,0,1-4.207-4.717,4.921,4.921,0,0,1,4.234-4.924,1.615,1.615,0,0,1,1.976,1.141C-695.868,2260.241-695.676,2261.481-695.405,2262.756Z" transform="translate(761.036 -2226.365)"/><path class="f" d="M-800.388,2162.917a39.6,39.6,0,0,0,5,.294c2.224-.136,2.829-.565,2.588-3.258a19.835,19.835,0,0,0-.335-2.028,1.843,1.843,0,0,1,1.358-2.3,8.207,8.207,0,0,1,.865-.291c2.509-.611,2.356-.771,2.9,1.757a7.1,7.1,0,0,1-4.12,7.572A6.955,6.955,0,0,1-800.388,2162.917Z" transform="translate(836.536 -2147.042)"/></g></g></g></svg>