<svg xmlns="http://www.w3.org/2000/svg" width="138" height="138" viewBox="0 0 138 138"><defs><style>.a{fill:#00d17d;}.b{fill:#3b7ded;}.c{fill:#183377;}.d{fill:#ffb555;}.e{fill:#fff;}</style></defs><g transform="translate(-1281 -2592)"><g transform="translate(3104 1946.747)"><g transform="translate(-1823 645.253)"><circle class="a" cx="69" cy="69" r="69"/></g></g><g transform="translate(6462.411 1922.988)"><rect class="b" width="75.178" height="46.45" rx="5" transform="translate(-5150 731.165)"/><rect class="c" width="74.804" height="7.835" transform="translate(-5150 737.507)"/><rect class="d" width="18.095" height="9.514" rx="2" transform="translate(-5106.162 751.498)"/><path class="e" d="M-5060.661,698.409a34.218,34.218,0,0,1,24.278,10.3,3,3,0,0,1,.8,1.761,1.584,1.584,0,0,1-1.232,1.572,1.915,1.915,0,0,1-2.091-.644,31.483,31.483,0,0,0-7.681-5.69,31.326,31.326,0,0,0-36.252,5.212c-.177.174-.354.349-.534.52a1.836,1.836,0,0,1-2.795.137,1.855,1.855,0,0,1,.207-2.8,52.8,52.8,0,0,1,4.538-3.857A34.874,34.874,0,0,1-5060.661,698.409Z" transform="translate(-51.479 -2)"/><path class="e" d="M-5017.981,748.486c-.057,1.109-.382,1.71-1.116,2.03a1.865,1.865,0,0,1-2.074-.373,49.075,49.075,0,0,0-3.876-3.189,23.856,23.856,0,0,0-30.057,2.774,3.866,3.866,0,0,1-1.191.857,1.779,1.779,0,0,1-2.115-.749,1.8,1.8,0,0,1,.31-2.372,26.526,26.526,0,0,1,8.341-5.846,27.565,27.565,0,0,1,30.786,5.479A7.957,7.957,0,0,1-5017.981,748.486Z" transform="translate(-74.25 -35.142)"/><path class="e" d="M-5015.64,779.027a21.271,21.271,0,0,1,13.982,5.7c.138.125.259.267.388.4.945.987,1.021,2.071.2,2.875a1.894,1.894,0,0,1-2.8-.221,15.544,15.544,0,0,0-6.174-3.886,16.382,16.382,0,0,0-16.912,3.491c-.163.144-.32.294-.478.443a1.892,1.892,0,0,1-2.809.128,1.849,1.849,0,0,1,.212-2.8,19.346,19.346,0,0,1,9-5.219C-5019.273,779.5-5017.441,779.323-5015.64,779.027Z" transform="translate(-96.972 -67.579)"/><path class="e" d="M-4992.869,820.668a13,13,0,0,1,9.127,3.687c.991.958,1.092,2.045.3,2.871-.764.8-1.883.722-2.875-.2a9.386,9.386,0,0,0-13.062.016c-.986.914-2.1.979-2.873.169-.79-.832-.68-1.931.312-2.872A13.064,13.064,0,0,1-4992.869,820.668Z" transform="translate(-119.765 -101.452)"/><path class="e" d="M-4963.044,868.836a3.974,3.974,0,0,1-4.06,3.975,4,4,0,0,1-3.962-4,4.041,4.041,0,0,1,4.032-4.035A3.994,3.994,0,0,1-4963.044,868.836Z" transform="translate(-145.555 -137.334)"/></g></g></svg>