<svg xmlns="http://www.w3.org/2000/svg" xmlns:xlink="http://www.w3.org/1999/xlink" width="80" height="73" viewBox="0 0 80 73"><defs><style>.a{fill:url(#a);}.b{fill:#fff;}.c{filter:url(#b);}</style><linearGradient id="a" x1="0.5" x2="0.5" y2="1" gradientUnits="objectBoundingBox"><stop offset="0" stop-color="#3b7ded"/><stop offset="1" stop-color="#183377"/></linearGradient><filter id="b" x="0" y="0" width="80" height="73" filterUnits="userSpaceOnUse"><feOffset dy="3" input="SourceAlpha"/><feGaussianBlur stdDeviation="3" result="c"/><feFlood flood-opacity="0.161"/><feComposite operator="in" in2="c"/><feComposite in="SourceGraphic"/></filter></defs><g transform="translate(-1163 -1813)"><g class="c" transform="matrix(1, 0, 0, 1, 1163, 1813)"><rect class="a" width="62" height="55" rx="8" transform="translate(9 6)"/></g><g transform="translate(1125.848 1825.294)"><path class="b" d="M93.3,16.152A16.152,16.152,0,1,0,65.97,27.8V41.168a1.242,1.242,0,0,0,1.8,1.112l9.384-4.693,9.384,4.692a1.243,1.243,0,0,0,1.8-1.112V27.8A16.108,16.108,0,0,0,93.3,16.152Zm-29.82,0A13.667,13.667,0,1,1,77.152,29.82,13.681,13.681,0,0,1,63.485,16.152ZM85.85,39.158l-8.142-4.071a1.242,1.242,0,0,0-1.112,0l-8.142,4.071v-9.4a16.123,16.123,0,0,0,17.395,0Z" transform="translate(0)"/><path class="b" d="M124.848,76.629a1.242,1.242,0,0,0,1.912,1.389l5.413-3.932,5.413,3.932a1.242,1.242,0,0,0,1.912-1.389l-2.071-6.363,5.413-3.932a1.242,1.242,0,0,0-.727-2.248h-6.69l-2.071-6.363a1.242,1.242,0,0,0-2.364,0l-2.071,6.363h-6.684a1.242,1.242,0,0,0-.731,2.248l5.413,3.932Zm1.209-10.058h3.769a1.242,1.242,0,0,0,1.182-.858l1.165-3.585,1.165,3.585a1.243,1.243,0,0,0,1.182.858h3.769l-3.051,2.216a1.243,1.243,0,0,0-.451,1.389l1.165,3.585L132.9,71.544a1.242,1.242,0,0,0-1.461,0l-3.049,2.216,1.165-3.585a1.242,1.242,0,0,0-.448-1.389Z" transform="translate(-55.02 -52.152)"/></g></g></svg>