<svg xmlns="http://www.w3.org/2000/svg" xmlns:xlink="http://www.w3.org/1999/xlink" width="80" height="73" viewBox="0 0 80 73"><defs><style>.a{fill:url(#a);}.b{fill:#fff;}.c{filter:url(#b);}</style><linearGradient id="a" x1="0.5" x2="0.5" y2="1" gradientUnits="objectBoundingBox"><stop offset="0" stop-color="#3b7ded"/><stop offset="1" stop-color="#183377"/></linearGradient><filter id="b" x="0" y="0" width="80" height="73" filterUnits="userSpaceOnUse"><feOffset dy="3" input="SourceAlpha"/><feGaussianBlur stdDeviation="3" result="c"/><feFlood flood-opacity="0.161"/><feComposite operator="in" in2="c"/><feComposite in="SourceGraphic"/></filter></defs><g transform="translate(-677 -1723)"><g class="c" transform="matrix(1, 0, 0, 1, 677, 1723)"><rect class="a" width="62" height="55" rx="8" transform="translate(9 6)"/></g><g transform="translate(693.667 1733.667)"><path class="b" d="M36.667,8.333H35V6.667a1.667,1.667,0,1,0-3.333,0V8.333H15V6.667a1.667,1.667,0,1,0-3.333,0V8.333H10a5,5,0,0,0-5,5V36.667a5,5,0,0,0,5,5H36.667a5,5,0,0,0,5-5V13.333A5,5,0,0,0,36.667,8.333ZM10,11.667h1.667v1.667a1.667,1.667,0,1,0,3.333,0V11.667H31.667v1.667a1.667,1.667,0,1,0,3.333,0V11.667h1.667a1.667,1.667,0,0,1,1.667,1.667v5h-30v-5A1.667,1.667,0,0,1,10,11.667ZM36.667,38.333H10a1.667,1.667,0,0,1-1.667-1.667v-15h30v15A1.667,1.667,0,0,1,36.667,38.333Z" transform="translate(0 0)"/><path class="b" d="M21.18,18.074a1.667,1.667,0,0,0-2.35,0l-1.183,1.183-1.183-1.183a1.667,1.667,0,0,0-2.35,2.35L15.3,21.607,14.113,22.79a1.667,1.667,0,1,0,2.35,2.35l1.183-1.183L18.83,25.14a1.667,1.667,0,0,0,2.35-2.35L20,21.607l1.183-1.183A1.667,1.667,0,0,0,21.18,18.074Z" transform="translate(5.687 8.393)"/></g></g></svg>