<svg xmlns="http://www.w3.org/2000/svg" xmlns:xlink="http://www.w3.org/1999/xlink" width="80" height="73" viewBox="0 0 80 73"><defs><style>.a{fill:url(#a);}.b{fill:#fff;}.c{filter:url(#b);}</style><linearGradient id="a" x1="0.5" x2="0.5" y2="1" gradientUnits="objectBoundingBox"><stop offset="0" stop-color="#3b7ded"/><stop offset="1" stop-color="#183377"/></linearGradient><filter id="b" x="0" y="0" width="80" height="73" filterUnits="userSpaceOnUse"><feOffset dy="3" input="SourceAlpha"/><feGaussianBlur stdDeviation="3" result="c"/><feFlood flood-opacity="0.161"/><feComposite operator="in" in2="c"/><feComposite in="SourceGraphic"/></filter></defs><g transform="translate(-677 -1813)"><g class="c" transform="matrix(1, 0, 0, 1, 677, 1813)"><rect class="a" width="62" height="55" rx="8" transform="translate(9 6)"/></g><g transform="translate(698.075 1825.999)"><path class="b" d="M15.427,25.851a11.423,11.423,0,1,1,8.081-3.34A11.407,11.407,0,0,1,15.427,25.851Zm0-19.994a8.568,8.568,0,1,0,6.061,2.506,8.544,8.544,0,0,0-6.061-2.506ZM22.5,21.5h0Z" transform="translate(3.498 3.714)"/><path class="b" d="M15.6,16.025a1.435,1.435,0,0,1-1.012-.417L6.5,7.524A1.429,1.429,0,1,1,8.525,5.5l8.081,8.081a1.429,1.429,0,0,1-1.009,2.44Z" transform="translate(7.369 7.584)"/><path class="b" d="M11.963,16.024a1.429,1.429,0,0,1-1.012-2.437l8.081-8.081a1.429,1.429,0,1,1,2.02,2.02l-8.081,8.081a1.423,1.423,0,0,1-1.009.417ZM16,33.414A1.435,1.435,0,0,1,14.991,33L4.11,22.116a1.429,1.429,0,1,1,2.02-2.02L16,29.965l9.87-9.87a1.429,1.429,0,1,1,2.02,2.02L17.012,33A1.423,1.423,0,0,1,16,33.414Z" transform="translate(2.922 7.586)"/><path class="b" d="M29.806,30.119a1.429,1.429,0,0,1-1.012-2.437,13.958,13.958,0,1,0-19.74,0,1.429,1.429,0,1,1-2.02,2.02,16.815,16.815,0,1,1,23.78,0,1.417,1.417,0,0,1-1.009.417Z" transform="translate(0 0)"/></g></g></svg>