<svg xmlns="http://www.w3.org/2000/svg" xmlns:xlink="http://www.w3.org/1999/xlink" width="32" height="32" viewBox="0 0 32 32"><defs><style>.a,.d{fill:url(#a);}.b{fill:none;}.c{clip-path:url(#b);}.d{fill-rule:evenodd;}</style><linearGradient id="a" x1="0.5" x2="0.5" y2="1" gradientUnits="objectBoundingBox"><stop offset="0" stop-color="#3b7ded"/><stop offset="1" stop-color="#183377"/></linearGradient><clipPath id="b"><rect class="a" width="32" height="32"/></clipPath></defs><rect class="b" width="32" height="32"/><g class="c"><path class="d" d="M23,176a3,3,0,1,1-6,0,1,1,0,1,0-2,0,5,5,0,1,0,10,0,1,1,0,1,0-2,0Z" transform="translate(-4 -149.002)"/><path class="d" d="M29.172,130h1a3,3,0,0,0-3-3h-14a3,3,0,0,0-3,3h0a3,3,0,0,0,3,3h14a3,3,0,0,0,3-3Zm-1,0h0a1,1,0,0,1-1,1h-14a1,1,0,0,1-1-1h0a1,1,0,0,1,1-1h14a1,1,0,0,1,1,1Z" transform="translate(-4.172 -105.001)"/><path class="d" d="M24.333,109.317a8,8,0,0,0-8-8v0a8,8,0,0,0-8,8v11a1,1,0,0,0,1,1h14a1,1,0,0,0,1-1Zm-2,10v-10a6,6,0,0,0-6-6v0a6,6,0,0,0-6,6v10Z" transform="translate(-0.333 -97.317)"/><path class="d" d="M12.4,83a3,3,0,1,0,3,3A3,3,0,0,0,12.4,83Zm0,2a1,1,0,1,1-1,1A1,1,0,0,1,12.4,85Z" transform="translate(3.6 -83.001)"/><path class="d" d="M27-119h4a1,1,0,0,0,1-1,1,1,0,0,0-1-1H27a1,1,0,0,0-1,1A1,1,0,0,0,27-119Z" transform="translate(32 -107.001) rotate(180)"/><path class="d" d="M27,121h4a1,1,0,0,0,0-2H27a1,1,0,0,0,0,2Z" transform="translate(0 -107.001)"/><path class="d" d="M5.708,4.293,2.879,1.465A1,1,0,1,0,1.465,2.879L4.293,5.708A1,1,0,0,0,5.708,4.293Z"/><path class="d" d="M27.707,5.707l2.828-2.828a1,1,0,1,0-1.414-1.414L26.293,4.293a1,1,0,0,0,1.414,1.414Z"/><path class="d" d="M4.293,20.293,1.465,23.121a1,1,0,1,0,1.414,1.414l2.828-2.828a1,1,0,0,0-1.414-1.414Z"/><path class="d" d="M26.293,21.707l2.828,2.828a1,1,0,1,0,1.414-1.414l-2.828-2.828a1,1,0,0,0-1.414,1.414Z"/></g></svg>