<svg xmlns="http://www.w3.org/2000/svg" xmlns:xlink="http://www.w3.org/1999/xlink" width="68.619" height="63.288" viewBox="0 0 68.619 63.288"><defs><style>.a{fill:#fc4242;}.b{fill:#e7a387;}.c{fill:#efc577;}.d{fill:#00726c;}.e{fill:#6db7a0;}.f{fill:#e5a185;}.g{fill:#027a77;}.h{opacity:0.08;}.cz,.i{fill:#d78c74;}.cs,.j{opacity:0.1;}.k{opacity:0.58;}.l{fill:#e5a084;}.m{fill:#e59f83;}.n{fill:#e49e83;}.o{fill:#e49d82;}.p{fill:#e49c81;}.q{fill:#e49b80;}.r{fill:#e49a80;}.s{fill:#e3997f;}.t{fill:#e3987e;}.u{fill:#e3977d;}.v{fill:#e3967c;}.w{fill:#e2957c;}.x{fill:#e2947b;}.y{fill:#e2937a;}.z{fill:#e29279;}.aa{fill:#e29179;}.ab{fill:#e19078;}.ac{fill:#e18f77;}.ad{fill:#e18e76;}.ae{fill:#e18d75;}.af{fill:#e18c75;}.ag{fill:#e08b74;}.ah{fill:#e08a73;}.ai{fill:#e08972;}.aj{fill:#e08872;}.ak{fill:#df8771;}.al{fill:#df8670;}.am{fill:#df856f;}.an{fill:#df846f;}.ao{fill:#df836e;}.ap{fill:#de826d;}.aq{fill:#de816c;}.ar{fill:#de806b;}.as{fill:#de7f6b;}.at{fill:#de7e6a;}.au{fill:#dd7d69;}.av{fill:#dd7c68;}.aw{fill:#dd7b68;}.ax{fill:#dd7a67;}.ay{fill:#dd7a66;}.az{fill:#dc7965;}.ba{fill:#dc7864;}.bb{fill:#dc7764;}.bc{fill:#dc7663;}.bd{fill:#db7562;}.be{fill:#db7461;}.bf{fill:#db7361;}.bg{fill:#db7260;}.bh{fill:#db715f;}.bi{fill:#da705e;}.bj{fill:#da6f5d;}.bk{fill:#da6e5d;}.bl{fill:#da6d5c;}.bm{fill:#da6c5b;}.bn{fill:#d96b5a;}.bo{fill:#d96a5a;}.bp{fill:#d96959;}.bq{fill:#d96858;}.br{fill:#d86757;}.bs{fill:#d86657;}.bt{fill:#d86556;}.bu{fill:#d86455;}.bv{fill:#d86354;}.bw{fill:#d76253;}.bx{fill:#d76153;}.by{fill:#d76052;}.bz{fill:#d75f51;}.ca{fill:#d75e50;}.cb{fill:#d65d50;}.cc{fill:#d65c4f;}.cd{fill:#d65b4e;}.ce{fill:#d65a4d;}.cf{fill:#d5594c;}.cg{fill:#d5584c;}.ch{fill:#d5574b;}.ci{fill:#d5564a;}.cj{fill:#d55549;}.ck{fill:#d45449;}.cl{fill:#d45348;}.cm{fill:#d45247;}.cn{opacity:0.65;}.co,.cs,.cw{fill:#fff;}.cp{fill:#381911;}.cq{fill:#6c332e;}.cr{fill:#d8cdba;opacity:0.3;}.ct{fill:url(#a);}.cu{fill:url(#b);}.cv{fill:#fcce83;}.cw{opacity:0.36;}.cx{fill:#dd6464;}.cy{fill:#ea7171;}.cz{opacity:0.37;}</style><linearGradient id="a" x1="0.221" y1="1.054" x2="0.875" y2="-0.233" gradientUnits="objectBoundingBox"><stop offset="0" stop-color="#68aaaa"/><stop offset="1"/></linearGradient><linearGradient id="b" x1="0.199" y1="1.17" x2="0.745" y2="-0.046" xlink:href="#a"/></defs><g transform="translate(-153.334 -133.275)"><path class="a" d="M34.309,0C53.258,0,68.619,14.168,68.619,31.644S53.258,63.288,34.309,63.288,0,49.121,0,31.644,15.361,0,34.309,0Z" transform="translate(153.334 133.275)"/><path class="b" d="M222.84,222.583l-4.454,1.911,1.661,4.56a35.659,35.659,0,0,0,5.375-2.145Z" transform="translate(-21.481 -34.138)"/><path class="c" d="M209.866,153.5s-4.915-15.276-17.7-12.823-20.4,17.317-22.114,34.356c-1.137,11.338,15.2,12.842,15.2,12.842s20.4,4.033,25.1-5.322C215.536,172.241,214.817,153.1,209.866,153.5Z" transform="translate(-5.504 -2.727)"/><path class="d" d="M209.438,207.123a8.767,8.767,0,0,1,5.641.786c2.5,1.472,6.345,9.036,6.345,9.036s-6.9,2.749-6.889,2.6S209.438,207.123,209.438,207.123Z" transform="translate(-18.527 -28.167)"/><path class="e" d="M215.813,222.2c.5,1.217.83,2.052.827,2.089-.011.148,6.889-2.6,6.889-2.6s-.5-.988-1.261-2.318C220.114,220.309,217.95,221.229,215.813,222.2Z" transform="translate(-20.632 -32.909)"/><path class="f" d="M210.156,222.346c-.137-.505-.216-.793-.216-.793s.116-.083.3-.241c-.833-1.753-1.666-3.507-2.482-5.267-.8-1.722-1.591-3.449-2.327-5.195-.344-.627-.7-1.249-1.076-1.863a24.629,24.629,0,0,1-1.4-2.233,91.5,91.5,0,0,0-10.8.461c-.764,2.044-1.37,4.124-2.342,6.118-.075.154-.152.306-.228.46.91,2.588,1.953,5.688,2.839,8.552Z" transform="translate(-11.97 -28.084)"/><path class="g" d="M207.241,213.351c-1.843-1.08-2.252-6.386-5.3-6.69-.045.96,1.76,4.385,1.044,5.057a4.8,4.8,0,0,1-3.181,1.4,5.675,5.675,0,0,1-3.32-1.087c-1.828-1.185-2.742-3.1-3.634-4.933q-.457.043-.918.091c-.764,2.044-1.37,4.124-2.342,6.118-.075.154-.6.589-.68.743,1.072,3.048,2.449,6.742,3.528,9.919a37.221,37.221,0,0,0,6.954.652,36.839,36.839,0,0,0,11.658-1.877c.127-.614.3-1.289.53-2.037C212.091,219.063,211.808,216.027,207.241,213.351Z" transform="translate(-11.747 -28.052)"/><path class="h" d="M199.553,225.379c-3.193-.447-7.4-1.628-9.743-4.015.954,2.662,2.039,5.614,2.925,8.22a37.27,37.27,0,0,0,6.953.651,36.843,36.843,0,0,0,11.655-1.876c.126-.612.3-1.291.533-2.037a4.169,4.169,0,0,0,.165-1.355A36.168,36.168,0,0,1,199.553,225.379Z" transform="translate(-12.045 -33.672)"/><path class="b" d="M181.656,225.955a35.681,35.681,0,0,0,4.213,1.629,28.471,28.471,0,0,0,2.146-8.08l-3.84-.6A69.06,69.06,0,0,1,181.656,225.955Z" transform="translate(-9.353 -32.731)"/><path class="g" d="M185.046,210.63c-1.175,2.215-3.329,8.325-3.329,8.325l6.231,1.333,1.608-12.779A6.174,6.174,0,0,0,185.046,210.63Z" transform="translate(-9.373 -28.376)"/><path class="e" d="M188.452,225.03l-6.609-1.908-.707,2.137,6.643,1.833s.751-2,.7-2.063C188.47,225.024,188.459,225.032,188.452,225.03Z" transform="translate(-9.18 -34.344)"/><path class="e" d="M202.845,206.534s3.9,5.693-1.33,5.931c-4.332.2-6.913-5.571-6.913-5.571l-1.424.242s1.622,8.406,9.413,6.847,2.24-7.37,2.24-7.37Z" transform="translate(-13.157 -28.003)"/><path class="i" d="M181.936,173.275c-1.449.316-2.257,2.165-1.807,4.127s1.99,3.3,3.439,2.981,2.257-2.165,1.806-4.128S183.384,172.958,181.936,173.275Z" transform="translate(-8.807 -15.272)"/><path class="f" d="M201.042,193.516a3.136,3.136,0,0,0-3.288,2.905l-.588,7.09c1.852-.061,3.71-.063,5.513-.152l.6-.028.537-6.475A3.054,3.054,0,0,0,201.042,193.516Z" transform="translate(-14.474 -23.024)"/><path class="i" d="M201.173,193.516a3.136,3.136,0,0,0-3.288,2.905l-.322,3.878a10.517,10.517,0,0,0,3.885.878A9.26,9.26,0,0,0,203.6,201l.343-4.14A3.054,3.054,0,0,0,201.173,193.516Z" transform="translate(-14.606 -23.024)"/><path class="f" d="M200.29,149.678a14.552,14.552,0,0,0-4.566.272,15.641,15.641,0,0,0-8.292,5.1,16.15,16.15,0,0,0-1.669,2.275l-.066.109c-4.236,7.083-3.52,23.281,8.881,24.519,7.362.735,15.181-6.5,16.414-14C212.263,160.225,209.361,150.546,200.29,149.678Z" transform="translate(-9.914 -6.244)"/><path class="j" d="M200.469,149.678a14.552,14.552,0,0,0-4.566.272,15.641,15.641,0,0,0-8.292,5.1,16.146,16.146,0,0,0-1.669,2.275l-.066.109a16.948,16.948,0,0,0-1.977,5.595c6.274-4.694,15.558-1.86,22.546-4.995-1.917,2.377.567,6.947,2.1,8.109a10.317,10.317,0,0,0,2.7,1.3C212.31,159.806,209.343,150.528,200.469,149.678Z" transform="translate(-10.093 -6.244)"/><g class="k" transform="translate(172.269 156.277)"><path class="f" d="M189.393,173.224a5.27,5.27,0,0,0-5.87,4.436,5.072,5.072,0,0,0,4.81,5.414,5.27,5.27,0,0,0,5.87-4.436A5.072,5.072,0,0,0,189.393,173.224Z" transform="translate(-182.229 -171.538)"/><path class="l" d="M189.406,173.274a5.237,5.237,0,0,0-5.833,4.408,5.04,5.04,0,0,0,4.78,5.38,5.237,5.237,0,0,0,5.833-4.408A5.039,5.039,0,0,0,189.406,173.274Z" transform="translate(-182.246 -171.557)"/><path class="m" d="M189.419,173.324a5.2,5.2,0,0,0-5.8,4.38,5.008,5.008,0,0,0,4.749,5.346,5.2,5.2,0,0,0,5.8-4.38A5.008,5.008,0,0,0,189.419,173.324Z" transform="translate(-182.262 -171.576)"/><path class="n" d="M189.433,173.374a5.17,5.17,0,0,0-5.759,4.353,4.976,4.976,0,0,0,4.719,5.312,5.171,5.171,0,0,0,5.759-4.353A4.976,4.976,0,0,0,189.433,173.374Z" transform="translate(-182.279 -171.595)"/><path class="o" d="M189.446,173.423a5.139,5.139,0,0,0-5.723,4.325,4.945,4.945,0,0,0,4.69,5.278,5.138,5.138,0,0,0,5.723-4.325A4.946,4.946,0,0,0,189.446,173.423Z" transform="translate(-182.295 -171.614)"/><path class="p" d="M189.459,173.473a5.106,5.106,0,0,0-5.686,4.3,4.914,4.914,0,0,0,4.66,5.245,5.106,5.106,0,0,0,5.686-4.3A4.914,4.914,0,0,0,189.459,173.473Z" transform="translate(-182.312 -171.633)"/><path class="q" d="M189.472,173.523a5.072,5.072,0,0,0-5.65,4.269,4.882,4.882,0,0,0,4.63,5.211,5.073,5.073,0,0,0,5.65-4.27A4.882,4.882,0,0,0,189.472,173.523Z" transform="translate(-182.328 -171.653)"/><path class="r" d="M189.485,173.573a5.039,5.039,0,0,0-5.613,4.242,4.85,4.85,0,0,0,4.6,5.177,5.039,5.039,0,0,0,5.613-4.242A4.85,4.85,0,0,0,189.485,173.573Z" transform="translate(-182.345 -171.672)"/><path class="s" d="M5.062,0A4.974,4.974,0,0,1,10.18,4.725,4.838,4.838,0,0,1,5.119,9.394,4.974,4.974,0,0,1,0,4.67,4.838,4.838,0,0,1,5.062,0Z" transform="matrix(0.999, -0.055, 0.055, 0.999, 1.294, 2.199)"/><path class="t" d="M189.512,173.673a4.974,4.974,0,0,0-5.54,4.187,4.785,4.785,0,0,0,4.538,5.109,4.973,4.973,0,0,0,5.54-4.186A4.786,4.786,0,0,0,189.512,173.673Z" transform="translate(-182.378 -171.71)"/><path class="u" d="M189.525,173.723a4.941,4.941,0,0,0-5.5,4.159,4.755,4.755,0,0,0,4.509,5.076,4.942,4.942,0,0,0,5.5-4.159A4.756,4.756,0,0,0,189.525,173.723Z" transform="translate(-182.394 -171.729)"/><path class="v" d="M189.539,173.773a4.908,4.908,0,0,0-5.467,4.131,4.723,4.723,0,0,0,4.479,5.042,4.908,4.908,0,0,0,5.467-4.131A4.723,4.723,0,0,0,189.539,173.773Z" transform="translate(-182.411 -171.748)"/><path class="w" d="M189.552,173.823a4.874,4.874,0,0,0-5.43,4.1,4.692,4.692,0,0,0,4.449,5.008,4.875,4.875,0,0,0,5.43-4.1A4.691,4.691,0,0,0,189.552,173.823Z" transform="translate(-182.428 -171.767)"/><path class="x" d="M4.486,0A4.953,4.953,0,0,1,9.134,5,4.553,4.553,0,0,1,4.651,9.825,4.953,4.953,0,0,1,0,4.831,4.553,4.553,0,0,1,4.486,0Z" transform="translate(0.831 9.979) rotate(-77.217)"/><path class="y" d="M4.568.007A5.182,5.182,0,0,1,9.5,4.859,4.282,4.282,0,0,1,4.94,9.339,5.182,5.182,0,0,1,.007,4.487,4.282,4.282,0,0,1,4.568.007Z" transform="matrix(0.779, -0.627, 0.627, 0.779, 0, 5.954)"/><path class="z" d="M4.53.007A5.149,5.149,0,0,1,9.425,4.832,4.25,4.25,0,0,1,4.9,9.286,5.149,5.149,0,0,1,.007,4.461,4.25,4.25,0,0,1,4.53.007Z" transform="translate(0.037 6.045) rotate(-39.673)"/><path class="aa" d="M189.6,174.022a4.744,4.744,0,0,0-5.283,3.993,4.565,4.565,0,0,0,4.329,4.873,4.744,4.744,0,0,0,5.283-3.993A4.565,4.565,0,0,0,189.6,174.022Z" transform="translate(-182.494 -171.844)"/><path class="ab" d="M4.351,0a4.937,4.937,0,0,1,4.6,4.873A4.319,4.319,0,0,1,4.606,9.495,4.937,4.937,0,0,1,0,4.622,4.319,4.319,0,0,1,4.351,0Z" transform="matrix(0.368, -0.93, 0.93, 0.368, 0.568, 9.025)"/><path class="ac" d="M189.631,174.122a4.677,4.677,0,0,0-5.21,3.937,4.5,4.5,0,0,0,4.269,4.8,4.677,4.677,0,0,0,5.21-3.937A4.5,4.5,0,0,0,189.631,174.122Z" transform="translate(-182.527 -171.882)"/><path class="ad" d="M4.61,0a4.791,4.791,0,0,1,4.8,4.483A4.33,4.33,0,0,1,4.8,8.779,4.791,4.791,0,0,1,0,4.3,4.33,4.33,0,0,1,4.61,0Z" transform="translate(0.92 3.649) rotate(-15.617)"/><path class="ae" d="M4.658,0A4.588,4.588,0,0,1,9.374,4.355a4.447,4.447,0,0,1-4.658,4.3A4.588,4.588,0,0,1,0,4.3,4.447,4.447,0,0,1,4.658,0Z" transform="translate(1.688 2.583) rotate(-3.542)"/><path class="af" d="M189.67,174.272a4.579,4.579,0,0,0-5.1,3.854,4.406,4.406,0,0,0,4.179,4.7,4.579,4.579,0,0,0,5.1-3.854A4.407,4.407,0,0,0,189.67,174.272Z" transform="translate(-182.576 -171.94)"/><path class="ag" d="M189.684,174.322a4.546,4.546,0,0,0-5.063,3.826,4.375,4.375,0,0,0,4.149,4.67,4.546,4.546,0,0,0,5.063-3.826A4.375,4.375,0,0,0,189.684,174.322Z" transform="translate(-182.593 -171.959)"/><path class="ah" d="M189.7,174.372a4.513,4.513,0,0,0-5.026,3.8,4.343,4.343,0,0,0,4.118,4.636,4.513,4.513,0,0,0,5.026-3.8A4.343,4.343,0,0,0,189.7,174.372Z" transform="translate(-182.61 -171.978)"/><path class="ai" d="M189.71,174.422a4.479,4.479,0,0,0-4.989,3.77,4.311,4.311,0,0,0,4.088,4.6,4.48,4.48,0,0,0,4.989-3.771A4.311,4.311,0,0,0,189.71,174.422Z" transform="translate(-182.626 -171.997)"/><path class="aj" d="M189.723,174.472a4.446,4.446,0,0,0-4.952,3.742,4.279,4.279,0,0,0,4.058,4.568,4.446,4.446,0,0,0,4.952-3.743A4.279,4.279,0,0,0,189.723,174.472Z" transform="translate(-182.643 -172.016)"/><path class="ak" d="M189.736,174.521a4.414,4.414,0,0,0-4.916,3.715,4.247,4.247,0,0,0,4.027,4.534,4.413,4.413,0,0,0,4.916-3.715A4.248,4.248,0,0,0,189.736,174.521Z" transform="translate(-182.659 -172.035)"/><path class="al" d="M189.75,174.571a4.381,4.381,0,0,0-4.88,3.687,4.216,4.216,0,0,0,4,4.5,4.381,4.381,0,0,0,4.88-3.687A4.216,4.216,0,0,0,189.75,174.571Z" transform="translate(-182.676 -172.054)"/><path class="am" d="M189.763,174.622a4.349,4.349,0,0,0-4.843,3.66,4.185,4.185,0,0,0,3.968,4.467,4.349,4.349,0,0,0,4.843-3.66A4.185,4.185,0,0,0,189.763,174.622Z" transform="translate(-182.692 -172.074)"/><path class="an" d="M189.777,174.672a4.315,4.315,0,0,0-4.806,3.632,4.152,4.152,0,0,0,3.938,4.433,4.315,4.315,0,0,0,4.806-3.632A4.153,4.153,0,0,0,189.777,174.672Z" transform="translate(-182.709 -172.093)"/><path class="ao" d="M189.79,174.722a4.282,4.282,0,0,0-4.77,3.6,4.121,4.121,0,0,0,3.908,4.4,4.282,4.282,0,0,0,4.77-3.6A4.121,4.121,0,0,0,189.79,174.722Z" transform="translate(-182.725 -172.112)"/><path class="ap" d="M189.8,174.772a4.248,4.248,0,0,0-4.733,3.576,4.088,4.088,0,0,0,3.877,4.365,4.248,4.248,0,0,0,4.733-3.576A4.088,4.088,0,0,0,189.8,174.772Z" transform="translate(-182.742 -172.131)"/><path class="aq" d="M189.816,174.821a4.216,4.216,0,0,0-4.7,3.549,4.057,4.057,0,0,0,3.847,4.331,4.215,4.215,0,0,0,4.7-3.548A4.057,4.057,0,0,0,189.816,174.821Z" transform="translate(-182.758 -172.15)"/><path class="ar" d="M189.829,174.871a4.184,4.184,0,0,0-4.66,3.521,4.025,4.025,0,0,0,3.818,4.3,4.183,4.183,0,0,0,4.66-3.521A4.026,4.026,0,0,0,189.829,174.871Z" transform="translate(-182.775 -172.169)"/><path class="as" d="M189.843,174.921a4.151,4.151,0,0,0-4.623,3.493,4,4,0,0,0,3.788,4.264,4.151,4.151,0,0,0,4.623-3.493A3.994,3.994,0,0,0,189.843,174.921Z" transform="translate(-182.791 -172.189)"/><path class="at" d="M189.856,174.971a4.117,4.117,0,0,0-4.586,3.466,3.962,3.962,0,0,0,3.757,4.23,4.118,4.118,0,0,0,4.586-3.466A3.962,3.962,0,0,0,189.856,174.971Z" transform="translate(-182.808 -172.208)"/><path class="au" d="M189.869,175.021a4.084,4.084,0,0,0-4.549,3.438,3.931,3.931,0,0,0,3.727,4.2,4.085,4.085,0,0,0,4.549-3.438A3.931,3.931,0,0,0,189.869,175.021Z" transform="translate(-182.825 -172.227)"/><path class="av" d="M189.882,175.071a4.051,4.051,0,0,0-4.512,3.41,3.9,3.9,0,0,0,3.7,4.162,4.051,4.051,0,0,0,4.512-3.41A3.9,3.9,0,0,0,189.882,175.071Z" transform="translate(-182.841 -172.246)"/><path class="aw" d="M189.9,175.12a4.019,4.019,0,0,0-4.475,3.383,3.866,3.866,0,0,0,3.667,4.128,4.018,4.018,0,0,0,4.475-3.382A3.867,3.867,0,0,0,189.9,175.12Z" transform="translate(-182.858 -172.265)"/><path class="ax" d="M189.908,175.171a3.986,3.986,0,0,0-4.439,3.355,3.836,3.836,0,0,0,3.638,4.094,3.986,3.986,0,0,0,4.439-3.355A3.836,3.836,0,0,0,189.908,175.171Z" transform="translate(-182.874 -172.284)"/><path class="ay" d="M189.922,175.221a3.953,3.953,0,0,0-4.4,3.327,3.8,3.8,0,0,0,3.607,4.06,3.953,3.953,0,0,0,4.4-3.327A3.8,3.8,0,0,0,189.922,175.221Z" transform="translate(-182.891 -172.303)"/><path class="az" d="M189.935,175.271a3.919,3.919,0,0,0-4.366,3.3,3.772,3.772,0,0,0,3.577,4.027,3.92,3.92,0,0,0,4.366-3.3A3.772,3.772,0,0,0,189.935,175.271Z" transform="translate(-182.907 -172.323)"/><path class="ba" d="M189.948,175.321a3.886,3.886,0,0,0-4.329,3.272,3.74,3.74,0,0,0,3.547,3.993,3.887,3.887,0,0,0,4.329-3.272A3.74,3.74,0,0,0,189.948,175.321Z" transform="translate(-182.924 -172.342)"/><path class="bb" d="M189.961,175.371a3.853,3.853,0,0,0-4.292,3.243,3.709,3.709,0,0,0,3.517,3.959,3.853,3.853,0,0,0,4.292-3.244A3.708,3.708,0,0,0,189.961,175.371Z" transform="translate(-182.94 -172.361)"/><path class="bc" d="M189.974,175.42a3.821,3.821,0,0,0-4.256,3.216,3.677,3.677,0,0,0,3.488,3.925,3.82,3.82,0,0,0,4.255-3.216A3.677,3.677,0,0,0,189.974,175.42Z" transform="translate(-182.957 -172.38)"/><path class="bd" d="M189.988,175.47a3.789,3.789,0,0,0-4.219,3.188,3.646,3.646,0,0,0,3.457,3.892,3.789,3.789,0,0,0,4.22-3.189A3.646,3.646,0,0,0,189.988,175.47Z" transform="translate(-182.973 -172.399)"/><path class="be" d="M190,175.52a3.755,3.755,0,0,0-4.183,3.16,3.614,3.614,0,0,0,3.427,3.858,3.755,3.755,0,0,0,4.183-3.161A3.614,3.614,0,0,0,190,175.52Z" transform="translate(-182.99 -172.418)"/><path class="bf" d="M190.015,175.57a3.722,3.722,0,0,0-4.146,3.133,3.582,3.582,0,0,0,3.4,3.824,3.722,3.722,0,0,0,4.146-3.133A3.582,3.582,0,0,0,190.015,175.57Z" transform="translate(-183.006 -172.437)"/><path class="bg" d="M190.028,175.62a3.689,3.689,0,0,0-4.109,3.1,3.55,3.55,0,0,0,3.366,3.79,3.689,3.689,0,0,0,4.109-3.1A3.55,3.55,0,0,0,190.028,175.62Z" transform="translate(-183.023 -172.457)"/><path class="bh" d="M190.041,175.67a3.656,3.656,0,0,0-4.072,3.077,3.518,3.518,0,0,0,3.336,3.756,3.656,3.656,0,0,0,4.072-3.077A3.518,3.518,0,0,0,190.041,175.67Z" transform="translate(-183.04 -172.476)"/><path class="bi" d="M190.054,175.72a3.624,3.624,0,0,0-4.036,3.05,3.488,3.488,0,0,0,3.307,3.723,3.624,3.624,0,0,0,4.036-3.05A3.488,3.488,0,0,0,190.054,175.72Z" transform="translate(-183.056 -172.495)"/><path class="bj" d="M190.067,175.77a3.59,3.59,0,0,0-4,3.022,3.455,3.455,0,0,0,3.277,3.689,3.591,3.591,0,0,0,4-3.022A3.456,3.456,0,0,0,190.067,175.77Z" transform="translate(-183.072 -172.514)"/><path class="bk" d="M190.081,175.82a3.558,3.558,0,0,0-3.962,2.994,3.424,3.424,0,0,0,3.246,3.655,3.558,3.558,0,0,0,3.962-2.994A3.424,3.424,0,0,0,190.081,175.82Z" transform="translate(-183.089 -172.533)"/><path class="bl" d="M190.094,175.87a3.524,3.524,0,0,0-3.926,2.966,3.392,3.392,0,0,0,3.216,3.621,3.524,3.524,0,0,0,3.926-2.966A3.392,3.392,0,0,0,190.094,175.87Z" transform="translate(-183.106 -172.552)"/><path class="bm" d="M190.107,175.92a3.491,3.491,0,0,0-3.889,2.939,3.36,3.36,0,0,0,3.186,3.587,3.491,3.491,0,0,0,3.889-2.939A3.359,3.359,0,0,0,190.107,175.92Z" transform="translate(-183.122 -172.571)"/><path class="bn" d="M190.12,175.97a3.458,3.458,0,0,0-3.852,2.911,3.328,3.328,0,0,0,3.156,3.553,3.458,3.458,0,0,0,3.852-2.911A3.328,3.328,0,0,0,190.12,175.97Z" transform="translate(-183.139 -172.591)"/><path class="bo" d="M190.133,176.019a3.426,3.426,0,0,0-3.816,2.884,3.3,3.3,0,0,0,3.127,3.519,3.426,3.426,0,0,0,3.816-2.884A3.3,3.3,0,0,0,190.133,176.019Z" transform="translate(-183.155 -172.61)"/><path class="bp" d="M3.134,0a3.549,3.549,0,0,1,3.309,3.51A3.117,3.117,0,0,1,3.312,6.844,3.549,3.549,0,0,1,0,3.334,3.117,3.117,0,0,1,3.134,0Z" transform="translate(2.287 8.404) rotate(-69.141)"/><path class="bq" d="M190.16,176.119a3.36,3.36,0,0,0-3.742,2.828,3.233,3.233,0,0,0,3.066,3.451,3.36,3.36,0,0,0,3.742-2.828A3.233,3.233,0,0,0,190.16,176.119Z" transform="translate(-183.188 -172.648)"/><path class="br" d="M190.173,176.169a3.327,3.327,0,0,0-3.705,2.8,3.2,3.2,0,0,0,3.036,3.417,3.326,3.326,0,0,0,3.705-2.8A3.2,3.2,0,0,0,190.173,176.169Z" transform="translate(-183.205 -172.667)"/><path class="bs" d="M190.186,176.219a3.293,3.293,0,0,0-3.668,2.772,3.169,3.169,0,0,0,3.006,3.383,3.293,3.293,0,0,0,3.668-2.772A3.169,3.169,0,0,0,190.186,176.219Z" transform="translate(-183.221 -172.686)"/><path class="bt" d="M190.2,176.27a3.26,3.26,0,0,0-3.632,2.745,3.137,3.137,0,0,0,2.976,3.349,3.26,3.26,0,0,0,3.632-2.745A3.137,3.137,0,0,0,190.2,176.27Z" transform="translate(-183.238 -172.706)"/><path class="bu" d="M190.212,176.319a3.228,3.228,0,0,0-3.6,2.717,3.108,3.108,0,0,0,2.946,3.317,3.229,3.229,0,0,0,3.6-2.718A3.107,3.107,0,0,0,190.212,176.319Z" transform="translate(-183.254 -172.724)"/><path class="bv" d="M190.226,176.369a3.2,3.2,0,0,0-3.559,2.689,3.075,3.075,0,0,0,2.916,3.283,3.2,3.2,0,0,0,3.559-2.69A3.075,3.075,0,0,0,190.226,176.369Z" transform="translate(-183.271 -172.744)"/><path class="bw" d="M190.239,176.419a3.162,3.162,0,0,0-3.522,2.661,3.043,3.043,0,0,0,2.885,3.249,3.163,3.163,0,0,0,3.522-2.662A3.043,3.043,0,0,0,190.239,176.419Z" transform="translate(-183.288 -172.763)"/><path class="bx" d="M190.253,176.469a3.129,3.129,0,0,0-3.486,2.633,3.011,3.011,0,0,0,2.855,3.215,3.129,3.129,0,0,0,3.486-2.634A3.011,3.011,0,0,0,190.253,176.469Z" transform="translate(-183.304 -172.782)"/><path class="by" d="M190.266,176.519a3.1,3.1,0,0,0-3.449,2.606,2.98,2.98,0,0,0,2.825,3.181,3.1,3.1,0,0,0,3.449-2.606A2.979,2.979,0,0,0,190.266,176.519Z" transform="translate(-183.321 -172.801)"/><path class="bz" d="M190.279,176.568a3.064,3.064,0,0,0-3.413,2.578,2.948,2.948,0,0,0,2.8,3.147,3.062,3.062,0,0,0,3.412-2.578A2.948,2.948,0,0,0,190.279,176.568Z" transform="translate(-183.337 -172.82)"/><path class="ca" d="M190.292,176.618a3.032,3.032,0,0,0-3.376,2.551,2.917,2.917,0,0,0,2.766,3.113,3.031,3.031,0,0,0,3.376-2.551A2.917,2.917,0,0,0,190.292,176.618Z" transform="translate(-183.354 -172.839)"/><path class="cb" d="M190.305,176.668a3,3,0,0,0-3.339,2.523,2.885,2.885,0,0,0,2.735,3.079,3,3,0,0,0,3.339-2.523A2.885,2.885,0,0,0,190.305,176.668Z" transform="translate(-183.37 -172.858)"/><path class="cc" d="M190.319,176.718a2.964,2.964,0,0,0-3.3,2.5,2.853,2.853,0,0,0,2.705,3.046,2.965,2.965,0,0,0,3.3-2.5A2.853,2.853,0,0,0,190.319,176.718Z" transform="translate(-183.387 -172.878)"/><path class="cd" d="M190.332,176.768a2.931,2.931,0,0,0-3.265,2.467,2.821,2.821,0,0,0,2.675,3.012,2.932,2.932,0,0,0,3.265-2.467A2.821,2.821,0,0,0,190.332,176.768Z" transform="translate(-183.403 -172.897)"/><path class="ce" d="M190.345,176.819a2.9,2.9,0,0,0-3.228,2.44,2.788,2.788,0,0,0,2.645,2.978,2.9,2.9,0,0,0,3.228-2.439A2.788,2.788,0,0,0,190.345,176.819Z" transform="translate(-183.42 -172.916)"/><path class="cf" d="M190.358,176.868a2.867,2.867,0,0,0-3.192,2.412,2.758,2.758,0,0,0,2.616,2.944,2.865,2.865,0,0,0,3.192-2.412A2.758,2.758,0,0,0,190.358,176.868Z" transform="translate(-183.436 -172.935)"/><path class="cg" d="M190.371,176.918a2.833,2.833,0,0,0-3.155,2.385,2.726,2.726,0,0,0,2.585,2.91,2.833,2.833,0,0,0,3.155-2.385A2.726,2.726,0,0,0,190.371,176.918Z" transform="translate(-183.453 -172.954)"/><path class="ch" d="M190.385,176.968a2.8,2.8,0,0,0-3.119,2.357,2.7,2.7,0,0,0,2.555,2.876,2.8,2.8,0,0,0,3.118-2.357A2.7,2.7,0,0,0,190.385,176.968Z" transform="translate(-183.469 -172.973)"/><path class="ci" d="M190.4,177.018a2.766,2.766,0,0,0-3.082,2.329,2.663,2.663,0,0,0,2.525,2.842,2.767,2.767,0,0,0,3.082-2.329A2.662,2.662,0,0,0,190.4,177.018Z" transform="translate(-183.486 -172.993)"/><path class="cj" d="M190.411,177.068a2.734,2.734,0,0,0-3.045,2.3,2.631,2.631,0,0,0,2.495,2.808,2.734,2.734,0,0,0,3.045-2.3A2.63,2.63,0,0,0,190.411,177.068Z" transform="translate(-183.503 -173.012)"/><path class="ck" d="M190.424,177.118a2.7,2.7,0,0,0-3.008,2.273,2.6,2.6,0,0,0,2.465,2.774,2.7,2.7,0,0,0,3.008-2.273A2.6,2.6,0,0,0,190.424,177.118Z" transform="translate(-183.519 -173.031)"/><path class="cl" d="M190.437,177.167a2.669,2.669,0,0,0-2.972,2.246,2.568,2.568,0,0,0,2.435,2.74,2.668,2.668,0,0,0,2.972-2.246A2.568,2.568,0,0,0,190.437,177.167Z" transform="translate(-183.535 -173.05)"/><path class="cm" d="M190.45,177.217a2.636,2.636,0,0,0-2.935,2.218,2.536,2.536,0,0,0,2.405,2.707,2.636,2.636,0,0,0,2.935-2.218A2.536,2.536,0,0,0,190.45,177.217Z" transform="translate(-183.552 -173.069)"/></g><g class="cn" transform="translate(185.6 157.159)"><path class="f" d="M209.851,175.255a5.27,5.27,0,0,0-5.87,4.436,5.072,5.072,0,0,0,4.81,5.414,5.269,5.269,0,0,0,5.87-4.436A5.072,5.072,0,0,0,209.851,175.255Z" transform="translate(-202.316 -173.196)"/><path class="l" d="M209.864,175.3a5.238,5.238,0,0,0-5.833,4.408,5.04,5.04,0,0,0,4.78,5.38,5.237,5.237,0,0,0,5.833-4.408A5.04,5.04,0,0,0,209.864,175.3Z" transform="translate(-202.332 -173.215)"/><path class="m" d="M209.877,175.355a5.2,5.2,0,0,0-5.8,4.38,5.009,5.009,0,0,0,4.749,5.347,5.2,5.2,0,0,0,5.8-4.38A5.008,5.008,0,0,0,209.877,175.355Z" transform="translate(-202.349 -173.234)"/><path class="n" d="M209.891,175.405a5.171,5.171,0,0,0-5.759,4.353,4.976,4.976,0,0,0,4.719,5.313,5.172,5.172,0,0,0,5.76-4.353A4.977,4.977,0,0,0,209.891,175.405Z" transform="translate(-202.365 -173.253)"/><path class="o" d="M209.9,175.455a5.138,5.138,0,0,0-5.723,4.325,4.945,4.945,0,0,0,4.69,5.279,5.139,5.139,0,0,0,5.723-4.325A4.945,4.945,0,0,0,209.9,175.455Z" transform="translate(-202.382 -173.273)"/><path class="p" d="M209.917,175.505a5.106,5.106,0,0,0-5.687,4.3,4.913,4.913,0,0,0,4.66,5.245,5.106,5.106,0,0,0,5.686-4.3A4.913,4.913,0,0,0,209.917,175.505Z" transform="translate(-202.398 -173.292)"/><path class="q" d="M4.812.008a5.468,5.468,0,0,1,5.2,5.124,4.514,4.514,0,0,1-4.8,4.73,5.468,5.468,0,0,1-5.2-5.124A4.514,4.514,0,0,1,4.812.008Z" transform="translate(0 6.378) rotate(-39.621)"/><path class="r" d="M4.69,0A5.066,5.066,0,0,1,9.479,5.176,4.825,4.825,0,0,1,4.79,10.251,5.066,5.066,0,0,1,0,5.076,4.825,4.825,0,0,1,4.69,0Z" transform="translate(1.323 11.041) rotate(-82.767)"/><path class="s" d="M4.651,0A5.066,5.066,0,0,1,9.426,5.152a4.761,4.761,0,0,1-4.649,5.024A5.066,5.066,0,0,1,0,5.026,4.761,4.761,0,0,1,4.651,0Z" transform="translate(1.222 10.815) rotate(-80.71)"/><path class="t" d="M4.7.008A5.369,5.369,0,0,1,9.778,5.053,4.42,4.42,0,0,1,5.089,9.708,5.369,5.369,0,0,1,.008,4.662,4.42,4.42,0,0,1,4.7.008Z" transform="matrix(0.738, -0.675, 0.675, 0.738, 0.117, 6.701)"/><path class="u" d="M209.983,175.755a4.941,4.941,0,0,0-5.5,4.159,4.756,4.756,0,0,0,4.509,5.075,4.941,4.941,0,0,0,5.5-4.159A4.754,4.754,0,0,0,209.983,175.755Z" transform="translate(-202.481 -173.387)"/><path class="v" d="M210,175.8a4.907,4.907,0,0,0-5.467,4.131,4.723,4.723,0,0,0,4.479,5.041,4.908,4.908,0,0,0,5.467-4.131A4.723,4.723,0,0,0,210,175.8Z" transform="translate(-202.498 -173.407)"/><path class="w" d="M210.01,175.854a4.876,4.876,0,0,0-5.43,4.1,4.692,4.692,0,0,0,4.449,5.007,4.874,4.874,0,0,0,5.43-4.1A4.691,4.691,0,0,0,210.01,175.854Z" transform="translate(-202.514 -173.425)"/><path class="x" d="M210.023,175.9a4.842,4.842,0,0,0-5.393,4.076,4.66,4.66,0,0,0,4.419,4.974,4.842,4.842,0,0,0,5.393-4.076A4.66,4.66,0,0,0,210.023,175.9Z" transform="translate(-202.531 -173.445)"/><ellipse class="y" cx="4.897" cy="4.516" rx="4.897" ry="4.516" transform="translate(2.109 2.468)"/><path class="z" d="M210.049,176a4.776,4.776,0,0,0-5.319,4.02,4.6,4.6,0,0,0,4.358,4.907,4.777,4.777,0,0,0,5.32-4.02A4.6,4.6,0,0,0,210.049,176Z" transform="translate(-202.564 -173.483)"/><path class="aa" d="M210.062,176.054a4.743,4.743,0,0,0-5.283,3.992,4.565,4.565,0,0,0,4.329,4.873,4.744,4.744,0,0,0,5.283-3.993A4.564,4.564,0,0,0,210.062,176.054Z" transform="translate(-202.58 -173.502)"/><path class="ab" d="M210.076,176.1a4.71,4.71,0,0,0-5.246,3.964,4.533,4.533,0,0,0,4.3,4.839,4.71,4.71,0,0,0,5.246-3.965A4.532,4.532,0,0,0,210.076,176.1Z" transform="translate(-202.597 -173.521)"/><path class="ac" d="M210.089,176.154a4.677,4.677,0,0,0-5.21,3.937,4.5,4.5,0,0,0,4.269,4.8,4.677,4.677,0,0,0,5.21-3.937A4.5,4.5,0,0,0,210.089,176.154Z" transform="translate(-202.613 -173.54)"/><path class="ad" d="M210.1,176.2a4.644,4.644,0,0,0-5.173,3.909,4.47,4.47,0,0,0,4.238,4.771,4.644,4.644,0,0,0,5.173-3.91A4.469,4.469,0,0,0,210.1,176.2Z" transform="translate(-202.63 -173.56)"/><path class="ae" d="M210.115,176.254a4.611,4.611,0,0,0-5.136,3.881,4.438,4.438,0,0,0,4.208,4.738,4.611,4.611,0,0,0,5.136-3.882A4.437,4.437,0,0,0,210.115,176.254Z" transform="translate(-202.647 -173.579)"/><path class="af" d="M210.129,176.3a4.578,4.578,0,0,0-5.1,3.854,4.406,4.406,0,0,0,4.178,4.7,4.579,4.579,0,0,0,5.1-3.854A4.407,4.407,0,0,0,210.129,176.3Z" transform="translate(-202.663 -173.598)"/><path class="ag" d="M210.142,176.354a4.545,4.545,0,0,0-5.063,3.826,4.374,4.374,0,0,0,4.149,4.67,4.546,4.546,0,0,0,5.063-3.826A4.374,4.374,0,0,0,210.142,176.354Z" transform="translate(-202.679 -173.617)"/><path class="ah" d="M210.155,176.4a4.513,4.513,0,0,0-5.026,3.8,4.343,4.343,0,0,0,4.119,4.636,4.512,4.512,0,0,0,5.026-3.8A4.343,4.343,0,0,0,210.155,176.4Z" transform="translate(-202.696 -173.636)"/><path class="ai" d="M210.169,176.453a4.48,4.48,0,0,0-4.99,3.771,4.31,4.31,0,0,0,4.088,4.6,4.479,4.479,0,0,0,4.989-3.77A4.311,4.311,0,0,0,210.169,176.453Z" transform="translate(-202.713 -173.655)"/><ellipse class="aj" cx="4.528" cy="4.176" rx="4.528" ry="4.176" transform="translate(2.478 2.808)"/><path class="ak" d="M210.2,176.553a4.413,4.413,0,0,0-4.916,3.715,4.248,4.248,0,0,0,4.028,4.534,4.415,4.415,0,0,0,4.916-3.715A4.248,4.248,0,0,0,210.2,176.553Z" transform="translate(-202.746 -173.694)"/><path class="al" d="M210.208,176.6a4.38,4.38,0,0,0-4.879,3.687,4.215,4.215,0,0,0,4,4.5,4.381,4.381,0,0,0,4.879-3.687A4.216,4.216,0,0,0,210.208,176.6Z" transform="translate(-202.762 -173.713)"/><path class="am" d="M210.221,176.653a4.348,4.348,0,0,0-4.843,3.66,4.185,4.185,0,0,0,3.968,4.466,4.348,4.348,0,0,0,4.843-3.66A4.184,4.184,0,0,0,210.221,176.653Z" transform="translate(-202.779 -173.732)"/><path class="an" d="M210.235,176.7a4.316,4.316,0,0,0-4.806,3.632,4.152,4.152,0,0,0,3.938,4.432,4.315,4.315,0,0,0,4.806-3.632A4.153,4.153,0,0,0,210.235,176.7Z" transform="translate(-202.795 -173.751)"/><path class="ao" d="M210.248,176.753a4.282,4.282,0,0,0-4.77,3.6,4.121,4.121,0,0,0,3.908,4.4,4.282,4.282,0,0,0,4.77-3.6A4.121,4.121,0,0,0,210.248,176.753Z" transform="translate(-202.812 -173.77)"/><path class="ap" d="M4.037.006A4.578,4.578,0,0,1,8.4,4.292,3.784,3.784,0,0,1,4.365,8.25,4.578,4.578,0,0,1,.006,3.964,3.784,3.784,0,0,1,4.037.006Z" transform="translate(1.145 6.394) rotate(-38.747)"/><path class="aq" d="M210.274,176.853a4.215,4.215,0,0,0-4.7,3.548,4.057,4.057,0,0,0,3.847,4.332,4.216,4.216,0,0,0,4.7-3.549A4.058,4.058,0,0,0,210.274,176.853Z" transform="translate(-202.845 -173.808)"/><path class="ar" d="M210.287,176.9a4.184,4.184,0,0,0-4.66,3.521,4.026,4.026,0,0,0,3.818,4.3,4.184,4.184,0,0,0,4.66-3.521A4.025,4.025,0,0,0,210.287,176.9Z" transform="translate(-202.861 -173.828)"/><path class="as" d="M210.3,176.953a4.15,4.15,0,0,0-4.623,3.493,3.994,3.994,0,0,0,3.788,4.264,4.15,4.15,0,0,0,4.623-3.493A3.994,3.994,0,0,0,210.3,176.953Z" transform="translate(-202.878 -173.847)"/><path class="at" d="M210.314,177a4.118,4.118,0,0,0-4.586,3.466,3.962,3.962,0,0,0,3.757,4.23,4.117,4.117,0,0,0,4.586-3.466A3.962,3.962,0,0,0,210.314,177Z" transform="translate(-202.894 -173.866)"/><path class="au" d="M210.327,177.052a4.085,4.085,0,0,0-4.549,3.438,3.931,3.931,0,0,0,3.727,4.2,4.085,4.085,0,0,0,4.549-3.438A3.931,3.931,0,0,0,210.327,177.052Z" transform="translate(-202.911 -173.885)"/><path class="av" d="M210.34,177.1a4.051,4.051,0,0,0-4.512,3.41,3.9,3.9,0,0,0,3.7,4.162,4.051,4.051,0,0,0,4.512-3.411A3.9,3.9,0,0,0,210.34,177.1Z" transform="translate(-202.928 -173.904)"/><path class="aw" d="M210.353,177.152a4.018,4.018,0,0,0-4.475,3.382,3.867,3.867,0,0,0,3.667,4.128,4.019,4.019,0,0,0,4.476-3.383A3.867,3.867,0,0,0,210.353,177.152Z" transform="translate(-202.944 -173.923)"/><path class="ax" d="M210.366,177.2a3.985,3.985,0,0,0-4.439,3.354,3.836,3.836,0,0,0,3.638,4.094A3.986,3.986,0,0,0,214,181.3,3.836,3.836,0,0,0,210.366,177.2Z" transform="translate(-202.96 -173.943)"/><path class="ay" d="M210.38,177.253a3.952,3.952,0,0,0-4.4,3.327,3.8,3.8,0,0,0,3.607,4.06,3.952,3.952,0,0,0,4.4-3.327A3.8,3.8,0,0,0,210.38,177.253Z" transform="translate(-202.977 -173.962)"/><path class="az" d="M210.393,177.3a3.92,3.92,0,0,0-4.366,3.3,3.772,3.772,0,0,0,3.577,4.026,3.919,3.919,0,0,0,4.366-3.3A3.773,3.773,0,0,0,210.393,177.3Z" transform="translate(-202.994 -173.981)"/><path class="ba" d="M210.406,177.352a3.887,3.887,0,0,0-4.329,3.272,3.741,3.741,0,0,0,3.547,3.993,3.887,3.887,0,0,0,4.329-3.272A3.74,3.74,0,0,0,210.406,177.352Z" transform="translate(-203.01 -174)"/><path class="bb" d="M210.419,177.4a3.853,3.853,0,0,0-4.292,3.244,3.709,3.709,0,0,0,3.517,3.959,3.854,3.854,0,0,0,4.292-3.244A3.709,3.709,0,0,0,210.419,177.4Z" transform="translate(-203.027 -174.019)"/><path class="bc" d="M210.433,177.452a3.821,3.821,0,0,0-4.256,3.216,3.677,3.677,0,0,0,3.487,3.925,3.821,3.821,0,0,0,4.256-3.216A3.677,3.677,0,0,0,210.433,177.452Z" transform="translate(-203.043 -174.038)"/><path class="bd" d="M210.446,177.5a3.788,3.788,0,0,0-4.22,3.188,3.646,3.646,0,0,0,3.457,3.891,3.788,3.788,0,0,0,4.219-3.188A3.645,3.645,0,0,0,210.446,177.5Z" transform="translate(-203.06 -174.057)"/><path class="be" d="M210.459,177.552a3.755,3.755,0,0,0-4.183,3.16,3.614,3.614,0,0,0,3.427,3.857,3.755,3.755,0,0,0,4.182-3.16A3.613,3.613,0,0,0,210.459,177.552Z" transform="translate(-203.076 -174.077)"/><path class="bf" d="M210.473,177.6a3.723,3.723,0,0,0-4.146,3.133,3.582,3.582,0,0,0,3.4,3.823,3.722,3.722,0,0,0,4.145-3.133A3.582,3.582,0,0,0,210.473,177.6Z" transform="translate(-203.093 -174.095)"/><path class="bg" d="M210.486,177.651a3.69,3.69,0,0,0-4.109,3.105,3.55,3.55,0,0,0,3.366,3.79,3.689,3.689,0,0,0,4.109-3.105A3.55,3.55,0,0,0,210.486,177.651Z" transform="translate(-203.11 -174.115)"/><path class="bh" d="M210.5,177.7a3.656,3.656,0,0,0-4.072,3.078,3.519,3.519,0,0,0,3.336,3.756,3.656,3.656,0,0,0,4.072-3.078A3.518,3.518,0,0,0,210.5,177.7Z" transform="translate(-203.126 -174.134)"/><path class="bi" d="M210.512,177.752a3.623,3.623,0,0,0-4.035,3.05,3.486,3.486,0,0,0,3.306,3.722,3.624,3.624,0,0,0,4.036-3.05A3.487,3.487,0,0,0,210.512,177.752Z" transform="translate(-203.143 -174.153)"/><path class="bj" d="M210.525,177.8a3.59,3.59,0,0,0-4,3.021,3.456,3.456,0,0,0,3.277,3.689,3.59,3.59,0,0,0,4-3.022A3.455,3.455,0,0,0,210.525,177.8Z" transform="translate(-203.159 -174.172)"/><path class="bk" d="M210.539,177.851a3.558,3.558,0,0,0-3.962,2.994,3.423,3.423,0,0,0,3.246,3.655,3.558,3.558,0,0,0,3.962-2.994A3.424,3.424,0,0,0,210.539,177.851Z" transform="translate(-203.176 -174.191)"/><path class="bl" d="M210.552,177.9a3.525,3.525,0,0,0-3.926,2.966,3.392,3.392,0,0,0,3.216,3.621,3.524,3.524,0,0,0,3.926-2.966A3.392,3.392,0,0,0,210.552,177.9Z" transform="translate(-203.192 -174.21)"/><path class="bm" d="M210.565,177.951a3.492,3.492,0,0,0-3.889,2.939,3.36,3.36,0,0,0,3.186,3.587,3.492,3.492,0,0,0,3.889-2.939A3.36,3.36,0,0,0,210.565,177.951Z" transform="translate(-203.209 -174.23)"/><path class="bn" d="M210.578,178a3.458,3.458,0,0,0-3.852,2.911,3.328,3.328,0,0,0,3.156,3.553,3.459,3.459,0,0,0,3.853-2.911A3.329,3.329,0,0,0,210.578,178Z" transform="translate(-203.225 -174.249)"/><path class="bo" d="M210.592,178.051a3.425,3.425,0,0,0-3.815,2.883,3.3,3.3,0,0,0,3.126,3.519,3.426,3.426,0,0,0,3.816-2.884A3.3,3.3,0,0,0,210.592,178.051Z" transform="translate(-203.242 -174.268)"/><path class="bp" d="M210.6,178.1a3.393,3.393,0,0,0-3.779,2.855,3.265,3.265,0,0,0,3.1,3.485,3.393,3.393,0,0,0,3.779-2.856A3.265,3.265,0,0,0,210.6,178.1Z" transform="translate(-203.258 -174.287)"/><path class="bq" d="M210.618,178.15a3.36,3.36,0,0,0-3.742,2.828,3.233,3.233,0,0,0,3.066,3.451,3.36,3.36,0,0,0,3.742-2.827A3.233,3.233,0,0,0,210.618,178.15Z" transform="translate(-203.275 -174.306)"/><path class="br" d="M210.631,178.2a3.327,3.327,0,0,0-3.705,2.8,3.2,3.2,0,0,0,3.036,3.417,3.327,3.327,0,0,0,3.705-2.8A3.2,3.2,0,0,0,210.631,178.2Z" transform="translate(-203.291 -174.325)"/><path class="bs" d="M210.644,178.251a3.293,3.293,0,0,0-3.668,2.772,3.17,3.17,0,0,0,3.006,3.384,3.294,3.294,0,0,0,3.668-2.772A3.17,3.17,0,0,0,210.644,178.251Z" transform="translate(-203.308 -174.344)"/><path class="bt" d="M210.657,178.3a3.26,3.26,0,0,0-3.632,2.745A3.138,3.138,0,0,0,210,184.4a3.262,3.262,0,0,0,3.632-2.745A3.138,3.138,0,0,0,210.657,178.3Z" transform="translate(-203.325 -174.364)"/><path class="bu" d="M210.67,178.351a3.228,3.228,0,0,0-3.6,2.717,3.107,3.107,0,0,0,2.946,3.316,3.228,3.228,0,0,0,3.6-2.717A3.107,3.107,0,0,0,210.67,178.351Z" transform="translate(-203.341 -174.383)"/><path class="bv" d="M210.684,178.4a3.2,3.2,0,0,0-3.559,2.689,3.075,3.075,0,0,0,2.916,3.282,3.2,3.2,0,0,0,3.559-2.689A3.074,3.074,0,0,0,210.684,178.4Z" transform="translate(-203.357 -174.402)"/><path class="bw" d="M210.7,178.45a3.163,3.163,0,0,0-3.522,2.662,3.043,3.043,0,0,0,2.886,3.248,3.161,3.161,0,0,0,3.522-2.661A3.044,3.044,0,0,0,210.7,178.45Z" transform="translate(-203.374 -174.421)"/><path class="bx" d="M210.711,178.5a3.129,3.129,0,0,0-3.486,2.634,3.011,3.011,0,0,0,2.856,3.214,3.128,3.128,0,0,0,3.485-2.633A3.011,3.011,0,0,0,210.711,178.5Z" transform="translate(-203.391 -174.44)"/><path class="by" d="M210.724,178.55a3.1,3.1,0,0,0-3.449,2.606,2.98,2.98,0,0,0,2.826,3.181,3.1,3.1,0,0,0,3.448-2.606A2.98,2.98,0,0,0,210.724,178.55Z" transform="translate(-203.407 -174.459)"/><path class="bz" d="M210.737,178.6a3.063,3.063,0,0,0-3.412,2.579,2.947,2.947,0,0,0,2.8,3.147,3.064,3.064,0,0,0,3.413-2.578A2.948,2.948,0,0,0,210.737,178.6Z" transform="translate(-203.424 -174.478)"/><path class="ca" d="M210.75,178.65a3.031,3.031,0,0,0-3.376,2.551,2.917,2.917,0,0,0,2.766,3.113,3.031,3.031,0,0,0,3.376-2.551A2.916,2.916,0,0,0,210.75,178.65Z" transform="translate(-203.44 -174.498)"/><path class="cb" d="M210.763,178.7a3,3,0,0,0-3.339,2.524,2.884,2.884,0,0,0,2.735,3.079,3,3,0,0,0,3.339-2.523A2.885,2.885,0,0,0,210.763,178.7Z" transform="translate(-203.457 -174.516)"/><path class="cc" d="M210.777,178.749a2.965,2.965,0,0,0-3.3,2.5,2.853,2.853,0,0,0,2.705,3.046,2.964,2.964,0,0,0,3.3-2.5A2.853,2.853,0,0,0,210.777,178.749Z" transform="translate(-203.473 -174.536)"/><ellipse class="cd" cx="2.985" cy="2.753" rx="2.985" ry="2.753" transform="translate(4.02 4.231)"/><path class="ce" d="M210.8,178.85a2.9,2.9,0,0,0-3.228,2.439,2.79,2.79,0,0,0,2.645,2.978,2.9,2.9,0,0,0,3.228-2.44A2.789,2.789,0,0,0,210.8,178.85Z" transform="translate(-203.506 -174.574)"/><path class="cf" d="M210.816,178.9a2.865,2.865,0,0,0-3.192,2.412,2.758,2.758,0,0,0,2.615,2.944,2.866,2.866,0,0,0,3.192-2.412A2.758,2.758,0,0,0,210.816,178.9Z" transform="translate(-203.523 -174.593)"/><path class="cg" d="M210.829,178.95a2.833,2.833,0,0,0-3.155,2.384,2.726,2.726,0,0,0,2.585,2.91,2.833,2.833,0,0,0,3.155-2.385A2.726,2.726,0,0,0,210.829,178.95Z" transform="translate(-203.539 -174.613)"/><path class="ch" d="M210.843,179a2.8,2.8,0,0,0-3.118,2.357,2.7,2.7,0,0,0,2.555,2.876,2.8,2.8,0,0,0,3.118-2.357A2.7,2.7,0,0,0,210.843,179Z" transform="translate(-203.556 -174.631)"/><path class="ci" d="M210.856,179.049a2.768,2.768,0,0,0-3.082,2.329,2.662,2.662,0,0,0,2.525,2.842,2.766,2.766,0,0,0,3.082-2.329A2.663,2.663,0,0,0,210.856,179.049Z" transform="translate(-203.572 -174.651)"/><path class="cj" d="M210.869,179.1a2.734,2.734,0,0,0-3.045,2.3,2.63,2.63,0,0,0,2.495,2.808,2.733,2.733,0,0,0,3.045-2.3A2.631,2.631,0,0,0,210.869,179.1Z" transform="translate(-203.589 -174.67)"/><path class="ck" d="M210.882,179.149a2.7,2.7,0,0,0-3.008,2.273,2.6,2.6,0,0,0,2.465,2.775,2.7,2.7,0,0,0,3.008-2.273A2.6,2.6,0,0,0,210.882,179.149Z" transform="translate(-203.606 -174.689)"/><path class="cl" d="M210.9,179.2a2.667,2.667,0,0,0-2.971,2.246,2.567,2.567,0,0,0,2.435,2.741,2.669,2.669,0,0,0,2.972-2.246A2.568,2.568,0,0,0,210.9,179.2Z" transform="translate(-203.622 -174.708)"/><path class="cm" d="M210.908,179.249a2.635,2.635,0,0,0-2.935,2.218,2.537,2.537,0,0,0,2.405,2.707,2.635,2.635,0,0,0,2.935-2.218A2.536,2.536,0,0,0,210.908,179.249Z" transform="translate(-203.638 -174.727)"/></g><path class="co" d="M188.546,172.24s-1.9,1.591-.05,2.994c1.607,1.215,4.766.947,4.766.947S190.955,169.789,188.546,172.24Z" transform="translate(-11.343 -14.68)"/><path class="co" d="M206.936,177.419a15.189,15.189,0,0,0,2.837.961c2.131.516,3.977-.991,3.935-3.435C213.706,174.837,209.687,173.077,206.936,177.419Z" transform="translate(-17.7 -15.759)"/><path class="cp" d="M189.2,166.463l.291.439s2.962-1.673,5.446,2.187l.38-1.489A4.328,4.328,0,0,0,189.2,166.463Z" transform="translate(-11.843 -12.367)"/><path class="cp" d="M207.6,168.9l.056,1.529c3.259-3.334,5.806-1.156,5.806-1.156l.378-.378C210.662,165.862,207.6,168.9,207.6,168.9Z" transform="translate(-17.92 -13.101)"/><path class="cq" d="M193.017,184.7s-.189,5.047,5.015,5.439c4.812.363,6.544-4.514,6.544-4.514C197.278,190.111,193.017,184.7,193.017,184.7Z" transform="translate(-13.104 -19.659)"/><path class="co" d="M202.962,187.164a8.223,8.223,0,0,1-8.743-.889,8.027,8.027,0,0,1-.652,1.14,4.914,4.914,0,0,0,4.646,3.328,5.958,5.958,0,0,0,5.106-2.157A4.913,4.913,0,0,1,202.962,187.164Z" transform="translate(-13.286 -20.259)"/><path class="cr" d="M202.962,187.164a8.223,8.223,0,0,1-8.743-.889,8.027,8.027,0,0,1-.652,1.14,5.37,5.37,0,0,0,.563,1.137,3.794,3.794,0,0,1,2.033-.358,17.065,17.065,0,0,1,2.138.2,5.232,5.232,0,0,1,3.245,1.644,6.647,6.647,0,0,0,1.774-1.447A4.913,4.913,0,0,1,202.962,187.164Z" transform="translate(-13.286 -20.259)"/><path class="f" d="M201.267,175.213l-1.466.133a2,2,0,0,1-.49,2.126s-3.178-.23-2.865,2.433c.665,2.47,5.742,2.591,5.429-1.848A14.183,14.183,0,0,0,201.267,175.213Z" transform="translate(-14.229 -16.031)"/><path class="cs" d="M199.831,175.38a2,2,0,0,1-.49,2.126s-2.447-.168-2.826,1.6a9.816,9.816,0,0,0,2.85.441c1.1-1.22,1.831-2.774,1.313-4.244Z" transform="translate(-14.26 -16.065)"/><path class="i" d="M196.451,182.658c0,.032,0,.059,0,.092.535,1.986,3.92,2.451,5.064.25A8.117,8.117,0,0,1,196.451,182.658Z" transform="translate(-14.238 -18.876)"/><path class="ct" d="M192.725,173.357a1.112,1.112,0,0,0-.33-.294c-.735-.412-1.4.5-1.638,1.016-.417.9-.259,1.823.354,2.065,1.1.435,2.2-1.266,1.991-2.1a1.638,1.638,0,0,0-.216-.455A2.783,2.783,0,0,0,192.725,173.357Z" transform="translate(-12.281 -15.169)"/><path class="cu" d="M212.893,174.823c-.612-.242-1.447.29-1.864,1.189s-.259,1.823.354,2.065,1.447-.29,1.865-1.189S213.506,175.064,212.893,174.823Z" transform="translate(-18.975 -15.859)"/><path class="cp" d="M190.32,170.232c-1.689-.7-2.855,1.239-2.855,1.239l-.3-.568-.706.771.995.85s1.04-1.756,2.343-1.35,3.058,4.4,3.058,4.4S192.009,170.93,190.32,170.232Z" transform="translate(-10.94 -14.069)"/><path class="cp" d="M214.353,174.136a4.317,4.317,0,0,0-3.735-1.114c-2.407.354-3.681,3.81-3.681,3.81a10.377,10.377,0,0,1,3.922-2.65,2.674,2.674,0,0,1,2.778,1.176l1.954-.828-.421-1.234Z" transform="translate(-17.7 -15.172)"/><path class="cv" d="M211.639,153.5s-4.915-15.276-17.7-12.823c-8.611,1.652-14.876,8.941-18.574,18.729,6.779-6.455,20.981-4.618,30.091-7.439-2.954,6.876,2.53,12.484,7.522,17.535a10.588,10.588,0,0,1,2.117,3.124C216.593,163.187,215.228,153.21,211.639,153.5Z" transform="translate(-7.277 -2.727)"/><path class="cw" d="M219.065,165.772a10.922,10.922,0,0,0,1.2,4.568,29.842,29.842,0,0,0,9.492-.845c-.113-.748-.248-1.452-.413-2.095A18.158,18.158,0,0,1,219.065,165.772Z" transform="translate(-21.706 -12.422)"/><path class="cw" d="M198.391,140.892a20.021,20.021,0,0,0-9.108,4.514,19.265,19.265,0,0,0,5.914,8.972c3.2-.373,6.46-.631,9.489-1.079C201.106,150.218,197.671,145.31,198.391,140.892Z" transform="translate(-11.871 -2.911)"/><path class="f" d="M225.077,177.613c-1.353-.573-3.147.456-4.007,2.3s-.461,3.8.891,4.375,3.147-.457,4.007-2.3S226.429,178.186,225.077,177.613Z" transform="translate(-22.218 -16.887)"/><path class="i" d="M210.876,184.652c-2.346,5.007-7.988,9.25-13.8,9.549a12.857,12.857,0,0,1-7.832-2.28,11.27,11.27,0,0,0,7.279,3.429c5.587.558,11.434-3.474,14.469-8.728a1.94,1.94,0,0,0,.611.415c1.288.545,2.974-.363,3.875-2.042a7.025,7.025,0,0,1-1.682.86A3.011,3.011,0,0,1,210.876,184.652Z" transform="translate(-11.858 -19.639)"/><path class="i" d="M223.1,181.534l1.429.307a2.694,2.694,0,0,1,1.715-2.357C223.891,178.481,223.1,181.534,223.1,181.534Z" transform="translate(-23.037 -17.586)"/><path class="co" d="M191.239,175.584c.008.238-.293.478-.672.536s-.693-.088-.7-.326.293-.478.672-.536S191.232,175.346,191.239,175.584Z" transform="translate(-12.064 -16.043)"/><path class="co" d="M211.578,177.491c.008.238-.293.478-.672.536s-.693-.088-.7-.326.293-.478.672-.536S211.57,177.253,211.578,177.491Z" transform="translate(-18.779 -16.772)"/><path class="cx" d="M193.017,184.7a9.209,9.209,0,0,0,4.835,1.676,19.314,19.314,0,0,0,6.725-.751,8.863,8.863,0,0,1-6.544,1.8C194.094,186.946,193.017,184.7,193.017,184.7Z" transform="translate(-13.104 -19.659)"/><path class="cy" d="M192.962,184.7s.463,4.28,4.482,4.729c3.537.4,7.078-3.8,7.078-3.8s-1.55,5.47-7.049,5.1C191.722,190.343,192.962,184.7,192.962,184.7Z" transform="translate(-13.049 -19.659)"/><path class="cz" d="M198.82,195.337a7.394,7.394,0,0,0,.933.064.588.588,0,0,1,.614.753,1.28,1.28,0,0,1-2.249-.074A.6.6,0,0,1,198.82,195.337Z" transform="translate(-14.779 -23.721)"/></g></svg>