<svg xmlns="http://www.w3.org/2000/svg" xmlns:xlink="http://www.w3.org/1999/xlink" width="28" height="28.139" viewBox="0 0 28 28.139"><defs><style>.a{fill:url(#a);}</style><linearGradient id="a" x1="0.5" x2="0.5" y2="1" gradientUnits="objectBoundingBox"><stop offset="0" stop-color="#3b7ded"/><stop offset="1" stop-color="#183377"/></linearGradient></defs><g transform="translate(-3.31 -3)"><path class="a" d="M30.848,21.654c.194-.383.155-.524.155-1.756a1.373,1.373,0,0,0-1.373-1.373h-.422a5.333,5.333,0,1,0-7.879-2.076c1.179,2.489,3.1,2.076.374,2.076A1.373,1.373,0,0,0,20.33,19.9c0,.97-.155,1.785.64,2.29a1.354,1.354,0,0,0-.155.621,5.907,5.907,0,0,0,.068,1.538,1.407,1.407,0,0,0-1.038.335,1.407,1.407,0,0,0-1.038-.335,4.873,4.873,0,0,0,.068-1.538,1.354,1.354,0,0,0-.155-.621c.8-.485.64-1.305.64-2.29a1.373,1.373,0,0,0-1.373-1.373c-.277,0-.082.063-.082-.4a5.584,5.584,0,0,0-.078-1.582,1.373,1.373,0,0,0,1.048-1.329V14.076A1.373,1.373,0,0,0,17.5,12.7h-.907a5.333,5.333,0,1,0-7.879-2.076C9.841,13,11.549,12.7,9.574,12.7A1.373,1.373,0,0,0,8.2,14.076c0,1.223-.024,1.276.078,1.582a1.373,1.373,0,0,0-1.048,1.329v1.135A1.383,1.383,0,0,0,8.755,19.5,5.4,5.4,0,0,0,4.427,21.79a.485.485,0,0,0,.8.553,4.366,4.366,0,1,1-.592,3.75.485.485,0,1,0-.931.272,5.337,5.337,0,0,0,5.536,3.8,1.363,1.363,0,0,0,1.31.97h7.927a1.373,1.373,0,0,0,1.373-1.373c0-1.174.044-1.363-.155-1.756a1.179,1.179,0,0,0,.155-.116,1.368,1.368,0,0,0,.888.335c.277,0,.082-.063.082.4v1.135a1.373,1.373,0,0,0,1.373,1.373h7.927a1.373,1.373,0,0,0,1.373-1.373V28.63a1.373,1.373,0,0,0-1.373-1.373c-.277,0-.082.063-.082-.4a5.907,5.907,0,0,0-.068-1.538,1.388,1.388,0,0,0,1.523-1.373C31.489,22.954,31.644,22.159,30.848,21.654Zm-8.641-5.623a4.492,4.492,0,0,1-.378-2.426,4.324,4.324,0,1,1,.378,2.421ZM21.3,19.912a.4.4,0,0,1,.4-.4H29.63a.4.4,0,0,1,.4.4v1.135a.4.4,0,0,1-.4.4H21.7a.4.4,0,0,1-.4-.4ZM19.36,25.734v1.135a.4.4,0,0,1-.4.4H13.538a5.055,5.055,0,0,0,.548-1.819c0-.18-.519-.121,4.851-.121a.4.4,0,0,1,.422.388Zm-5.24-1.388a5.337,5.337,0,0,0-.582-1.941h3.944a.4.4,0,0,1,.4.4v1.135a.4.4,0,0,1-.4.4ZM9.594,10.209a4.492,4.492,0,0,1-.378-2.426A4.324,4.324,0,1,1,9.594,10.2Zm-.422,3.881a.4.4,0,0,1,.4-.4H17.5a.4.4,0,0,1,.4.4v1.135a.4.4,0,0,1-.4.4H9.574a.4.4,0,0,1-.4-.4ZM8.2,18.137v-1.15a.4.4,0,0,1,.4-.4h7.927a.4.4,0,0,1,.4.4v1.135a.4.4,0,0,1-.4.4H8.6a.4.4,0,0,1-.4-.4Zm1.606,1.455c.175-.146-.359-.1,8.18-.1a.4.4,0,0,1,.4.4v1.135a.4.4,0,0,1-.4.4H12.922A5.337,5.337,0,0,0,9.807,19.592Zm9.067,10.174a.4.4,0,0,1-.4.4c-8.607,0-8.087.082-8.248-.194a5.371,5.371,0,0,0,2.693-1.747h5.555a.4.4,0,0,1,.4.4ZM30.518,28.63v1.135a.4.4,0,0,1-.4.4H22.188a.4.4,0,0,1-.4-.4V28.63a.4.4,0,0,1,.4-.4h7.927a.4.4,0,0,1,.4.4ZM29.063,25.72v1.135a.4.4,0,0,1-.4.4H20.733a.408.408,0,0,1-.4-.4V25.72a.4.4,0,0,1,.4-.4H28.66A.4.4,0,0,1,29.063,25.72Zm1.455-1.776a.4.4,0,0,1-.4.4H22.188a.4.4,0,0,1-.4-.4V22.809a.4.4,0,0,1,.4-.4h7.927a.4.4,0,0,1,.4.4Z" transform="translate(-0.19 0)"/><path class="a" d="M8.739,28.376H7.526a.485.485,0,0,0,0,.97h.485v.485a.485.485,0,0,0,.97,0v-.485a1.219,1.219,0,1,0-.243-2.426c-.32,0-.728.078-.728-.243a.243.243,0,0,1,.243-.243H9.467a.485.485,0,1,0,0-.97H8.981V24.98a.485.485,0,1,0-.97,0v.485a1.219,1.219,0,0,0,.243,2.426h.485a.243.243,0,1,1,0,.485ZM4.285,26.921a2.246,2.246,0,0,1,.063-.412.485.485,0,0,0-.941-.233,4.1,4.1,0,0,0-.1.645.488.488,0,1,0,.975,0Zm8.82-16.98h1.213a.485.485,0,0,0,0-.97h-.485V8.485a.485.485,0,1,0-.97,0v.509a1.213,1.213,0,0,0,.243,2.4c.32,0,.728-.078.728.243a.243.243,0,0,1-.243.243H12.377a.485.485,0,0,0,0,.97h.485v.485a.485.485,0,1,0,.97,0v-.485a1.219,1.219,0,0,0-.243-2.426h-.485a.243.243,0,1,1,0-.485Zm12.614,5.822h1.213a.485.485,0,1,0,0-.97h-.485v-.485a.485.485,0,1,0-.97,0v.509a1.213,1.213,0,0,0,.243,2.4c.32,0,.728-.078.728.243a.243.243,0,0,1-.243.243H24.991a.485.485,0,1,0,0,.97h.485v.485a.485.485,0,1,0,.97,0v-.485a1.219,1.219,0,0,0-.243-2.426h-.485a.243.243,0,0,1,0-.485Z" transform="translate(0 -2.574)"/></g></svg>