<svg xmlns="http://www.w3.org/2000/svg" width="22.555" height="23.909" viewBox="0 0 22.555 23.909"><defs><style>.a{fill:#fff;}</style></defs><g transform="translate(2761.225 -4325.983)"><path class="a" d="M-2760.579,4349.892a1.709,1.709,0,0,1-.646-1.488q.01-10.529.014-21.058a2.3,2.3,0,0,1,.221-.968c.242-.5.5-.514.867-.11q3.458,3.809,6.913,7.62l3.628,4q-3.834,4.214-7.648,8.406c-1.085,1.2-2.162,2.4-3.242,3.6Z"/><path class="a" d="M-2635.1,4409.619l-3.465-3.788,3.465-3.792c1.816,1.006,3.624,1.979,5.4,3,.812.469.8,1.114-.023,1.588C-2631.492,4407.646-2633.286,4408.613-2635.1,4409.619Z" transform="translate(-109.568 -67.942)"/><path class="a" d="M-2733.879,4455.318l9.464-10.4,3.252,3.529-12.644,6.934Z" transform="translate(-24.428 -106.242)"/><path class="a" d="M-2733.227,4332.9l12.5,6.888-3.213,3.534-9.361-10.329Z" transform="translate(-24.948 -6.178)"/></g></svg>