<svg xmlns="http://www.w3.org/2000/svg" width="138" height="138" viewBox="0 0 138 138"><defs><style>.a{fill:#ffb555;}.b{fill:#9ce5f4;}.c{fill:#fa5655;}.d{fill:#00d17d;}.e{fill:#03c577;}.f{fill:#f7b14d;}.g{fill:#c6803f;}.h{fill:#fff;}</style></defs><g transform="translate(-901 -3015)"><g transform="translate(901 3015)"><circle class="a" cx="69" cy="69" r="69"/></g><g transform="translate(5176.108 944.821)"><rect class="b" width="76.784" height="63.574" rx="7" transform="translate(-4243.5 2122.419)"/><rect class="b" width="54.304" height="14.89" transform="translate(-4232.26 2112.722)"/><path class="c" d="M-4157.056,2113.6h-54.329a2.616,2.616,0,0,1-2.615-2.615v-3.306a8.677,8.677,0,0,1,8.677-8.677h42.206a8.677,8.677,0,0,1,8.677,8.677v3.306A2.615,2.615,0,0,1-4157.056,2113.6Z" transform="translate(-20.887)"/><path class="d" d="M-4179.866,2174.035l-21.737,44.735a.933.933,0,0,0,.432,1.247l28.63,13.911a.933.933,0,0,0,1.247-.431l21.737-44.735a.934.934,0,0,0-.432-1.247l-28.631-13.912A.933.933,0,0,0-4179.866,2174.035Z" transform="translate(-29.598 -52.756)"/><path class="e" d="M-4155.385,2199.695a4.045,4.045,0,0,1-5.4,1.869.932.932,0,0,0-1.246.431l-13.912,28.63a.933.933,0,0,0,.432,1.247,4.046,4.046,0,0,1,1.869,5.4.932.932,0,0,0,.431,1.246l12.526,6.086a.933.933,0,0,0,1.247-.431,4.045,4.045,0,0,1,5.4-1.868.932.932,0,0,0,1.246-.431l13.912-28.631a.933.933,0,0,0-.432-1.247,4.046,4.046,0,0,1-1.868-5.4.933.933,0,0,0-.431-1.246l-12.526-6.086A.933.933,0,0,0-4155.385,2199.695Z" transform="translate(-47.766 -70.924)"/><path class="f" d="M-4127.324,2257.492a9.9,9.9,0,0,1-13.212,4.571,9.9,9.9,0,0,1-4.571-13.211,9.9,9.9,0,0,1,13.212-4.571A9.9,9.9,0,0,1-4127.324,2257.492Zm-16.1-7.825a8.03,8.03,0,0,0,3.708,10.719,8.029,8.029,0,0,0,10.718-3.708,8.029,8.029,0,0,0-3.708-10.719A8.029,8.029,0,0,0-4143.429,2249.666Z" transform="translate(-68.963 -102.162)"/><path class="g" d="M-4128.364,2265.916a1.058,1.058,0,0,1-1.413.489,1.058,1.058,0,0,1-.489-1.413l.87-1.79a.933.933,0,0,0-.432-1.246.933.933,0,0,0-1.247.431l-.462.951-.951-.462a.932.932,0,0,0-1.246.431.933.933,0,0,0,.431,1.247l1.089.529a2.926,2.926,0,0,0,1.621,3,2.925,2.925,0,0,0,3.9-1.351,1.059,1.059,0,0,1,1.413-.489,1.058,1.058,0,0,1,.489,1.412l-.87,1.79a.933.933,0,0,0,.431,1.246.933.933,0,0,0,1.247-.431l.462-.951.951.462a.932.932,0,0,0,1.246-.431.932.932,0,0,0-.431-1.246l-1.089-.529a2.927,2.927,0,0,0-1.621-3A2.925,2.925,0,0,0-4128.364,2265.916Z" transform="translate(-77.653 -115.313)"/><g transform="translate(-4232.171 2117.542)"><path class="d" d="M-4175.542,2162.6l-28.63,13.912a.932.932,0,0,0-.431,1.246l21.737,44.735a.932.932,0,0,0,1.247.431l28.63-13.911a.933.933,0,0,0,.431-1.247l-21.737-44.735A.932.932,0,0,0-4175.542,2162.6Z" transform="translate(4204.697 -2162.51)"/><path class="e" d="M-4163.687,2188.263l-12.525,6.086a.932.932,0,0,0-.431,1.246,4.046,4.046,0,0,1-1.869,5.4.933.933,0,0,0-.432,1.246l13.912,28.631a.932.932,0,0,0,1.246.431,4.047,4.047,0,0,1,5.4,1.868.932.932,0,0,0,1.246.431l12.526-6.086a.932.932,0,0,0,.431-1.246,4.046,4.046,0,0,1,1.869-5.4.932.932,0,0,0,.431-1.247l-13.912-28.63a.932.932,0,0,0-1.246-.431,4.045,4.045,0,0,1-5.4-1.868A.933.933,0,0,0-4163.687,2188.263Z" transform="translate(4186.529 -2180.678)"/><path class="a" d="M-4143.534,2233.28a9.9,9.9,0,0,1,13.211,4.571,9.9,9.9,0,0,1-4.571,13.211,9.9,9.9,0,0,1-13.211-4.571A9.9,9.9,0,0,1-4143.534,2233.28Zm.815,1.678a8.029,8.029,0,0,0-3.709,10.718,8.029,8.029,0,0,0,10.719,3.709,8.029,8.029,0,0,0,3.708-10.719A8.028,8.028,0,0,0-4142.719,2234.958Z" transform="translate(4165.331 -2211.915)"/><path class="h" d="M-4133.591,2253.565a2.927,2.927,0,0,0-1.621,3l-1.088.529a.933.933,0,0,0-.432,1.246.933.933,0,0,0,1.247.431l.951-.462.462.951a.933.933,0,0,0,1.247.431.932.932,0,0,0,.431-1.246l-.87-1.79a1.058,1.058,0,0,1,.489-1.412,1.058,1.058,0,0,1,1.413.489,2.925,2.925,0,0,0,3.9,1.351,2.925,2.925,0,0,0,1.621-3l1.089-.529a.933.933,0,0,0,.431-1.247.933.933,0,0,0-1.247-.431l-.951.462-.462-.951a.932.932,0,0,0-1.246-.431.932.932,0,0,0-.431,1.246l.87,1.79a1.059,1.059,0,0,1-.489,1.413,1.058,1.058,0,0,1-1.412-.489A2.926,2.926,0,0,0-4133.591,2253.565Z" transform="translate(4156.642 -2225.067)"/></g><path class="a" d="M-4108.385,2333.1a9.9,9.9,0,0,1-9.886-9.885,9.9,9.9,0,0,1,9.886-9.885,9.9,9.9,0,0,1,9.885,9.885A9.9,9.9,0,0,1-4108.385,2333.1Z" transform="translate(-88.668 -151.758)"/><path class="g" d="M-4091.5,2329.524a1.058,1.058,0,0,1-1.057-1.057,1.058,1.058,0,0,1,1.057-1.057h1.99a.932.932,0,0,0,.932-.933.932.932,0,0,0-.932-.932h-1.057v-1.057a.933.933,0,0,0-.932-.933.932.932,0,0,0-.933.933v1.21a2.927,2.927,0,0,0-1.99,2.769,2.925,2.925,0,0,0,2.922,2.922,1.058,1.058,0,0,1,1.057,1.057,1.058,1.058,0,0,1-1.057,1.057h-1.99a.933.933,0,0,0-.933.933.933.933,0,0,0,.933.932h1.057v1.057a.932.932,0,0,0,.933.932.933.933,0,0,0,.933-.932v-1.21a2.927,2.927,0,0,0,1.989-2.769A2.925,2.925,0,0,0-4091.5,2329.524Z" transform="translate(-105.554 -158.995)"/><path class="a" d="M-4195.385,2333.1a9.9,9.9,0,0,1-9.886-9.885,9.9,9.9,0,0,1,9.886-9.885,9.9,9.9,0,0,1,9.885,9.885A9.9,9.9,0,0,1-4195.385,2333.1Z" transform="translate(-27.068 -151.758)"/><path class="g" d="M-4178.5,2329.524a1.058,1.058,0,0,1-1.057-1.057,1.058,1.058,0,0,1,1.057-1.057h1.99a.932.932,0,0,0,.933-.933.932.932,0,0,0-.933-.932h-1.057v-1.057a.933.933,0,0,0-.933-.933.932.932,0,0,0-.932.933v1.21a2.927,2.927,0,0,0-1.99,2.769,2.925,2.925,0,0,0,2.922,2.922,1.058,1.058,0,0,1,1.057,1.057,1.058,1.058,0,0,1-1.057,1.057h-1.989a.933.933,0,0,0-.933.933.933.933,0,0,0,.933.932h1.057v1.057a.932.932,0,0,0,.932.932.933.933,0,0,0,.933-.932v-1.21a2.927,2.927,0,0,0,1.989-2.769A2.925,2.925,0,0,0-4178.5,2329.524Z" transform="translate(-43.955 -158.995)"/></g></g></svg>