<svg xmlns="http://www.w3.org/2000/svg" xmlns:xlink="http://www.w3.org/1999/xlink" width="559" height="578.967" viewBox="0 0 559 578.967"><defs><style>.a{fill:#3b7ded;}.b{fill:url(#a);}.c{fill:#fc4242;}.d{fill:#00d17d;}.e{fill:#ffb555;}</style><linearGradient id="a" x1="0.5" x2="0.5" y2="1" gradientUnits="objectBoundingBox"><stop offset="0" stop-color="#3b7ded"/><stop offset="1" stop-color="#183377"/></linearGradient></defs><g transform="translate(-1006 -197.806)"><path class="a" d="M57.266,5.365c6.849-.185,20.625,1.482,33.958,7.99,33.666,16.433,75.852,52.2,76.573,76.24.35,11.652-1.255,25.96-8.323,38.619-12.793,22.917-39.2,41.949-70.974,41.949-48.877,0-85.5-47.55-85.5-94.218S32.63,6.03,57.266,5.365Z" transform="translate(1252.517 197.777) rotate(91)"/><path class="b" d="M213.493-1.77C310.067,6.19,371.619,77.883,371.619,164.316s-88.468,280.17-193.678,280.17c-51.237,0-75.576-159.027-105.064-185.719-30.6-27.7-52.611-54.9-59.961-66.328C-1.41,170.153-.038,142.223,0,140.969,2.518,55.947,117.982-9.641,213.493-1.77Z" transform="translate(1504.235 405.168) rotate(91)"/><circle class="c" cx="17" cy="17" r="17" transform="translate(1531 665)"/><circle class="c" cx="8" cy="8" r="8" transform="translate(1085 449)"/><circle class="d" cx="5.5" cy="5.5" r="5.5" transform="translate(1500 497)"/><circle class="d" cx="23.5" cy="23.5" r="23.5" transform="translate(1006 631)"/><circle class="e" cx="9.5" cy="9.5" r="9.5" transform="translate(1497 358)"/></g></svg>