<svg xmlns="http://www.w3.org/2000/svg" width="138" height="138" viewBox="0 0 138 138"><defs><style>.a{fill:#00d17d;}.b{fill:#fdfefe;}.c{fill:#eee;}.d{fill:#262e3a;}.e{fill:#ed5c56;}</style></defs><g transform="translate(1229 -645.253)"><circle class="a" cx="69" cy="69" r="69" transform="translate(-1229 645.253)"/><rect class="b" width="56.485" height="70.207" rx="11" transform="translate(-1188.236 682.38)"/><path class="c" d="M4160.688,1174.459c-6.9,0-12.5,5.024-12.5,10.982h24.994C4173.186,1179.483,4167.591,1174.459,4160.688,1174.459Zm0,3.229a1.335,1.335,0,1,1,1.506-1.324A1.424,1.424,0,0,1,4160.688,1177.688Z" transform="translate(-5320.682 -499.851)"/><rect class="d" width="40.971" height="3.05" transform="translate(-1180.479 695.217)"/><rect class="d" width="40.971" height="3.05" transform="translate(-1180.479 702.232)"/><rect class="d" width="40.971" height="3.05" transform="translate(-1180.479 709.247)"/><rect class="d" width="40.971" height="3.05" transform="translate(-1180.479 716.261)"/><path class="e" d="M4147.929,1197.646h-37.077a9.877,9.877,0,0,0-9.64,10.165v39.219l3.209,0,14.412.016c1.155.164,1.592.5,2.015,2.058l.019,15.335v3.411h27.064a10.015,10.015,0,0,0,9.768-10.2v-49.84A9.982,9.982,0,0,0,4147.929,1197.646Zm6.507,60.005a6.681,6.681,0,0,1-6.507,6.785H4124.12l-.025-15.78c-.63-2.616-1.692-4.617-5.034-5.024l-14.588-.016v-35.806a6.544,6.544,0,0,1,6.379-6.749h37.077a6.649,6.649,0,0,1,6.507,6.749Z" transform="translate(-5289.448 -515.266)"/><path class="e" d="M4118.161,1356.969s2.5-11.431-8.356-9.51c0,0-2.567.41-8.619-2.472-.467-.222,11.693,15.5,19.761,20.851A12.7,12.7,0,0,1,4118.161,1356.969Z" transform="translate(-5289.422 -613.224)"/><path class="a" d="M-3805.743,9.2c-1.378,0-1.378,0-1.379-1.413,0-1.172,0-1.193-1.167-1.378a12.917,12.917,0,0,1-2.565-.773c-.324-.123-.44-.263-.277-.624a14.746,14.746,0,0,0,.613-1.655c.127-.405.307-.417.669-.26a8.744,8.744,0,0,0,4.554.744c.7-.083,1.3-.291,1.479-1.075a1.466,1.466,0,0,0-.889-1.676c-.943-.546-2.012-.8-3-1.251-.321-.147-.656-.268-.967-.433a3.6,3.6,0,0,1-2.144-3.995,3.61,3.61,0,0,1,2.82-3.334c.758-.206.912-.548.886-1.255-.054-1.425-.016-1.426,1.419-1.426,1.357,0,1.4,0,1.339,1.369-.035.753.138,1.116.952,1.117a7.034,7.034,0,0,1,1.989.467.4.4,0,0,1,.311.577c-.166.565-.331,1.132-.444,1.709-.084.425-.22.52-.651.358a8.72,8.72,0,0,0-3.821-.548c-1,.082-1.519.631-1.448,1.46a1.255,1.255,0,0,0,.835,1.055c.728.33,1.48.61,2.222.908a10.8,10.8,0,0,1,2.191,1.137,3.925,3.925,0,0,1,1.725,4.247,3.749,3.749,0,0,1-3.077,3.044c-.649.161-.864.4-.776,1.028a5.841,5.841,0,0,1,.007.92c-.021,1.1.168.937-.988.957C-3805.459,9.206-3805.6,9.2-3805.743,9.2Z" transform="translate(2660.883 733.878)"/></g></svg>