<svg xmlns="http://www.w3.org/2000/svg" xmlns:xlink="http://www.w3.org/1999/xlink" width="32" height="32" viewBox="0 0 32 32"><defs><style>.a{fill:none;}.b{fill:url(#a);}</style><linearGradient id="a" x1="0.5" x2="0.5" y2="1" gradientUnits="objectBoundingBox"><stop offset="0" stop-color="#3b7ded"/><stop offset="1" stop-color="#183377"/></linearGradient></defs><rect class="a" width="32" height="32"/><path class="b" d="M28.236,11.028A1.061,1.061,0,0,1,29,12V24a1.144,1.144,0,0,1-.877,1.011,20.086,20.086,0,0,1-12.2.016,19.512,19.512,0,0,0-6.15-1,18.114,18.114,0,0,0-5.459.921,1.186,1.186,0,0,1-.65-.006A1.051,1.051,0,0,1,3,24V8a1.146,1.146,0,0,1,.877-1.012,20.108,20.108,0,0,1,12.2-.016,21.774,21.774,0,0,0,2.611.693,18.12,18.12,0,0,0,9-.614l.185-.043a1,1,0,0,1,.4,1.956l-.1.032a20.112,20.112,0,0,1-12.246.031,19.636,19.636,0,0,0-5.655-1,18.042,18.042,0,0,0-5.258.7L5,22.662a20.025,20.025,0,0,1,11.075.31,18.868,18.868,0,0,0,10.913.3L27,12s.262-1.16,1.236-.972ZM24.05,20.023a1.039,1.039,0,0,1,.76,1.585,1.673,1.673,0,0,1-1.3.465,19.393,19.393,0,0,1-3.55-.05,1.056,1.056,0,0,1-.881-1.394,1.135,1.135,0,0,1,1.209-.583,17.627,17.627,0,0,0,3.6-.018A.98.98,0,0,1,24.05,20.023Zm-8.024-8.006a4.1,4.1,0,0,1,3.89,3.254,4.085,4.085,0,0,1-4.644,4.645,4.091,4.091,0,0,1-3.213-3.336,4.1,4.1,0,0,1,3.864-4.563h.1Zm-.039,2A2.059,2.059,0,0,0,14.2,16.836a1.983,1.983,0,1,0,3.553-1.759,2.019,2.019,0,0,0-1.716-1.06h-.052Zm-5.921-3.995a19.2,19.2,0,0,1,1.977.11c.219.024.889.329.951.892a1.038,1.038,0,0,1-1.063,1.107,22.016,22.016,0,0,0-3.826,0,1.3,1.3,0,0,1-.8-.277,1.032,1.032,0,0,1,.552-1.707A15.433,15.433,0,0,1,10.066,10.022Z"/></svg>