<svg xmlns="http://www.w3.org/2000/svg" xmlns:xlink="http://www.w3.org/1999/xlink" width="26" height="26" viewBox="0 0 26 26"><defs><style>.a{fill:url(#a);}</style><linearGradient id="a" x1="0.5" x2="0.5" y2="1" gradientUnits="objectBoundingBox"><stop offset="0" stop-color="#3b7ded"/><stop offset="1" stop-color="#183377"/></linearGradient></defs><g transform="translate(-6.06 -6.05)"><path class="a" d="M7.973,20.92a6.492,6.492,0,0,0-1.391,7.152.708.708,0,0,0,.529.428.744.744,0,0,0,.652-.2l3.283-3.29L13.1,27.064l-3.29,3.283a.7.7,0,0,0-.2.652.74.74,0,0,0,.428.529,6.592,6.592,0,0,0,2.558.522,6.521,6.521,0,0,0,6.384-7.79l5.29-5.29a6.515,6.515,0,0,0,7.268-8.935.708.708,0,0,0-.529-.428.723.723,0,0,0-.652.2l-3.283,3.283-2.051-2.051,3.29-3.283a.7.7,0,0,0,.2-.652.724.724,0,0,0-.428-.529,6.515,6.515,0,0,0-8.935,7.268l-5.29,5.29A6.589,6.589,0,0,0,7.973,20.92Zm6.623-.471,5.862-5.862a.727.727,0,0,0,.188-.7,5.07,5.07,0,0,1,5.79-6.3l-2.942,2.942a.717.717,0,0,0-.21.514.748.748,0,0,0,.21.514l3.072,3.072a.722.722,0,0,0,1.022,0l2.942-2.942a5.07,5.07,0,0,1-6.3,5.79.722.722,0,0,0-.7.188l-5.862,5.862a.727.727,0,0,0-.188.7,5.07,5.07,0,0,1-5.79,6.3l2.942-2.942a.717.717,0,0,0,.21-.514.748.748,0,0,0-.21-.514L11.56,23.485a.735.735,0,0,0-1.022,0L7.6,26.427a5.07,5.07,0,0,1,6.3-5.79A.715.715,0,0,0,14.6,20.449Z" transform="translate(0)"/><path class="a" d="M19.291,26.465a.712.712,0,0,0,.514.21.742.742,0,0,0,.514-.21.722.722,0,0,0,0-1.022l-1.029-1.029a.722.722,0,0,0-1.022,1.022Zm6.145-6.152a.735.735,0,0,0,1.029,0,.722.722,0,0,0,0-1.022l-1.029-1.022a.722.722,0,0,0-1.022,1.022Z" transform="translate(-3.304 -3.306)"/></g></svg>