<svg xmlns="http://www.w3.org/2000/svg" width="138" height="138" viewBox="0 0 138 138"><defs><style>.a{fill:#fc4242;}.b{fill:#d1cfcf;}.c{fill:#eee;}.d{fill:#183377;}.e{fill:#3b7ded;}.f{fill:#fff;}.g{fill:#888;}.h{fill:#00d17d;}</style></defs><g transform="translate(1823 -645.253)"><g transform="translate(-1823 645.253)"><path class="a" d="M69,0A69,69,0,1,1,0,69,69,69,0,0,1,69,0Z"/><g transform="translate(2013.378 -3580.429)"><path class="b" d="M-1915.043,3733.372h-58.669a8.288,8.288,0,0,1-8.288-8.288V3685h75.244v40.084A8.287,8.287,0,0,1-1915.043,3733.372Z" transform="translate(0 -43.513)"/><path class="c" d="M-1915.043,3728.372h-58.669a8.288,8.288,0,0,1-8.288-8.288V3680h75.244v40.084A8.287,8.287,0,0,1-1915.043,3728.372Z" transform="translate(0 -39.752)"/><path class="d" d="M-1906.756,3649.977H-1982v-17.309a8.668,8.668,0,0,1,8.668-8.668h57.908a8.668,8.668,0,0,1,8.668,8.668Z" transform="translate(0 -8.834)"/><circle class="e" cx="5.956" cy="5.956" r="5.956" transform="translate(-1968.5 3615.941)"/><circle class="e" cx="5.956" cy="5.956" r="5.956" transform="translate(-1931.178 3615.941)"/><rect class="f" width="8.735" height="16.676" rx="4.368" transform="translate(-1966.912 3608)"/><rect class="f" width="9.529" height="16.676" rx="4.765" transform="translate(-1930.384 3608)"/><path class="f" d="M-1915.043,3724.371h-58.669a8.287,8.287,0,0,1-8.288-8.288V3676h75.244v40.084A8.287,8.287,0,0,1-1915.043,3724.371Z" transform="translate(0 -37.544)"/><rect class="g" width="11.911" height="11.117" transform="translate(-1975.647 3647.705)"/><rect class="g" width="11.911" height="11.117" transform="translate(-1958.971 3647.705)"/><rect class="g" width="11.117" height="11.117" transform="translate(-1941.501 3647.705)"/><rect class="g" width="11.117" height="11.117" transform="translate(-1924.825 3647.705)"/><rect class="g" width="11.911" height="11.911" transform="translate(-1975.647 3665.175)"/><rect class="g" width="11.911" height="11.911" transform="translate(-1958.971 3665.175)"/><rect class="g" width="11.117" height="11.911" transform="translate(-1941.501 3665.175)"/><rect class="h" width="11.117" height="11.911" transform="translate(-1924.825 3665.175)"/></g></g></g></svg>