<svg xmlns="http://www.w3.org/2000/svg" width="20.034" height="25.624" viewBox="0 0 20.034 25.624"><defs><style>.a{fill:#fff;}</style></defs><g transform="translate(2065.217 -4311.749)"><path class="a" d="M-2045.816,4403.918a5.3,5.3,0,0,0-2.663,4.987,5.41,5.41,0,0,0,3.3,4.583,11.09,11.09,0,0,1-1.542,3.2,19.464,19.464,0,0,1-1.8,2.23,2.969,2.969,0,0,1-3.276.755,7.1,7.1,0,0,1-.759-.278,5.515,5.515,0,0,0-4.662.115,5,5,0,0,1-1.036.328,2.754,2.754,0,0,1-2.428-.718,13.215,13.215,0,0,1-3.84-6.174,13.908,13.908,0,0,1-.66-5.11,6.593,6.593,0,0,1,4.345-5.944,5.174,5.174,0,0,1,3.565.045,16.2,16.2,0,0,0,1.76.6,1.989,1.989,0,0,0,.975-.005,26.422,26.422,0,0,1,3.214-.928,5.706,5.706,0,0,1,5.164,1.84,3.6,3.6,0,0,1,.228.284C-2045.9,4403.779-2045.866,4403.838-2045.816,4403.918Z" transform="translate(0 -82.516)"/><path class="a" d="M-1936.654,4311.749a7.566,7.566,0,0,1-1.453,4.771,4.932,4.932,0,0,1-3.886,1.816C-1942.713,4315.514-1939.782,4311.885-1936.654,4311.749Z" transform="translate(-113.141)"/></g></svg>