<svg xmlns="http://www.w3.org/2000/svg" width="138" height="138" viewBox="0 0 138 138"><defs><style>.a{fill:#ffb555;}.b{fill:#eee;}.c{fill:#fff;}.d{fill:#183377;}.e{fill:#00d17d;}</style></defs><g transform="translate(-901 -2592)"><g transform="translate(2724 1946.747)"><g transform="translate(-1823 645.253)"><circle class="a" cx="69" cy="69" r="69"/></g></g><g transform="translate(4826.285 2633.618)"><path class="b" d="M-3814.8,106.986q-.012,13.533-.024,27.067-.006,8.81,0,17.621a3.413,3.413,0,0,1-3.755,3.743q-33.592,0-67.184,0c-2.456,0-3.8-1.345-3.8-3.8q-.017-4.988-.028-9.977c.26-.288.508-.588.781-.862,3.724-3.729,7.463-7.443,11.172-11.188,1.788-1.805,3.514-3.672,5.285-5.493.211-.218.372-.673.844-.41,2.074,1.155,4.409,1.706,6.51,2.765a2.236,2.236,0,0,0,2.95-.531c4.975-4.566,10.013-9.061,15.011-13.6a1.271,1.271,0,0,1,1.512-.279c3.928,1.5,7.88,2.933,11.8,4.446a1.442,1.442,0,0,0,1.705-.3c1.515-1.382,3.054-2.736,4.578-4.108,2.968-2.674,5.94-5.343,8.887-8.04.457-.418.724-.383,1.11.057C-3816.593,105.077-3815.69,106.024-3814.8,106.986Z" transform="translate(-6.207 -90.053)"/><rect class="c" width="3.187" height="31.441" transform="translate(-3879.748 33.926)"/><rect class="c" width="3.187" height="31.441" transform="translate(-3871.038 33.926)"/><rect class="c" width="3.187" height="44.825" transform="translate(-3854.255 20.542)"/><rect class="c" width="3.187" height="44.825" transform="translate(-3840.446 20.542)"/><path class="d" d="M-3821.01,57.557c-.887-.962-1.789-1.909-2.651-2.891-.386-.44-.654-.475-1.111-.057-2.947,2.7-5.919,5.366-8.887,8.04-1.523,1.372-3.063,2.726-4.578,4.108a1.441,1.441,0,0,1-1.7.3c-3.922-1.513-7.874-2.949-11.8-4.446a1.272,1.272,0,0,0-1.512.279c-5,4.541-10.036,9.036-15.011,13.6a2.236,2.236,0,0,1-2.95.531c-2.1-1.059-4.437-1.61-6.51-2.765-.472-.263-.632.192-.844.41-1.771,1.821-3.5,3.688-5.285,5.493-3.708,3.744-7.449,7.458-11.172,11.188-.273.274-.521.574-.782.862-1.207.409-1.66.11-1.668-1.137-.012-1.8,0-3.61-.005-5.415a3.236,3.236,0,0,1,.949-2.4q8.213-8.227,16.429-16.452a.938.938,0,0,1,1.208-.2c2.35.968,4.724,1.879,7.07,2.855a1.212,1.212,0,0,0,1.492-.259c5.082-4.614,10.2-9.189,15.277-13.811a1.807,1.807,0,0,1,2.207-.455c3.838,1.522,7.726,2.919,11.592,4.373.441.166.8.322,1.248-.083q5.454-4.961,10.946-9.882a1.455,1.455,0,0,0,.154-.21c-.839-.9-1.691-1.792-2.527-2.7-.894-.973-.666-1.73.626-2.037q7.061-1.679,14.126-3.331c1.31-.305,1.862.275,1.482,1.547-1.383,4.635-2.791,9.263-4.167,13.9C-3819.628,57.37-3820.113,57.754-3821.01,57.557Z" transform="translate(0 -40.625)"/><path class="e" d="M-3803.021,19.073c-2.065,0-2.065,0-2.066-2.117,0-1.756,0-1.788-1.75-2.065a19.356,19.356,0,0,1-3.844-1.159c-.486-.185-.659-.394-.415-.935a22.145,22.145,0,0,0,.918-2.48c.19-.607.46-.625,1-.39a13.1,13.1,0,0,0,6.824,1.115c1.05-.124,1.945-.436,2.215-1.611a2.2,2.2,0,0,0-1.332-2.511c-1.413-.818-3.014-1.2-4.489-1.874-.48-.221-.982-.4-1.448-.649a5.39,5.39,0,0,1-3.212-5.986,5.409,5.409,0,0,1,4.226-5c1.136-.309,1.367-.822,1.327-1.88-.081-2.135-.024-2.137,2.126-2.136,2.033,0,2.1,0,2.006,2.051-.053,1.128.207,1.672,1.427,1.674a10.541,10.541,0,0,1,2.98.7.6.6,0,0,1,.466.865c-.248.846-.5,1.7-.666,2.561-.126.637-.329.78-.975.537a13.065,13.065,0,0,0-5.725-.822c-1.492.123-2.276.945-2.169,2.188A1.88,1.88,0,0,0-3804.34.733c1.091.494,2.217.914,3.33,1.36a16.179,16.179,0,0,1,3.284,1.7,5.881,5.881,0,0,1,2.584,6.363,5.617,5.617,0,0,1-4.61,4.56c-.972.241-1.294.6-1.163,1.54a8.713,8.713,0,0,1,.01,1.379c-.032,1.655.252,1.4-1.48,1.434C-3802.6,19.077-3802.809,19.074-3803.021,19.073Z" transform="translate(-67.949)"/></g></g></svg>