<svg xmlns="http://www.w3.org/2000/svg" xmlns:xlink="http://www.w3.org/1999/xlink" width="138" height="138" viewBox="0 0 138 138"><defs><style>.a{fill:#ffb555;}.b{fill:url(#a);}.c{fill:#eee;}.d,.m{fill:#fff;}.e{fill:#60c25f;}.f{fill:#474e5c;}.g{fill:#183377;}.h{clip-path:url(#b);}.i{fill:#00d17d;}.j{fill:#888;}.k{fill:#f4f2f3;}.l{fill:#d8d8d8;opacity:0.4;}.m{opacity:0.35;}</style><linearGradient id="a" x1="0.5" x2="0.5" y2="1" gradientUnits="objectBoundingBox"><stop offset="0" stop-color="#f8f8f8"/><stop offset="1" stop-color="#ececec"/></linearGradient><clipPath id="b"><ellipse cx="7.005" cy="7.405" rx="7.005" ry="7.405"/></clipPath></defs><g transform="translate(1229 -645.253)"><circle class="a" cx="69" cy="69" r="69" transform="translate(-1229 645.253)"/><g transform="translate(-0.825 -3.546)"><g transform="translate(-1179.883 679.133)"><path class="b" d="M59.618,6.413v66.5a5.249,5.249,0,0,1-5.086,5.413H23.286A5.249,5.249,0,0,1,18.2,72.917V6.413a5.959,5.959,0,0,1,.272-1.837A5.14,5.14,0,0,1,23.286,1H54.531A5.249,5.249,0,0,1,59.618,6.413Z" transform="translate(-18.2 -1)"/><path class="c" d="M46,3.6h-5.96a.965.965,0,0,0-.941.995.965.965,0,0,0,.941.995H46a.965.965,0,0,0,.941-.995A.965.965,0,0,0,46,3.6Z" transform="translate(-20.682 -0.726)"/><ellipse class="c" cx="0.941" cy="0.995" rx="0.941" ry="0.995" transform="translate(15.525 2.874)"/><path class="d" d="M57.108,6.462V72.384a3.087,3.087,0,0,1-2.946,3.162H23.446A3.087,3.087,0,0,1,20.5,72.384V6.462A3.087,3.087,0,0,1,23.446,3.3h6.964a2.39,2.39,0,0,0-.179.767,2.212,2.212,0,0,0,2.232,2.3H45.143a2.271,2.271,0,0,0,2.232-2.3A1.911,1.911,0,0,0,47.2,3.3h6.964A3.087,3.087,0,0,1,57.108,6.462Z" transform="translate(-18.095 -0.758)"/><path class="d" d="M59.178,4.942v.884a.1.1,0,0,1-.1.111H58.76v.221c0,.111,0,.111-.1.111H55.2c-.1,0-.1-.111-.1-.111V4.611a.1.1,0,0,1,.1-.111h3.45c.1,0,.1.111.1.111v.221h.314A.1.1,0,0,1,59.178,4.942Z" transform="translate(-22.779 -0.632)"/><path class="e" d="M57.087,4.5V6.268H55.2c-.1,0-.1-.111-.1-.111V4.611a.1.1,0,0,1,.1-.111Z" transform="translate(-22.779 -0.632)"/><rect class="d" width="0.418" height="1.768" transform="translate(5.019 3.868)"/><rect class="d" width="0.418" height="1.437" transform="translate(5.646 4.31)"/><rect class="d" width="0.418" height="0.884" transform="translate(6.378 4.753)"/><rect class="d" width="0.418" height="0.553" transform="translate(7.005 5.084)"/><ellipse class="d" cx="0.209" cy="0.221" rx="0.209" ry="0.221" transform="translate(31.747 5.195)"/><path class="d" d="M53.441,4.5a1.409,1.409,0,0,0-.941.332l.1.111a1.221,1.221,0,0,1,1.673,0l.1-.111A1.626,1.626,0,0,0,53.441,4.5Zm-.732.663.1.111c.209-.111.314-.221.523-.221a.777.777,0,0,1,.523.221l.209-.111a1.432,1.432,0,0,0-.627-.221A1.452,1.452,0,0,0,52.709,5.163Zm.314.332.1.111c.1,0,.1-.111.209-.111s.209,0,.209.111l.1-.111a.371.371,0,0,0-.314-.111C53.232,5.384,53.127,5.495,53.023,5.495Z" transform="translate(-21.54 -0.632)"/><path class="f" d="M52.675,77.353a.509.509,0,0,1-.523.553H30.823a.553.553,0,0,1,0-1.105H52.048A.6.6,0,0,1,52.675,77.353Z" transform="translate(-20.779 -4.112)"/><path class="g" d="M57.108,6.947V40.879H20.5V6.947c0-1.989,1.339-3.647,2.946-3.647h6.964a3.115,3.115,0,0,0-.179.884,2.408,2.408,0,0,0,2.232,2.653H45.143a2.476,2.476,0,0,0,2.232-2.653A2.486,2.486,0,0,0,47.2,3.3h6.964C55.769,3.3,57.108,4.958,57.108,6.947Z" transform="translate(-18.095 -0.758)"/><path class="d" d="M7.005,0a7.214,7.214,0,0,1,7.005,7.405A7.214,7.214,0,0,1,7.005,14.81,7.214,7.214,0,0,1,0,7.405,7.214,7.214,0,0,1,7.005,0Z" transform="translate(13.703 8.51)"/><path class="i" d="M0,0H22.689V1.105H0Z" transform="translate(9.364 27.721)"/><rect class="c" width="36.608" height="5.637" transform="translate(2.405 34.746)"/><ellipse class="j" cx="1.568" cy="1.658" rx="1.568" ry="1.658" transform="translate(5.437 35.854)"/><path class="k" d="M25.773,39.774v.332h-.627v.774h-.314v-.774H24.1v-.332h.732V39h.314v.774Z" transform="translate(-17.931 -2.383)"/><path class="j" d="M44.406,39.884a.848.848,0,0,1-.836.884H29.036a.886.886,0,0,1,0-1.768H43.465A.943.943,0,0,1,44.406,39.884Z" transform="translate(-18.824 -2.376)"/><rect class="c" width="26.453" height="1.879" transform="translate(11.528 47.275)"/><rect class="c" width="10.979" height="1.879" transform="translate(11.775 43.998)"/><rect class="c" width="26.453" height="1.879" transform="translate(11.99 59.18)"/><rect class="c" width="10.979" height="1.879" transform="translate(11.99 55.904)"/><rect class="l" width="36.608" height="0.332" transform="translate(2.405 63.072)"/><rect class="l" width="36.608" height="0.332" transform="translate(2.405 52.363)"/><path class="m" d="M50.631,31.553a1.577,1.577,0,0,1-1.712,1.585h-8.64a1.693,1.693,0,0,1-1.79-1.519,1.688,1.688,0,0,1,1.79-1.519h8.484A1.9,1.9,0,0,1,50.631,31.553Zm-14.867,0a1.577,1.577,0,0,1-1.712,1.585H25.49a1.693,1.693,0,0,1-1.79-1.519A1.688,1.688,0,0,1,25.49,30.1h8.484A1.875,1.875,0,0,1,35.764,31.553Z" transform="translate(-16.416 0.374)"/><path class="i" d="M0,0H11.4V1.105H0Z" transform="translate(15.054 24.968)"/><ellipse class="g" cx="2.703" cy="2.951" rx="2.703" ry="2.951" transform="translate(5.228 43.748)"/><ellipse class="g" cx="2.703" cy="2.951" rx="2.703" ry="2.951" transform="translate(5.437 55.408)"/></g><path class="g" d="M745.648,529.751a8.472,8.472,0,0,0,0,16.909h0a8.472,8.472,0,0,0,0-16.909Z" transform="translate(-1904.992 156.464)"/><path class="d" d="M754.2,550.624a1.419,1.419,0,0,1-.773-.223l-.014-.009-2.914-1.936a1.03,1.03,0,0,1-.24-1.577,1.43,1.43,0,0,1,1.815-.208l1.887,1.257,4.459-5.052a1.429,1.429,0,0,1,1.814-.208h0l-.028.033.028-.033a1.03,1.03,0,0,1,.239,1.576l-5.245,5.94a1.373,1.373,0,0,1-1.03.438Z" transform="translate(-1914.119 149.966)"/></g></g></svg>