<svg xmlns="http://www.w3.org/2000/svg" xmlns:xlink="http://www.w3.org/1999/xlink" width="80" height="73" viewBox="0 0 80 73"><defs><style>.a{fill:url(#a);}.b{fill:#fff;}.c{filter:url(#b);}</style><linearGradient id="a" x1="0.5" x2="0.5" y2="1" gradientUnits="objectBoundingBox"><stop offset="0" stop-color="#3b7ded"/><stop offset="1" stop-color="#183377"/></linearGradient><filter id="b" x="0" y="0" width="80" height="73" filterUnits="userSpaceOnUse"><feOffset dy="3" input="SourceAlpha"/><feGaussianBlur stdDeviation="3" result="c"/><feFlood flood-opacity="0.161"/><feComposite operator="in" in2="c"/><feComposite in="SourceGraphic"/></filter></defs><g transform="translate(-1163 -1908)"><g class="c" transform="matrix(1, 0, 0, 1, 1163, 1908)"><rect class="a" width="62" height="55" rx="8" transform="translate(9 6)"/></g><g transform="translate(1179.854 1916.744)"><path class="b" d="M15.9,25.993a1.026,1.026,0,0,1-.83-.425,12.644,12.644,0,1,1,20.853-.311,1.013,1.013,0,1,1-1.681-1.121,10.619,10.619,0,1,0-17.518.257,1.013,1.013,0,0,1-.824,1.6Z" transform="translate(-2.267 0)"/><path class="b" d="M33.1,24.94a3.159,3.159,0,0,1-2.363,1.424v.783a1.013,1.013,0,1,1-2.025,0v-.83a7.574,7.574,0,0,1-1.728-.533,1.013,1.013,0,1,1,.8-1.856c1.715.749,3.288.5,3.571,0a.567.567,0,0,0,0-.412,3.578,3.578,0,0,0-2.025-1.775,5.515,5.515,0,0,1-3.153-3,2.478,2.478,0,0,1,.176-2.059,3.193,3.193,0,0,1,2.356-1.431V14.173a1.013,1.013,0,1,1,2.025,0v1.134a7.952,7.952,0,0,1,1.735.527,1.013,1.013,0,1,1-.81,1.856c-1.715-.743-3.281-.493-3.571,0a.452.452,0,0,0,0,.405,3.558,3.558,0,0,0,2.025,1.782,5.509,5.509,0,0,1,3.159,3A2.484,2.484,0,0,1,33.1,24.94Z" transform="translate(-6.584 -2.451)"/><path class="b" d="M37.526,29.81a1.013,1.013,0,0,0,0,2.025.979.979,0,0,1,.972.972v2.025H7.761V32.807a1.256,1.256,0,0,1,0-.23v-.041a.736.736,0,0,1,.061-.155.317.317,0,0,1,.034-.068.783.783,0,0,1,.108-.142L8,32.126a1.06,1.06,0,0,1,.169-.135l.122-.027.122-.054h.317A1.013,1.013,0,0,0,9.739,30.9a.972.972,0,0,0-.176-.567,1.006,1.006,0,0,0-.837-.446,3.091,3.091,0,0,0-.56.061H8.086a2.984,2.984,0,0,0-1,.425l-.068.047a2.991,2.991,0,0,0-.419.263h0a3.321,3.321,0,0,0-.338.412l-.054.088a1.809,1.809,0,0,0-.122.189c0,.068-.068.135-.095.2l-.041.088a3.065,3.065,0,0,0-.142.466v.162a3.024,3.024,0,0,0-.041.425s0,.054,0,.081V45.762a3,3,0,0,0,2.991,3H37.526a3,3,0,0,0,3-3V32.807A3,3,0,0,0,37.526,29.81ZM14.944,46.464v-5.05a.27.27,0,0,1,.27-.27h2.525a.27.27,0,0,1,.27.27v5.029Zm22.581.27H20.034v-5.32a2.3,2.3,0,0,0-2.3-2.3H15.214a2.3,2.3,0,0,0-2.3,2.3v5.3H8.727a.965.965,0,0,1-.965-.972V36.865H38.5v8.9a.972.972,0,0,1-.972.972Z" transform="translate(0 -7.86)"/><circle class="b" cx="0.756" cy="0.756" r="0.756" transform="translate(15.721 34.432)"/></g></g></svg>