<svg xmlns="http://www.w3.org/2000/svg" width="138" height="138" viewBox="0 0 138 138"><defs><style>.a{fill:#fc4242;}.b{fill:#183377;}.c{fill:#fff;}.d{fill:#f8ccbd;}.e{fill:#262e3a;}.f{fill:#efc0b1;}.g{fill:#f8cdbe;}.h{fill:#3b7ded;}.i{fill:#888;}.j{fill:#efa803;}</style></defs><g transform="translate(-2143 -5546)"><circle class="a" cx="69" cy="69" r="69" transform="translate(2143 5546)"/><g transform="translate(5186.261 3397.621)"><path class="b" d="M-3012.367,2449.335a70.93,70.93,0,0,1,.149-11.45c.576-4.316,4.339-7.628,9.33-8.519,3.763-.671,7.552-1.193,11.285-2.026.582.528,1.155,1.064,1.746,1.58a24.608,24.608,0,0,0,10.679,5.891c5.106,1.163,9.773-.079,14.086-2.868a25.355,25.355,0,0,0,5.655-4.7c3.7.977,7.51,1.42,11.271,2.094a11.809,11.809,0,0,1,7.774,4.5,9.4,9.4,0,0,1,1.844,5.5c.1,3.321.121,6.647-.017,9.97-2.959,0-5.918-.005-8.877,0a6.591,6.591,0,0,0-4.74,1.884c-.551.531-.783,1.273-1.351,1.772-.511-.816-1.335-.681-2.11-.693-.024-2.467-.056-4.934-.071-7.4-.018-2.831-1.318-4.15-4.131-4.151q-15.458,0-30.915,0c-2.876,0-4.166,1.31-4.179,4.215q-.022,5.1-.054,10.194a43.645,43.645,0,0,1-3.973-3.909,5.861,5.861,0,0,0-4.492-1.912Q-3007.914,2449.33-3012.367,2449.335Z" transform="translate(0 -202.717)"/><path class="c" d="M-2930.971,2504.4q.027-5.1.054-10.194c.013-2.905,1.3-4.214,4.179-4.215q15.457,0,30.915,0c2.813,0,4.114,1.32,4.131,4.151.015,2.467.047,4.934.071,7.4-1.789.011-3.578.02-5.367.035a3.227,3.227,0,0,0-3.371,4.118c.286,1.542.522,3.095.759,4.646a3.547,3.547,0,0,0,3.73,3.262c1.4.016,2.791.007,4.187.009-.1,2.87-1.348,4.082-4.213,4.082q-15.029,0-30.059,0c-3.808,0-4.631-.738-5.022-4.5Zm10.5,2.353a3.114,3.114,0,0,0,3.226-2.913,3.372,3.372,0,0,0-3.279-3.31,3.107,3.107,0,0,0-2.945,3.194A2.824,2.824,0,0,0-2920.469,2506.755Z" transform="translate(-64.022 -251.976)"/><path class="d" d="M-2914.074,2252.435a3.064,3.064,0,0,0-.278-.795,32.718,32.718,0,0,1-4.33-9.532,2.432,2.432,0,0,0-.192-.38,61.648,61.648,0,0,1-1.1-8.606,31.293,31.293,0,0,1,.649-6.7c.136-.7.425-1.03,1.2-1.027a37.3,37.3,0,0,0,10.565-1.541c7.111-2.058,13.1-5.754,17.226-12.08.5.353-.068.764.062,1.136-1.435,5.513-.3,10.33,3.888,14.313a1.349,1.349,0,0,1,.383.962c.095,1.281.2,2.562.3,3.842a2.062,2.062,0,0,0,.043,1.341,71.931,71.931,0,0,1-1.088,8.341l-2.237,6a6.292,6.292,0,0,1-3.489.8c-1.959.035-3.92.008-5.881.018-.657,0-1.129.293-1.134,1,0,.652.463.923,1.046,1a6.3,6.3,0,0,0,.854.02q3.527-.021,7.054-.045c-.27.682-.933,1.152-1.038,1.923a3.156,3.156,0,0,0-.823.483,10.013,10.013,0,0,1-3.885,2.391,16.182,16.182,0,0,1-10.545.826A17.124,17.124,0,0,1-2914.074,2252.435Zm5.329-9a6.57,6.57,0,0,0,6.519,4.017c1.953-.161,4.978-1.979,5.147-3.937C-2900.947,2245.92-2904.792,2245.859-2908.745,2243.438Zm9.061-11.838c2.686,0,5.251,0,7.816,0,.2,0,.483.062.523-.217.019-.133-.131-.324-.252-.438a5.687,5.687,0,0,0-2.63-1.358C-2896.179,2229.111-2898.984,2229.966-2899.684,2231.6Zm-10.6,0c1.215,0,2.431,0,3.646,0,.2,0,.463.058.554-.2.084-.237-.11-.388-.261-.539a5.819,5.819,0,0,0-7.563.012c-.144.146-.356.364-.329.51.061.329.4.21.629.212C-2912.5,2231.6-2911.392,2231.6-2910.284,2231.6Z" transform="translate(-72.659 -33.552)"/><path class="e" d="M-2898.036,2198.475c-.1-1.281-.207-2.561-.3-3.842a1.35,1.35,0,0,0-.384-.963c-4.187-3.984-5.323-8.8-3.887-14.313.656-.344.485-1.121.844-1.623a.377.377,0,0,0-.061-.564c-.312-.207-.414.107-.567.279a1.046,1.046,0,0,0-.279.772c-4.129,6.326-10.115,10.021-17.226,12.08a37.3,37.3,0,0,1-10.565,1.541c-.779,0-1.068.326-1.2,1.027a31.3,31.3,0,0,0-.649,6.7c-.738-1.451-.709-3.092-1.139-4.619q-.023-.587-.044-1.173a4.5,4.5,0,0,0-.1-1.687c-.281-.575-1.027-.253-1.565-.335-.417-.064-.52-.268-.527-.644-.216-10.715,6.048-19.9,17.263-21.719a21.633,21.633,0,0,1,15.2,2.649,8.612,8.612,0,0,1,2.479,2.008c.065.859-.818,1.438-.753,2.392.71-.489.573-1.484,1.353-1.793a15.367,15.367,0,0,1,3.928,8.748,29.558,29.558,0,0,1-.261,9.192c-.123.776-.221,1.556-.33,2.333-.41,1.156-.4,2.417-.88,3.556Z" transform="translate(-60.314)"/><path class="f" d="M-2910.306,2400.959a17.121,17.121,0,0,0,7.26,3.7,16.182,16.182,0,0,0,10.545-.826,10.01,10.01,0,0,0,3.885-2.391,3.175,3.175,0,0,1,.823-.483,8.222,8.222,0,0,0,4.782,5.65,25.337,25.337,0,0,1-5.655,4.7c-4.312,2.789-8.98,4.031-14.086,2.868a24.61,24.61,0,0,1-10.679-5.891c-.591-.516-1.165-1.053-1.746-1.581a9,9,0,0,0,3.967-3.464C-2910.819,2402.505-2910.638,2401.706-2910.306,2400.959Z" transform="translate(-76.426 -182.076)"/><path class="d" d="M-2994.525,2535.777l-.006,8.792q-6.765,0-13.531-.008c-2.7-.006-3.87-1.178-3.866-3.854q.006-5.369.03-10.738,4.454-.007,8.907-.014a5.861,5.861,0,0,1,4.492,1.913A43.677,43.677,0,0,0-2994.525,2535.777Z" transform="translate(-0.468 -283.351)"/><path class="d" d="M-2739.57,2533.6c.567-.5.8-1.241,1.35-1.772a6.591,6.591,0,0,1,4.74-1.884c2.959-.009,5.918,0,8.877,0,.746,2.274,1.52,4.539,2.231,6.823,1.294,4.155-1.265,7.716-5.618,7.775-4,.055-8,.026-12,.034a2.4,2.4,0,0,0,.854-2.076c-.015-2.177-.021-4.354,0-6.53A4.409,4.409,0,0,0-2739.57,2533.6Z" transform="translate(-213.963 -283.34)"/><path class="g" d="M-2777.965,2544.439a4.411,4.411,0,0,1,.438,2.367c-.024,2.176-.019,4.353,0,6.53a2.4,2.4,0,0,1-.854,2.076c-.511.451-1.163.293-1.752.4-1.4,0-2.791.007-4.187-.009a3.547,3.547,0,0,1-3.73-3.262c-.237-1.551-.473-3.1-.759-4.646a3.226,3.226,0,0,1,3.371-4.117c1.789-.015,3.578-.024,5.367-.035C-2779.3,2543.758-2778.476,2543.623-2777.965,2544.439Z" transform="translate(-175.568 -294.177)"/><path class="h" d="M-2810.471,2293.022c.483-1.139.47-2.4.88-3.556,1.037,0,2.075-.028,3.11.021a2.1,2.1,0,0,1,2.195,2.265q.04,4.344,0,8.688a2.112,2.112,0,0,1-2.359,2.3c-1.527.037-1.49.045-1.792,1.563a8.491,8.491,0,0,1-5.775,6.737c-.47.169-.951.306-1.428.458q-3.527.023-7.054.045a6.3,6.3,0,0,1-.854-.02c-.583-.077-1.051-.348-1.046-1,0-.706.477-1,1.134-1,1.96-.009,3.921.017,5.881-.017a6.293,6.293,0,0,0,3.489-.8,6.082,6.082,0,0,0,3.535-4.145c.519-1.684.427-1.792-1.3-1.859a71.968,71.968,0,0,0,1.088-8.341A3.089,3.089,0,0,0-2810.471,2293.022Z" transform="translate(-147.543 -94.542)"/><path class="h" d="M-2944.76,2289.618c.429,1.528.4,3.168,1.139,4.619a61.639,61.639,0,0,0,1.1,8.606c-1.749.007-3.5.036-5.246.015a2.1,2.1,0,0,1-2.314-2.335q-.031-4.283,0-8.567a2.087,2.087,0,0,1,2.327-2.318C-2946.759,2289.619-2945.759,2289.624-2944.76,2289.618Z" transform="translate(-49.008 -94.667)"/><path class="e" d="M-2775.271,2192.969c-.78.309-.643,1.3-1.353,1.793-.064-.954.818-1.534.753-2.392A1.16,1.16,0,0,1-2775.271,2192.969Z" transform="translate(-185.2 -18.318)"/><path class="i" d="M-2893.033,2545.258a2.824,2.824,0,0,1-3-3.029,3.107,3.107,0,0,1,2.945-3.193,3.372,3.372,0,0,1,3.279,3.31A3.113,3.113,0,0,1-2893.033,2545.258Z" transform="translate(-91.458 -290.48)"/><path class="e" d="M-2867.715,2359.109c3.953,2.421,7.8,2.482,11.666.079-.169,1.959-3.195,3.776-5.147,3.938A6.57,6.57,0,0,1-2867.715,2359.109Z" transform="translate(-113.688 -149.223)"/><path class="e" d="M-2825.555,2296.189c.7-1.634,3.5-2.489,5.457-2.015a5.685,5.685,0,0,1,2.63,1.358c.121.114.271.305.252.438-.04.279-.323.216-.523.217C-2820.3,2296.191-2822.869,2296.189-2825.555,2296.189Z" transform="translate(-146.788 -98.142)"/><path class="e" d="M-2889.327,2296.229c-1.108,0-2.216.005-3.324-.006-.229,0-.568.116-.629-.212-.027-.146.186-.364.329-.51a5.819,5.819,0,0,1,7.563-.012c.151.151.345.3.261.539-.091.257-.352.2-.554.2C-2886.9,2296.234-2888.111,2296.23-2889.327,2296.229Z" transform="translate(-93.616 -98.184)"/><path class="e" d="M-2782.021,2207.686a1.045,1.045,0,0,1,.279-.771c.154-.172.256-.486.567-.279a.377.377,0,0,1,.061.564c-.359.5-.188,1.279-.844,1.623C-2782.09,2208.45-2781.523,2208.039-2782.021,2207.686Z" transform="translate(-180.964 -29.465)"/><path class="j" d="M-2760.448,2306.018a3.09,3.09,0,0,1-.293,1.335,2.058,2.058,0,0,1-.043-1.341Z" transform="translate(-197.566 -107.537)"/></g></g></svg>