<svg xmlns="http://www.w3.org/2000/svg" width="232.494" height="46.851" viewBox="0 0 232.494 46.851"><defs><style>.a{fill:#3b7ded;}</style></defs><g transform="translate(-267.385 -193.188)"><g transform="translate(267.385 193.188)"><path class="a" d="M282.269,216.574c.107.172.179.282.245.4,1.228,2.124,2.446,4.252,3.69,6.367a.674.674,0,0,1-.014.794c-.865,1.468-1.711,2.948-2.562,4.424-.079.137-.152.278-.231.423.367.1,7.008.1,7.536,0l-7.912-13.7,4.133-7.158c.115.193.2.328.277.465q5.73,9.922,11.463,19.843c.414.716.186.595,1.05.594,2.146,0,4.293-.02,6.439-.031a.536.536,0,0,1,.259.045c-2.127.572-4.277,1.034-6.489,1.576l6.8,11.775h-.509c-2.014,0-4.028-.013-6.042.005a2.744,2.744,0,0,1-2.593-1.5c-1.554-2.716-3.125-5.421-4.691-8.131-.08-.139-.165-.276-.261-.437-.116.021-.229.036-.338.062q-6.2,1.437-12.4,2.872a.882.882,0,0,0-.633.468c-1,1.761-2.025,3.512-3.035,5.27a2.589,2.589,0,0,1-1.688,1.312,2.9,2.9,0,0,1-.654.076q-3.2.009-6.394,0c-.084,0-.168-.014-.326-.029Z" transform="translate(-267.385 -195.57)"/><path class="a" d="M359.623,242.367h-.529c-2.425,0-4.851-.006-7.276.008a.841.841,0,0,1-.741-.35q-7.485-9.368-14.988-18.724l-11.851-14.8c-.1-.122-.192-.246-.337-.43.207-.01.332-.021.457-.021,2.455,0,4.909,0,7.364-.008a.792.792,0,0,1,.7.337q9.858,12.326,19.73,24.64l7.138,8.912C359.379,242.046,359.466,242.162,359.623,242.367Z" transform="translate(-276.406 -195.559)"/><path class="a" d="M395.565,242.367l-19.772-34.236c.235-.011.389-.024.543-.024,2,0,4,.013,6-.007a2.75,2.75,0,0,1,2.592,1.5q5.6,9.721,11.216,19.431c1.117,1.934,2.229,3.871,3.357,5.8a.653.653,0,0,1,0,.756c-1.24,2.118-2.462,4.245-3.691,6.369C395.744,242.073,395.675,242.184,395.565,242.367Z" transform="translate(-284.689 -195.568)"/><path class="a" d="M486.164,239.95h-8.281c-.03-.194.115-.3.207-.412,1.914-2.4,3.786-4.84,5.757-7.194a158.127,158.127,0,0,1,49.037-38.9,5.533,5.533,0,0,1,.594-.261A156.06,156.06,0,0,0,486.164,239.95Z" transform="translate(-300.985 -193.188)"/><path class="a" d="M432.256,208.119h7.1v34.207H432.3c-.005-.005-.018-.013-.028-.024a.084.084,0,0,1-.024-.034,1.1,1.1,0,0,1-.024-.173q0-16.888,0-33.775A1.429,1.429,0,0,1,432.256,208.119Z" transform="translate(-293.697 -195.571)"/><path class="a" d="M365.018,240.236c-.152-.181-.247-.289-.338-.4q-3.266-4.074-6.536-8.148a1.069,1.069,0,0,1-.259-.717c.007-6.715.019-13.429-.006-20.144a2.668,2.668,0,0,1,2.705-2.744c1.366.008,2.734,0,4.1,0,.1,0,.2.015.333.025Z" transform="translate(-281.83 -195.565)"/><path class="a" d="M324.035,242.762V210.818a2.135,2.135,0,0,1,.241.215q3.352,4.179,6.7,8.358a.9.9,0,0,1,.208.6q-.006,10.054,0,20.108a2.658,2.658,0,0,1-2.712,2.69c-1.337-.028-2.675-.005-4.013-.006C324.336,242.784,324.206,242.772,324.035,242.762Z" transform="translate(-276.428 -196.002)"/><path class="a" d="M419.235,208.148,404.35,233.924l-4.136-7.16c.191-.332.371-.65.554-.967q4.673-8.092,9.342-16.186a2.712,2.712,0,0,1,1.674-1.4,2.961,2.961,0,0,1,.739-.1c2.1-.008,4.205-.005,6.308,0C418.942,208.11,419.053,208.13,419.235,208.148Z" transform="translate(-288.588 -195.57)"/><path class="a" d="M442.314,247.579v-7.155H469.57a1.222,1.222,0,0,1-.08.27c-1.077,1.871-2.149,3.745-3.241,5.606a2.46,2.46,0,0,1-1.926,1.243,6.137,6.137,0,0,1-.7.035q-10.361,0-20.72,0Z" transform="translate(-295.308 -200.728)"/><path class="a" d="M442.315,231.41v-7.155h27.257a1.232,1.232,0,0,1-.082.271c-1.077,1.871-2.149,3.745-3.241,5.606a2.471,2.471,0,0,1-1.969,1.249,6.035,6.035,0,0,1-.616.028q-10.4,0-20.809,0Z" transform="translate(-295.308 -198.147)"/><path class="a" d="M469.612,208.087c-.076.16-.122.277-.184.386q-1.552,2.691-3.106,5.38a2.612,2.612,0,0,1-2.3,1.384c-.132.005-.265,0-.4,0H442.314v-7.153Z" transform="translate(-295.308 -195.566)"/><path class="a" d="M499.619,233.836l4.909-5.811,10.132,17.542c-.212.012-.352.027-.493.027-2,0-4-.009-6,.005a2.817,2.817,0,0,1-2.665-1.54c-1.878-3.291-3.784-6.565-5.679-9.847C499.768,234.112,499.714,234.008,499.619,233.836Z" transform="translate(-304.455 -198.749)"/><path class="a" d="M484.11,208.1h.562c1.983,0,3.967.018,5.951-.007a2.791,2.791,0,0,1,2.657,1.542c1.657,2.909,3.343,5.8,5.017,8.7.065.113.123.23.19.355l-5.336,5.065Z" transform="translate(-301.979 -195.567)"/></g></g></svg>