<svg xmlns="http://www.w3.org/2000/svg" xmlns:xlink="http://www.w3.org/1999/xlink" width="23.279" height="26" viewBox="0 0 23.279 26"><defs><style>.a{fill:url(#a);}</style><linearGradient id="a" x1="0.5" x2="0.5" y2="1" gradientUnits="objectBoundingBox"><stop offset="0" stop-color="#3b7ded"/><stop offset="1" stop-color="#183377"/></linearGradient></defs><g transform="translate(-2.25 -0.375)"><path class="a" d="M13.89,26.375a2.343,2.343,0,0,1-1.229-.336L8.028,23.33A11.288,11.288,0,0,1,2.25,13.6v-7.4a2.442,2.442,0,0,1,1.6-2.29L13.05.524a2.442,2.442,0,0,1,1.679,0l9.2,3.381a2.442,2.442,0,0,1,1.6,2.29v7.4a11.288,11.288,0,0,1-5.778,9.731l-4.633,2.71a2.343,2.343,0,0,1-1.229.336Zm0-24.088a.511.511,0,0,0-.183,0l-9.2,3.4a.527.527,0,0,0-.343.511v7.4a9.388,9.388,0,0,0,4.831,8.083L13.622,24.4a.557.557,0,0,0,.534,0l4.633-2.717h0A9.388,9.388,0,0,0,23.621,13.6v-7.4a.527.527,0,0,0-.343-.5l-9.2-3.381a.511.511,0,0,0-.183-.031Z"/><path class="a" d="M15.091,20.053a.992.992,0,0,1-.618-.221l-3.259-2.748a.956.956,0,0,1,1.229-1.465L15,17.771l4.366-4.808a.957.957,0,1,1,1.42,1.282l-4.946,5.5A.969.969,0,0,1,15.091,20.053Z" transform="translate(-2.041 -2.905)"/></g></svg>