<svg xmlns="http://www.w3.org/2000/svg" xmlns:xlink="http://www.w3.org/1999/xlink" width="80" height="73" viewBox="0 0 80 73"><defs><style>.a{fill:url(#a);}.b{fill:#fff;stroke:#fff;}.c{filter:url(#b);}</style><linearGradient id="a" x1="0.5" x2="0.5" y2="1" gradientUnits="objectBoundingBox"><stop offset="0" stop-color="#3b7ded"/><stop offset="1" stop-color="#183377"/></linearGradient><filter id="b" x="0" y="0" width="80" height="73" filterUnits="userSpaceOnUse"><feOffset dy="3" input="SourceAlpha"/><feGaussianBlur stdDeviation="3" result="c"/><feFlood flood-opacity="0.161"/><feComposite operator="in" in2="c"/><feComposite in="SourceGraphic"/></filter></defs><g transform="translate(-1163 -1723)"><g class="c" transform="matrix(1, 0, 0, 1, 1163, 1723)"><rect class="a" width="62" height="55" rx="8" transform="translate(9 6)"/></g><path class="b" d="M30.125,5.657a1.043,1.043,0,0,0-.709-.987L16.306.3a1.1,1.1,0,0,0-.667,0L2.529,4.67a1.043,1.043,0,0,0-.709.987V7.381A30.4,30.4,0,0,0,15.389,32.738a1.029,1.029,0,0,0,1.168,0A30.4,30.4,0,0,0,30.125,7.381ZM28.04,7.381A28.333,28.333,0,0,1,15.972,30.611,28.333,28.333,0,0,1,3.905,7.381V6.408L15.972,2.39,28.04,6.408ZM17.015,6.853V8.59h1.738v2.085h-2.78a1.738,1.738,0,0,0,0,3.476,3.809,3.809,0,0,1,1.043,7.479v1.9H14.93V21.8H13.192V19.712h2.78a1.738,1.738,0,1,0,0-3.476A3.809,3.809,0,0,1,14.93,8.757v-1.9Z" transform="translate(1187.028 1739.914)"/></g></svg>