<svg xmlns="http://www.w3.org/2000/svg" xmlns:xlink="http://www.w3.org/1999/xlink" width="27" height="25.92" viewBox="0 0 27 25.92"><defs><style>.a{fill:url(#a);}</style><linearGradient id="a" x1="0.5" x2="0.5" y2="1" gradientUnits="objectBoundingBox"><stop offset="0" stop-color="#3b7ded"/><stop offset="1" stop-color="#183377"/></linearGradient></defs><g transform="translate(-4 -1023.362)"><g transform="translate(4 1023.362)"><path class="a" d="M11.02,3A1.629,1.629,0,0,0,9.4,4.62v.54H5.835A1.905,1.905,0,0,0,4,7.118V26.963A1.905,1.905,0,0,0,5.835,28.92h23.33A1.905,1.905,0,0,0,31,26.963V7.118A1.905,1.905,0,0,0,29.165,5.16H25.6V4.62a1.62,1.62,0,1,0-3.24,0v.54H12.64V4.62A1.628,1.628,0,0,0,11.02,3Zm0,1.08a.527.527,0,0,1,.54.54V7.86a.54.54,0,1,1-1.08,0V4.62A.527.527,0,0,1,11.02,4.08Zm12.96,0a.527.527,0,0,1,.54.54V7.86a.54.54,0,1,1-1.08,0V4.62A.527.527,0,0,1,23.98,4.08ZM5.835,6.24H9.4V7.86a1.62,1.62,0,0,0,3.24,0V6.24h9.72V7.86a1.62,1.62,0,1,0,3.24,0V6.24h3.565a.811.811,0,0,1,.755.878V26.963a.811.811,0,0,1-.755.878H5.835a.811.811,0,0,1-.755-.878V7.118A.811.811,0,0,1,5.835,6.24Zm12.745,5.4a.54.54,0,0,0-.54.54v3.24a.54.54,0,0,0,.54.54h3.24a.54.54,0,0,0,.54-.54V12.18a.54.54,0,0,0-.54-.54Zm5.4,0a.54.54,0,0,0-.54.54v3.24a.54.54,0,0,0,.54.54h3.24a.54.54,0,0,0,.54-.54V12.18a.54.54,0,0,0-.54-.54Zm-4.86,1.08h2.16v2.16H19.12Zm5.4,0h2.16v2.16H24.52ZM7.78,17.04a.54.54,0,0,0-.54.54v3.24a.54.54,0,0,0,.54.54h3.24a.54.54,0,0,0,.54-.54V17.58a.54.54,0,0,0-.54-.54Zm5.4,0a.54.54,0,0,0-.54.54v3.24a.54.54,0,0,0,.54.54h3.24a.54.54,0,0,0,.54-.54V17.58a.54.54,0,0,0-.54-.54Zm5.4,0a.54.54,0,0,0-.54.54v3.24a.54.54,0,0,0,.54.54h3.24a.54.54,0,0,0,.54-.54V17.58a.54.54,0,0,0-.54-.54Zm5.4,0a.54.54,0,0,0-.54.54v3.24a.54.54,0,0,0,.54.54h3.24a.54.54,0,0,0,.54-.54V17.58a.54.54,0,0,0-.54-.54ZM8.32,18.12h2.16v2.16H8.32Zm5.4,0h2.16v2.16H13.72Zm5.4,0h2.16v2.16H19.12Zm5.4,0h2.16v2.16H24.52ZM7.78,22.44a.54.54,0,0,0-.54.54v3.24a.54.54,0,0,0,.54.54h3.24a.54.54,0,0,0,.54-.54V22.98a.54.54,0,0,0-.54-.54Zm5.4,0a.54.54,0,0,0-.54.54v3.24a.54.54,0,0,0,.54.54h3.24a.54.54,0,0,0,.54-.54V22.98a.54.54,0,0,0-.54-.54Zm5.4,0a.54.54,0,0,0-.54.54v3.24a.54.54,0,0,0,.54.54h3.24a.54.54,0,0,0,.54-.54V22.98a.54.54,0,0,0-.54-.54ZM8.32,23.52h2.16v2.16H8.32Zm5.4,0h2.16v2.16H13.72Zm5.4,0h2.16v2.16H19.12Z" transform="translate(-4 -3)"/></g></g></svg>