<?xml version="1.0" encoding="UTF-8" standalone="no"?>
<svg
   xmlns:dc="http://purl.org/dc/elements/1.1/"
   xmlns:cc="http://creativecommons.org/ns#"
   xmlns:rdf="http://www.w3.org/1999/02/22-rdf-syntax-ns#"
   xmlns:svg="http://www.w3.org/2000/svg"
   xmlns="http://www.w3.org/2000/svg"
   width="160.089"
   height="32.26659"
   viewBox="0 0 160.089 32.266589"
   version="1.1"
   id="svg44">
  <metadata
     id="metadata48">
    <rdf:RDF>
      <cc:Work
         rdf:about="">
        <dc:format>image/svg+xml</dc:format>
        <dc:type
           rdf:resource="http://purl.org/dc/dcmitype/StillImage" />
        <dc:title></dc:title>
      </cc:Work>
    </rdf:RDF>
  </metadata>
  <defs
     id="defs12">
    <style
       id="style10">.a{fill:#3b7ded;}</style>
  </defs>
  <g
     transform="matrix(0.68858742,0,0,0.68858742,-184.1207,-133.02338)"
     id="g42">
    <g
       transform="translate(267.385,193.188)"
       id="g40">
      <path
         class="a"
         d="m 282.269,216.574 c 0.107,0.172 0.179,0.282 0.245,0.4 1.228,2.124 2.446,4.252 3.69,6.367 a 0.674,0.674 0 0 1 -0.014,0.794 c -0.865,1.468 -1.711,2.948 -2.562,4.424 -0.079,0.137 -0.152,0.278 -0.231,0.423 0.367,0.1 7.008,0.1 7.536,0 l -7.912,-13.7 4.133,-7.158 c 0.115,0.193 0.2,0.328 0.277,0.465 q 5.73,9.922 11.463,19.843 c 0.414,0.716 0.186,0.595 1.05,0.594 2.146,0 4.293,-0.02 6.439,-0.031 a 0.536,0.536 0 0 1 0.259,0.045 c -2.127,0.572 -4.277,1.034 -6.489,1.576 l 6.8,11.775 h -0.509 c -2.014,0 -4.028,-0.013 -6.042,0.005 a 2.744,2.744 0 0 1 -2.593,-1.5 c -1.554,-2.716 -3.125,-5.421 -4.691,-8.131 -0.08,-0.139 -0.165,-0.276 -0.261,-0.437 -0.116,0.021 -0.229,0.036 -0.338,0.062 q -6.2,1.437 -12.4,2.872 a 0.882,0.882 0 0 0 -0.633,0.468 c -1,1.761 -2.025,3.512 -3.035,5.27 a 2.589,2.589 0 0 1 -1.688,1.312 2.9,2.9 0 0 1 -0.654,0.076 q -3.2,0.009 -6.394,0 c -0.084,0 -0.168,-0.014 -0.326,-0.029 z"
         transform="translate(-267.385,-195.57)"
         id="path14" />
      <path
         class="a"
         d="m 359.623,242.367 h -0.529 c -2.425,0 -4.851,-0.006 -7.276,0.008 a 0.841,0.841 0 0 1 -0.741,-0.35 q -7.485,-9.368 -14.988,-18.724 l -11.851,-14.8 c -0.1,-0.122 -0.192,-0.246 -0.337,-0.43 0.207,-0.01 0.332,-0.021 0.457,-0.021 2.455,0 4.909,0 7.364,-0.008 a 0.792,0.792 0 0 1 0.7,0.337 q 9.858,12.326 19.73,24.64 l 7.138,8.912 c 0.089,0.115 0.176,0.231 0.333,0.436 z"
         transform="translate(-276.406,-195.559)"
         id="path16" />
      <path
         class="a"
         d="m 395.565,242.367 -19.772,-34.236 c 0.235,-0.011 0.389,-0.024 0.543,-0.024 2,0 4,0.013 6,-0.007 a 2.75,2.75 0 0 1 2.592,1.5 q 5.6,9.721 11.216,19.431 c 1.117,1.934 2.229,3.871 3.357,5.8 a 0.653,0.653 0 0 1 0,0.756 c -1.24,2.118 -2.462,4.245 -3.691,6.369 -0.066,0.117 -0.135,0.228 -0.245,0.411 z"
         transform="translate(-284.689,-195.568)"
         id="path18" />
      <path
         class="a"
         d="m 486.164,239.95 h -8.281 c -0.03,-0.194 0.115,-0.3 0.207,-0.412 1.914,-2.4 3.786,-4.84 5.757,-7.194 a 158.127,158.127 0 0 1 49.037,-38.9 5.533,5.533 0 0 1 0.594,-0.261 156.06,156.06 0 0 0 -47.314,46.767 z"
         transform="translate(-300.985,-193.188)"
         id="path20" />
      <path
         class="a"
         d="m 432.256,208.119 h 7.1 v 34.207 H 432.3 c -0.005,-0.005 -0.018,-0.013 -0.028,-0.024 a 0.084,0.084 0 0 1 -0.024,-0.034 1.1,1.1 0 0 1 -0.024,-0.173 q 0,-16.888 0,-33.775 a 1.429,1.429 0 0 1 0.032,-0.201 z"
         transform="translate(-293.697,-195.571)"
         id="path22" />
      <path
         class="a"
         d="m 365.018,240.236 c -0.152,-0.181 -0.247,-0.289 -0.338,-0.4 q -3.266,-4.074 -6.536,-8.148 a 1.069,1.069 0 0 1 -0.259,-0.717 c 0.007,-6.715 0.019,-13.429 -0.006,-20.144 a 2.668,2.668 0 0 1 2.705,-2.744 c 1.366,0.008 2.734,0 4.1,0 0.1,0 0.2,0.015 0.333,0.025 z"
         transform="translate(-281.83,-195.565)"
         id="path24" />
      <path
         class="a"
         d="m 324.035,242.762 v -31.944 a 2.135,2.135 0 0 1 0.241,0.215 q 3.352,4.179 6.7,8.358 a 0.9,0.9 0 0 1 0.208,0.6 q -0.006,10.054 0,20.108 a 2.658,2.658 0 0 1 -2.712,2.69 c -1.337,-0.028 -2.675,-0.005 -4.013,-0.006 -0.123,0.001 -0.253,-0.011 -0.424,-0.021 z"
         transform="translate(-276.428,-196.002)"
         id="path26" />
      <path
         class="a"
         d="m 419.235,208.148 -14.885,25.776 -4.136,-7.16 c 0.191,-0.332 0.371,-0.65 0.554,-0.967 q 4.673,-8.092 9.342,-16.186 a 2.712,2.712 0 0 1 1.674,-1.4 2.961,2.961 0 0 1 0.739,-0.1 c 2.1,-0.008 4.205,-0.005 6.308,0 0.111,-10e-4 0.222,0.019 0.404,0.037 z"
         transform="translate(-288.588,-195.57)"
         id="path28" />
      <path
         class="a"
         d="m 442.314,247.579 v -7.155 h 27.256 a 1.222,1.222 0 0 1 -0.08,0.27 c -1.077,1.871 -2.149,3.745 -3.241,5.606 a 2.46,2.46 0 0 1 -1.926,1.243 6.137,6.137 0 0 1 -0.7,0.035 q -10.361,0 -20.72,0 z"
         transform="translate(-295.308,-200.728)"
         id="path30" />
      <path
         class="a"
         d="m 442.315,231.41 v -7.155 h 27.257 a 1.232,1.232 0 0 1 -0.082,0.271 c -1.077,1.871 -2.149,3.745 -3.241,5.606 a 2.471,2.471 0 0 1 -1.969,1.249 6.035,6.035 0 0 1 -0.616,0.028 q -10.4,0 -20.809,0 z"
         transform="translate(-295.308,-198.147)"
         id="path32" />
      <path
         class="a"
         d="m 469.612,208.087 c -0.076,0.16 -0.122,0.277 -0.184,0.386 q -1.552,2.691 -3.106,5.38 a 2.612,2.612 0 0 1 -2.3,1.384 c -0.132,0.005 -0.265,0 -0.4,0 h -21.308 v -7.153 z"
         transform="translate(-295.308,-195.566)"
         id="path34" />
      <path
         class="a"
         d="m 499.619,233.836 4.909,-5.811 10.132,17.542 c -0.212,0.012 -0.352,0.027 -0.493,0.027 -2,0 -4,-0.009 -6,0.005 a 2.817,2.817 0 0 1 -2.665,-1.54 c -1.878,-3.291 -3.784,-6.565 -5.679,-9.847 -0.055,-0.1 -0.109,-0.204 -0.204,-0.376 z"
         transform="translate(-304.455,-198.749)"
         id="path36" />
      <path
         class="a"
         d="m 484.11,208.1 h 0.562 c 1.983,0 3.967,0.018 5.951,-0.007 a 2.791,2.791 0 0 1 2.657,1.542 c 1.657,2.909 3.343,5.8 5.017,8.7 0.065,0.113 0.123,0.23 0.19,0.355 l -5.336,5.065 z"
         transform="translate(-301.979,-195.567)"
         id="path38" />
    </g>
  </g>
</svg>
