<svg xmlns="http://www.w3.org/2000/svg" xmlns:xlink="http://www.w3.org/1999/xlink" width="25.3" height="29.656" viewBox="0 0 25.3 29.656"><defs><style>.a{fill:url(#a);}</style><linearGradient id="a" x1="0.5" x2="0.5" y2="1" gradientUnits="objectBoundingBox"><stop offset="0" stop-color="#3b7ded"/><stop offset="1" stop-color="#183377"/></linearGradient></defs><path class="a" d="M30.792,24.752a5.56,5.56,0,0,0-3.35-4.889l-4.536-1.821-.783-1.288V16a6.274,6.274,0,0,0,1.2-1.96,9.768,9.768,0,0,0,.394-1.566h.19a.927.927,0,0,0,.885-.69h.042l.463.051h.065a.677.677,0,0,0,.463-.167.746.746,0,0,0,.236-.477l.162-1.937a.732.732,0,0,0-.644-.8l-.463-.046h-.028a.927.927,0,0,0-.528-.649V7.7c.51-2.067-.19-3.207-1.117-4.648-1-1.645-3.772-2.377-7.215-1.918a3.119,3.119,0,0,0-2.159,1.043,1.812,1.812,0,0,0-.329.709,1.65,1.65,0,0,0-.987.528c-.927,1.024-.89,3.216-.7,4.4a.927.927,0,0,0-.431.6h-.037l-.463.046a.737.737,0,0,0-.649.8l.176,1.937a.741.741,0,0,0,.287.5.686.686,0,0,0,.463.162h.07l.463-.046h0a.885.885,0,0,0,.3.463.927.927,0,0,0,.556.218h.158a8.924,8.924,0,0,0,.394,1.562,6.214,6.214,0,0,0,1.2,1.965v.737l-.829,1.311L9.4,19.808a5.825,5.825,0,0,0-3.494,5.1L5.7,30.192a.463.463,0,0,0,.463.463H30.537A.463.463,0,0,0,31,30.192ZM17.97,19.136c-.857-.7-1.779-1.52-2.224-1.983a4.194,4.194,0,0,0,5.1.046c-.463.463-1.39,1.26-2.229,1.937Zm1.566.463a22.372,22.372,0,0,0,2.094-1.853l.463.727-1.149,2.66a8.8,8.8,0,0,0-1.409-1.543Zm4.374-8.035-.408-.028h0l.264-2.966h.412Zm1.39-2.2-.13,1.548-.209-.023h-.056l.13-1.548h0ZM13.434,4.044a.778.778,0,0,1,.69-.264.485.485,0,0,0,.519-.5c0-.1-.046-.987,1.724-1.223,3.035-.408,5.519.176,6.33,1.483s1.39,2.257.978,3.939a.835.835,0,0,1-.037.181.927.927,0,0,0-.538.283,6.436,6.436,0,0,0-.5-1.46,2.676,2.676,0,0,0-2.882-1.418H19.5a8.29,8.29,0,0,0-.857.083,6.392,6.392,0,0,1-3.415-.222.463.463,0,0,0-.436.042,4.286,4.286,0,0,0-1.714,2.678h-.1C12.79,6.491,12.817,4.707,13.434,4.044Zm-1.877,6.867-.13-1.548.218-.023h0l.144,1.552a.185.185,0,0,0-.051,0Zm1.233.653-.283-2.956.412-.046.287,2.966Zm1.043.639.079-.079a.927.927,0,0,0,.209-.672L13.9,9.076c0-.334.028-.672.042-.982a3.2,3.2,0,0,1,1.163-2.206,7.488,7.488,0,0,0,3.637.19c.3-.042.561-.074.76-.083h.236c.843-.028,1.506-.056,2.034.927a13.78,13.78,0,0,1,.839,4.119l-.037.417a.876.876,0,0,0,.1.51h0a.6.6,0,0,0-.046.116c-.292,1.214-2.085,1.955-3.119,2.247a1.163,1.163,0,1,0,.079.927,7.97,7.97,0,0,0,2.78-1.284,6.849,6.849,0,0,1-1.942,2.391,3.281,3.281,0,0,1-4.133,0,6.58,6.58,0,0,1-2.053-2.655,8.165,8.165,0,0,1-.4-1.506Zm4.889,2.7a.236.236,0,1,1-.236-.236.236.236,0,0,1,.236.236Zm-3.707,2.836a20.88,20.88,0,0,0,2.006,1.8,6.816,6.816,0,0,0-1.39,1.39L14.541,18.45ZM6.826,24.952a4.838,4.838,0,0,1,.992-2.78,4.893,4.893,0,0,1,1.932-1.52l4.027-1.631,1.14,2.581a.681.681,0,0,0,.519.519.853.853,0,0,0,.153,0,.7.7,0,0,0,.6-.343,4.634,4.634,0,0,1,.463-.616l.649.709-.8,7.859H6.645Zm10.6,4.777.774-7.947a.463.463,0,0,0-.116-.357l-.8-.89a7.038,7.038,0,0,1,.616-.463h.76c.12.1.315.259.538.463l-.7.894a.463.463,0,0,0-.1.334l.8,7.965Zm2.688,0-.774-7.877.505-.639a6.232,6.232,0,0,1,.556.778.686.686,0,0,0,.6.348.862.862,0,0,0,.134-.023.681.681,0,0,0,.519-.524l1.168-2.78,4.249,1.705a4.553,4.553,0,0,1,2.78,4.045l.209,4.967Z" transform="translate(-5.7 -1)"/></svg>