<svg xmlns="http://www.w3.org/2000/svg" xmlns:xlink="http://www.w3.org/1999/xlink" width="31" height="34.605" viewBox="0 0 31 34.605"><defs><style>.a{fill:url(#a);}</style><linearGradient id="a" x1="0.5" x2="0.5" y2="1" gradientUnits="objectBoundingBox"><stop offset="0" stop-color="#3b7ded"/><stop offset="1" stop-color="#183377"/></linearGradient></defs><g transform="translate(-2)"><path class="a" d="M12.442,16.581V5.767H26.37a.721.721,0,0,0,0-1.442H12.442V3.6A2.163,2.163,0,0,1,14.6,1.442H26.918a.721.721,0,0,0,0-1.442H14.6A3.6,3.6,0,0,0,11,3.6V16.581a.721.721,0,1,0,1.442,0Zm18.744-4.326V28.837H11.721a.721.721,0,0,0-.721.721V31a3.6,3.6,0,0,0,3.6,3.6H29.023a3.6,3.6,0,0,0,3.6-3.6V12.256a.721.721,0,0,0-1.442,0ZM29.023,33.163H14.6A2.163,2.163,0,0,1,12.442,31v-.721H31.186V31A2.163,2.163,0,0,1,29.023,33.163Z" transform="translate(-2.512)"/><path class="a" d="M20.023,31H18.581a.721.721,0,1,0,0,1.442h1.442a.721.721,0,1,0,0-1.442Zm-6.488-4.326V19.465a.721.721,0,0,0-.721-.721H2.721A.721.721,0,0,0,2,19.465v7.209a.721.721,0,0,0,.721.721H12.814A.721.721,0,0,0,13.535,26.674ZM3.442,20.186H4.884v5.767H3.442Zm8.651,5.767H6.326V20.186H8.488v1.442a.721.721,0,0,0,1.442,0V20.186h2.163ZM29.987,9.783C30.491,9.055,33,5.335,33,3.6a3.6,3.6,0,0,0-7.209,0c0,1.73,2.509,5.45,3.013,6.178a.721.721,0,0,0,1.182,0ZM29.4,1.442A2.163,2.163,0,0,1,31.558,3.6c0,.786-1.125,2.84-2.163,4.463C28.357,6.445,27.233,4.39,27.233,3.6A2.163,2.163,0,0,1,29.4,1.442ZM17.86,13.7a2.884,2.884,0,1,0,0,5.767h6.488a1.442,1.442,0,0,1,0,2.884H15.7a.721.721,0,1,0,0,1.442h8.651a2.884,2.884,0,0,0,0-5.767H17.86a1.442,1.442,0,1,1,0-2.884h6.488a2.884,2.884,0,0,0,2.884-2.884V10.093a.721.721,0,1,0-1.442,0v2.163A1.442,1.442,0,0,1,24.349,13.7Z"/><path class="a" d="M40.442,4.721a.721.721,0,1,0-.721.721A.721.721,0,0,0,40.442,4.721Z" transform="translate(-10.326 -1.116)"/></g></svg>