<svg xmlns="http://www.w3.org/2000/svg" xmlns:xlink="http://www.w3.org/1999/xlink" width="30.62" height="31" viewBox="0 0 30.62 31"><defs><style>.a{fill-rule:evenodd;fill:url(#a);}</style><linearGradient id="a" x1="0.5" x2="0.5" y2="1" gradientUnits="objectBoundingBox"><stop offset="0" stop-color="#3b7ded"/><stop offset="1" stop-color="#183377"/></linearGradient></defs><path class="a" d="M252.728,409.333a3.643,3.643,0,0,1-1.224-.705c0-.008,0-.008-.008-.008-.047-.039-.085-.085-.132-.124a.03.03,0,0,1-.016-.016,3.71,3.71,0,0,1-1.077-2.379,10.933,10.933,0,0,0,2.209-6.788,11.989,11.989,0,0,0-.364-2.945v-.005a3.255,3.255,0,0,0-.581-4.069,8.832,8.832,0,0,0-5.493-2.27,5.575,5.575,0,0,0-.721,0,9.111,9.111,0,0,0-8.608,9.291.784.784,0,0,0,.271.589,2.694,2.694,0,0,0,1.573.627,10.324,10.324,0,0,0,2.355,5.827.8.8,0,0,0,.589.264.748.748,0,0,0,.5-.194.775.775,0,0,0,.078-1.092,8.867,8.867,0,0,1-1.976-4.99c1.766-.488,4.083-1.938,7.244-4.517l2.448,2.255a.81.81,0,0,0,.6.2.739.739,0,0,0,.45-.209,9.415,9.415,0,0,1,.078,1.24,9.231,9.231,0,0,1-2.03,6.013v.008l-.016.016a4.544,4.544,0,0,1-3.394,1.713.775.775,0,1,0,0,1.55,5.7,5.7,0,0,0,3.456-1.209,5.127,5.127,0,0,0,.891,1.705l-4.122,4.122a.775.775,0,0,0,1.092,1.1l4.161-4.161a5.264,5.264,0,0,0,1.271.636c6.152,2.054,6.818,3.363,6.818,3.828,0,1.589-4.44,3.658-9.7,4.517a24.385,24.385,0,0,1-5.137.279.788.788,0,0,0-.814.736.778.778,0,0,0,.736.814c.442.023.9.031,1.356.031a25.077,25.077,0,0,0,4.114-.326c4.083-.674,10.994-2.7,10.994-6.052,0-1.846-2.433-3.482-7.88-5.3Zm-2.015-13.669-.5.69-2.3-2.131a.778.778,0,0,0-1.023-.023c-3.828,3.178-6.539,4.789-8.073,4.789a1.376,1.376,0,0,1-.535-.093,7.54,7.54,0,0,1,7.136-7.324c.085-.008.163-.008.248-.008s.178,0,.295.008a7.13,7.13,0,0,1,4.54,1.875,1.683,1.683,0,0,1,.218,2.22Zm.782,12.956c-.046-.039-.085-.085-.132-.124a.982.982,0,0,1,.1.085c.009.016.024.023.032.039Zm-14.529,12.134a6.975,6.975,0,1,1,6.973-6.974A6.975,6.975,0,0,1,236.966,420.754Zm0-12.4a5.425,5.425,0,1,0,5.423,5.425,5.425,5.425,0,0,0-5.423-5.425Zm-.876,8.445a.775.775,0,0,1-.548-.227l-2.223-2.223a.775.775,0,0,1,1.1-1.1l1.676,1.675,3.427-3.428a.775.775,0,0,1,1.094,1.1l-3.975,3.975a.773.773,0,0,1-.546.226Z" transform="translate(-229.988 -390.012)"/></svg>